<?xml version="1.0" encoding="UTF-8"?>
<svg xmlns="http://www.w3.org/2000/svg" xmlns:xlink="http://www.w3.org/1999/xlink"
     width="46.0mm" height="46.0mm" viewBox="-23.0 -23.0 46.0 46.0" displayInline="False">
<defs>
</defs>
<circle cx="0" cy="0" r="13.0" fill="none" stroke="red" stroke-width="0.1" />
<circle cx="0" cy="0" r="5.0" fill="none" stroke="red" stroke-width="0.1" />
<path d="M5.183304082675189,3.662310907942748 A6.3465866731585505,6.3465866731585505,0,0,1,2.429985643653903,5.862962746901062 A0.043870911622217,0.043870911622217,0,0,0,2.4635802956790176,5.94401844936282 A6.434328496402984,6.434328496402984,0,0,0,5.254963475994071,3.712942507714307 A0.043870911622217,0.043870911622217,0,0,0,5.183304082675189,3.662310907942748 Z" fill="#00FF00" stroke="none" />
<path d="M4.974881633715821,6.037459698331289 A7.823066334785711,7.823066334785711,0,0,1,3.649810032604364,6.91948362266709 A0.015356642797159554,0.015356642797159554,0,0,0,3.6641391528110963,6.946649450946367 A7.853779620380029,7.853779620380029,0,0,0,4.994412972691541,6.061162708895639 A0.015356642797159554,0.015356642797159554,0,0,0,4.974881633715821,6.037459698331289 Z" fill="#00FF00" stroke="none" />
<path d="M5.589128662797633,5.453333438527626 A7.8087902264736,7.8087902264736,0,0,1,2.606680513859644,7.360870974262084 A0.028383695081544768,0.028383695081544768,0,0,0,2.6256302417264687,7.414382135711839 A7.86555761663669,7.86555761663669,0,0,0,5.629759828224141,5.492977416405891 A0.028383695081544768,0.028383695081544768,0,0,0,5.589128662797633,5.453333438527626 Z" fill="#00FF00" stroke="none" />
<path d="M9.567015250523433,1.893706803354822 A9.752635862207729,9.752635862207729,0,0,1,9.046391581310104,3.643721396926769 A0.052759521006504266,0.052759521006504266,0,0,0,9.14426938448262,3.68314478939197 A9.858154904220736,9.858154904220736,0,0,0,9.670525962747497,1.9141958414535214 A0.052759521006504266,0.052759521006504266,0,0,0,9.567015250523433,1.893706803354822 Z" fill="#00FF00" stroke="none" />
<path d="M9.035981298656289,7.189910410393503 A11.547457284577893,11.547457284577893,0,0,1,7.7990519078086855,8.515782939839223 A0.04152211902039153,0.04152211902039153,0,0,0,7.855139261687836,8.577024708319643 A11.630501522618678,11.630501522618678,0,0,0,9.100964105122252,7.241617086322069 A0.04152211902039153,0.04152211902039153,0,0,0,9.035981298656289,7.189910410393503 Z" fill="#00FF00" stroke="none" />
<path d="M10.91964255921061,-0.8087373568255299 A10.949550206892006,10.949550206892006,0,0,1,10.643330539971489,2.5714129870868643 A0.02235591823924556,0.02235591823924556,0,0,0,10.686791946668377,2.581913198951725 A10.994262043370497,10.994262043370497,0,0,0,10.9642322695901,-0.8120397876806047 A0.02235591823924556,0.02235591823924556,0,0,0,10.91964255921061,-0.8087373568255299 Z" fill="#00FF00" stroke="none" />
<path d="M0.6493341171753034,6.139275270593195 A6.173518902849896,6.173518902849896,0,0,1,-3.5088048775352183,5.0794314618104695 A0.04305345555482338,0.04305345555482338,0,0,0,-3.557744931732112,5.150278277095631 A6.259625813959543,6.259625813959543,0,0,0,0.6583908894939667,6.224904558900483 A0.04305345555482338,0.04305345555482338,0,0,0,0.6493341171753034,6.139275270593195 Z" fill="#00FF00" stroke="none" />
<path d="M-1.4851635351990522,7.794234062621125 A7.934468813298616,7.934468813298616,0,0,1,-3.9794150464283864,6.864404652806222 A0.024462363733387216,0.024462363733387216,0,0,0,-4.0039525172036665,6.906731257745083 A7.98339354076539,7.98339354076539,0,0,0,-1.4943212019456176,7.842294088603817 A0.024462363733387216,0.024462363733387216,0,0,0,-1.4851635351990522,7.794234062621125 Z" fill="#00FF00" stroke="none" />
<path d="M2.6994794039856425,5.646387768125346 A6.25850492374802,6.25850492374802,0,0,1,1.052640608481496,6.1693461266129255 A0.02823755560194284,0.02823755560194284,0,0,0,1.0621393619611237,6.22501669215545 A6.314980034951906,6.314980034951906,0,0,0,2.7238387999420475,5.697339294247047 A0.02823755560194284,0.02823755560194284,0,0,0,2.6994794039856425,5.646387768125346 Z" fill="#00FF00" stroke="none" />
<path d="M3.7662228883053164,7.192005732473415 A8.1184592935067,8.1184592935067,0,0,1,2.610030439130722,7.687465278434524 A0.016575486976087732,0.016575486976087732,0,0,0,2.620688255838778,7.718856328385031 A8.151610267458874,8.151610267458874,0,0,0,3.7816019094168905,7.221373619418641 A0.016575486976087732,0.016575486976087732,0,0,0,3.7662228883053164,7.192005732473415 Z" fill="#00FF00" stroke="none" />
<path d="M-1.0613189363150106,7.366122649966429 A7.442187902688917,7.442187902688917,0,0,1,-4.2571445634605025,6.104332964765925 A0.014852431326608332,0.014852431326608332,0,0,0,-4.2741365954013775,6.128697892752004 A7.471892765342134,7.471892765342134,0,0,0,-1.0655551009545927,7.395523904606203 A0.014852431326608332,0.014852431326608332,0,0,0,-1.0613189363150106,7.366122649966429 Z" fill="#00FF00" stroke="none" />
<path d="M3.101399153665801,7.950358844599616 A8.533866794616745,8.533866794616745,0,0,1,-0.4367911835959226,8.522681264144234 A0.0462845433064672,0.0462845433064672,0,0,0,-0.44152917188179114,8.615129018380644 A8.626435881229678,8.626435881229678,0,0,0,3.1350408419867475,8.036598467762458 A0.0462845433064672,0.0462845433064672,0,0,0,3.101399153665801,7.950358844599616 Z" fill="#00FF00" stroke="none" />
<path d="M0.9020791413854014,8.846418072035926 A8.892292138845105,8.892292138845105,0,0,1,-2.718059971968427,8.466700034331526 A0.01349091125710459,0.01349091125710459,0,0,0,-2.726307363147385,8.49239048557181 A8.919273961359314,8.919273961359314,0,0,0,0.9048163140858241,8.873260699176285 A0.01349091125710459,0.01349091125710459,0,0,0,0.9020791413854014,8.846418072035926 Z" fill="#00FF00" stroke="none" />
<path d="M6.657463275506152,9.77854618466924 A11.829699182583742,11.829699182583742,0,0,1,5.532790559459391,10.456099242814192 A0.016298550958524935,0.016298550958524935,0,0,0,5.548036334940977,10.484911347620253 A11.86229628450079,11.86229628450079,0,0,0,6.675808121435978,9.805491271071057 A0.016298550958524935,0.016298550958524935,0,0,0,6.657463275506152,9.77854618466924 Z" fill="#00FF00" stroke="none" />
<path d="M7.602577500423209,8.342644379373544 A11.28711211473662,11.28711211473662,0,0,1,4.057837631420717,10.532466645931526 A0.053387806773711036,0.053387806773711036,0,0,0,4.096224607501611,10.632103344571103 A11.393887728284044,11.393887728284044,0,0,0,7.674497568984383,8.421565449985799 A0.053387806773711036,0.053387806773711036,0,0,0,7.602577500423209,8.342644379373544 Z" fill="#00FF00" stroke="none" />
<path d="M-0.30626228252208976,9.364076374995905 A9.369083356575077,9.369083356575077,0,0,1,-2.3605447982582066,9.066837993361757 A0.021389617566659993,0.021389617566659993,0,0,0,-2.3713230459398815,9.108237176149636 A9.411862591708397,9.411862591708397,0,0,0,-0.30766067612131903,9.406832748251054 A0.021389617566659993,0.021389617566659993,0,0,0,-0.30626228252208976,9.364076374995905 Z" fill="#00FF00" stroke="none" />
<path d="M4.740118160637449,8.780996602736552 A9.978708409111663,9.978708409111663,0,0,1,3.2442174660209946,9.436613510536507 A0.052975483078517495,0.052975483078517495,0,0,0,3.2786636048253506,9.536808673848316 A10.084659375268698,10.084659375268698,0,0,0,4.7904473293262,8.87423062018034 A0.052975483078517495,0.052975483078517495,0,0,0,4.740118160637449,8.780996602736552 Z" fill="#00FF00" stroke="none" />
<path d="M0.19043601646215658,9.319683214528816 A9.321628671832842,9.321628671832842,0,0,1,-1.8645411325326289,9.133249556462916 A0.03330368921597882,0.03330368921597882,0,0,0,-1.877864147339239,9.198510878377515 A9.3882360502648,9.3882360502648,0,0,0,0.19179677049582647,9.386276691762234 A0.03330368921597882,0.03330368921597882,0,0,0,0.19043601646215658,9.319683214528816 Z" fill="#00FF00" stroke="none" />
<path d="M5.2421608430712245,9.762988202594348 A11.081344185098919,11.081344185098919,0,0,1,3.3159395541709076,10.573586611065824 A0.02965087098349789,0.02965087098349789,0,0,0,3.3336847833177488,10.630171091648808 A11.140645927065913,11.140645927065913,0,0,0,5.27021423302759,9.815234771020188 A0.02965087098349789,0.02965087098349789,0,0,0,5.2421608430712245,9.762988202594348 Z" fill="#00FF00" stroke="none" />
<path d="M0.12343081097687934,9.125875210077256 A9.126709895411436,9.126709895411436,0,0,1,-2.985424887959458,8.624620093276762 A0.032324697939865775,0.032324697939865775,0,0,0,-3.006572258442651,8.685712916990033 A9.191359291291166,9.191359291291166,0,0,0,0.12430513781032151,9.190518693431747 A0.032324697939865775,0.032324697939865775,0,0,0,0.12343081097687934,9.125875210077256 Z" fill="#00FF00" stroke="none" />
<path d="M-7.787706840796455,2.3576060391137488 A8.136748986779272,8.136748986779272,0,0,1,-8.113446835752399,0.6153572273670862 A0.018253006487643976,0.018253006487643976,0,0,0,-8.149848302227712,0.6181180645224661 A8.17325499975456,8.17325499975456,0,0,0,-7.822646855222337,2.3681835801924214 A0.018253006487643976,0.018253006487643976,0,0,0,-7.787706840796455,2.3576060391137488 Z" fill="#00FF00" stroke="none" />
<path d="M-6.249276623545945,5.270122164949107 A8.174817793142894,8.174817793142894,0,0,1,-7.627948965449213,2.9397347723201057 A0.02104868105966296,0.02104868105966296,0,0,0,-7.667230150418938,2.954873345726468 A8.21691515526222,8.21691515526222,0,0,0,-6.28145814338678,5.29726139261202 A0.02104868105966296,0.02104868105966296,0,0,0,-6.249276623545945,5.270122164949107 Z" fill="#00FF00" stroke="none" />
<path d="M-3.375581790329013,5.446758701261197 A6.407942943953651,6.407942943953651,0,0,1,-5.655813684799359,3.0122258108916196 A0.03782890003658377,0.03782890003658377,0,0,0,-5.722591186527803,3.0477907933156145 A6.483600744026819,6.483600744026819,0,0,0,-3.415436872444611,5.51106791631993 A0.03782890003658377,0.03782890003658377,0,0,0,-3.375581790329013,5.446758701261197 Z" fill="#00FF00" stroke="none" />
<path d="M-5.487098545607767,6.625456680456839 A8.602611619375887,8.602611619375887,0,0,1,-7.485067318702524,4.240128996659468 A0.0322842120304431,0.0322842120304431,0,0,0,-7.541247816223733,4.271954035292217 A8.667180043436774,8.667180043436774,0,0,0,-5.528282934887726,6.675185218192664 A0.0322842120304431,0.0322842120304431,0,0,0,-5.487098545607767,6.625456680456839 Z" fill="#00FF00" stroke="none" />
<path d="M-7.751594248331135,3.96863919161723 A8.708462001065435,8.708462001065435,0,0,1,-8.689456501284821,0.5750270743882745 A0.05404392502684485,0.05404392502684485,0,0,0,-8.797308458524116,0.5821642060868095 A8.816549851119124,8.816549851119124,0,0,0,-7.847805629478363,4.017897221084229 A0.05404392502684485,0.05404392502684485,0,0,0,-7.751594248331135,3.96863919161723 Z" fill="#00FF00" stroke="none" />
<path d="M-4.886828134881818,4.633051019937642 A6.733962501619513,6.733962501619513,0,0,1,-6.468778384191353,1.8711379397138073 A0.048579315041131874,0.048579315041131874,0,0,0,-6.562110897694753,1.8981350010835167 A6.831121131701777,6.831121131701777,0,0,0,-4.957336030777941,4.69989738121306 A0.048579315041131874,0.048579315041131874,0,0,0,-4.886828134881818,4.633051019937642 Z" fill="#00FF00" stroke="none" />
<path d="M-5.961237389862336,8.41064605373381 A10.308992106868683,10.308992106868683,0,0,1,-6.779071624188092,7.766563343822583 A0.05179782597317966,0.05179782597317966,0,0,0,-6.847194903090491,7.844609983556639 A10.412587758815043,10.412587758815043,0,0,0,-6.021142205717063,8.49516511749816 A0.05179782597317966,0.05179782597317966,0,0,0,-5.961237389862336,8.41064605373381 Z" fill="#00FF00" stroke="none" />
<path d="M-6.945086948989342,8.322944426437195 A10.840001690709464,10.840001690709464,0,0,1,-8.811966078383737,6.313072982945658 A0.04494247076890577,0.04494247076890577,0,0,0,-8.885034614569255,6.36542077883967 A10.929886632247275,10.929886632247275,0,0,0,-7.002675384138752,8.391958010986164 A0.04494247076890577,0.04494247076890577,0,0,0,-6.945086948989342,8.322944426437195 Z" fill="#00FF00" stroke="none" />
<path d="M-6.504861662704538,8.990184860661406 A11.096695412589678,11.096695412589678,0,0,1,-7.681664193901276,8.008038729422072 A0.027378640030834487,0.027378640030834487,0,0,0,-7.719569806515273,8.04755485590367 A11.151452692651347,11.151452692651347,0,0,0,-6.536960275722519,9.034547443567206 A0.027378640030834487,0.027378640030834487,0,0,0,-6.504861662704538,8.990184860661406 Z" fill="#00FF00" stroke="none" />
<path d="M-8.152642718817653,7.408116295502243 A11.015705621900777,11.015705621900777,0,0,1,-9.913218502122524,4.803526754120564 A0.03250412037404097,0.03250412037404097,0,0,0,-9.9717205098099,4.831874354754597 A11.080713862648858,11.080713862648858,0,0,0,-8.200754839710235,7.451834657644231 A0.03250412037404097,0.03250412037404097,0,0,0,-8.152642718817653,7.408116295502243 Z" fill="#00FF00" stroke="none" />
<path d="M-6.119882334123092,9.917069780640027 A11.653378600972147,11.653378600972147,0,0,1,-8.773571238734249,7.669790123363921 A0.04742868075225863,0.04742868075225863,0,0,0,-8.844987250105305,7.732221464463146 A11.748235962476663,11.748235962476663,0,0,0,-6.169697577479607,9.997793758248479 A0.04742868075225863,0.04742868075225863,0,0,0,-6.119882334123092,9.917069780640027 Z" fill="#00FF00" stroke="none" />
<path d="M-5.028989287358334,8.91004179725223 A10.231303830946798,10.231303830946798,0,0,1,-8.372323043516696,5.8807979846400045 A0.01541593046723213,0.01541593046723213,0,0,0,-8.397552897310634,5.898519669836927 A10.262135691881264,10.262135691881264,0,0,0,-5.044144061462467,8.936892057409906 A0.01541593046723213,0.01541593046723213,0,0,0,-5.028989287358334,8.91004179725223 Z" fill="#00FF00" stroke="none" />
<path d="M-8.236821130646705,2.8001466451565906 A8.699772616146342,8.699772616146342,0,0,1,-8.589254837320793,-1.382296969616562 A0.03975232307875236,0.03975232307875236,0,0,0,-8.667749494219116,-1.3949293723589038 A8.779277262303848,8.779277262303848,0,0,0,-8.312095000246392,2.8257363562944566 A0.03975232307875236,0.03975232307875236,0,0,0,-8.236821130646705,2.8001466451565906 Z" fill="#00FF00" stroke="none" />
<path d="M-5.609015529373913,-2.153171606991758 A6.008094804337993,6.008094804337993,0,0,1,-3.4301967133454974,-4.932641653887594 A0.047352800143807,0.047352800143807,0,0,0,-3.4842669052152115,-5.010394885826915 A6.102800404625608,6.102800404625608,0,0,0,-5.697430442924938,-2.1871120517089704 A0.047352800143807,0.047352800143807,0,0,0,-5.609015529373913,-2.153171606991758 Z" fill="#00FF00" stroke="none" />
<path d="M-6.350055812917514,-3.681916667527179 A7.340280592305852,7.340280592305852,0,0,1,-4.930601676384833,-5.4377280441939195 A0.019433273929056208,0.019433273929056208,0,0,0,-4.956709052474158,-5.466520637966234 A7.3791471401639654,7.3791471401639654,0,0,0,-6.383679152659206,-3.701412296961023 A0.019433273929056208,0.019433273929056208,0,0,0,-6.350055812917514,-3.681916667527179 Z" fill="#00FF00" stroke="none" />
<path d="M-6.244871400277867,-3.333744310027529 A7.079002043413278,7.079002043413278,0,0,1,-4.509757892166341,-5.4565880992331435 A0.023408730896505005,0.023408730896505005,0,0,0,-4.539583482908849,-5.492675615988946 A7.125819505206288,7.125819505206288,0,0,0,-6.2861722822936885,-3.355792254908065 A0.023408730896505005,0.023408730896505005,0,0,0,-6.244871400277867,-3.333744310027529 Z" fill="#00FF00" stroke="none" />
<path d="M-8.4397078032568,2.2026776461511384 A8.72241116992358,8.72241116992358,0,0,1,-8.496419448216383,-1.9726411678706421 A0.04100660860066472,0.04100660860066472,0,0,0,-8.576307758921446,-1.991189095205083 A8.804424387124909,8.804424387124909,0,0,0,-8.519062877868619,2.223388511151543 A0.04100660860066472,0.04100660860066472,0,0,0,-8.4397078032568,2.2026776461511384 Z" fill="#00FF00" stroke="none" />
<path d="M-4.5779462193904825,-3.878811902185734 A6.0002311088965,6.0002311088965,0,0,1,-3.2844744830152197,-5.021454045452495 A0.04469328653547531,0.04469328653547531,0,0,0,-3.3334039180732145,-5.096259592240643 A6.08961768196745,6.08961768196745,0,0,0,-4.646144746551828,-3.936595293730291 A0.04469328653547531,0.04469328653547531,0,0,0,-4.5779462193904825,-3.878811902185734 Z" fill="#00FF00" stroke="none" />
<path d="M-10.231373044030315,-5.277479935473773 A11.512288601118303,11.512288601118303,0,0,1,-7.593134941160664,-8.653154950696505 A0.040633377810630936,0.040633377810630936,0,0,0,-7.646735876912276,-8.714238706767636 A11.593555356739564,11.593555356739564,0,0,0,-10.303597648680897,-5.314734358731594 A0.040633377810630936,0.040633377810630936,0,0,0,-10.231373044030315,-5.277479935473773 Z" fill="#00FF00" stroke="none" />
<path d="M-9.750259002959579,-3.179477845264449 A10.25556580561608,10.25556580561608,0,0,1,-8.041437909178095,-6.364896412837778 A0.025839464418436008,0.025839464418436008,0,0,0,-8.081959602991123,-6.396969828874266 A10.30724473445295,10.30724473445295,0,0,0,-9.799391635005982,-3.1954995853047548 A0.025839464418436008,0.025839464418436008,0,0,0,-9.750259002959579,-3.179477845264449 Z" fill="#00FF00" stroke="none" />
<path d="M-11.69166662002744,-1.7326399065168998 A11.819353171790695,11.819353171790695,0,0,1,-11.273962661334734,-3.548925937568855 A0.01191609411094159,0.01191609411094159,0,0,0,-11.296695140536109,-3.556081885081409 A11.84318536001258,11.84318536001258,0,0,0,-11.715241344927028,-1.736133549508414 A0.01191609411094159,0.01191609411094159,0,0,0,-11.69166662002744,-1.7326399065168998 Z" fill="#00FF00" stroke="none" />
<path d="M-9.389732702696671,-1.2308546751692795 A9.470062484454758,9.470062484454758,0,0,1,-8.399010987343713,-4.374779753765556 A0.019245470095694262,0.019245470095694262,0,0,0,-8.433148653289564,-4.3925609865852016 A9.508553424646145,9.508553424646145,0,0,0,-9.42789714358245,-1.2358574672589833 A0.019245470095694262,0.019245470095694262,0,0,0,-9.389732702696671,-1.2308546751692795 Z" fill="#00FF00" stroke="none" />
<path d="M-10.056415003496692,-2.5870561482588923 A10.383850068100825,10.383850068100825,0,0,1,-8.172370937945056,-6.405989032883881 A0.04483487096354036,0.04483487096354036,0,0,0,-8.242943450850372,-6.461307954054656 A10.473519810027907,10.473519810027907,0,0,0,-10.143257179776315,-2.609396672789181 A0.04483487096354036,0.04483487096354036,0,0,0,-10.056415003496692,-2.5870561482588923 Z" fill="#00FF00" stroke="none" />
<path d="M-11.593358859524304,-2.887987396803411 A11.947654198620164,11.947654198620164,0,0,1,-10.88088901840033,-4.93484498429901 A0.026172900689918066,0.026172900689918066,0,0,0,-10.92856104220723,-4.956465832299301 A12.0,12.0,0,0,0,-11.644152400255999,-2.9006404257702187 A0.026172900689918066,0.026172900689918066,0,0,0,-11.593358859524304,-2.887987396803411 Z" fill="#00FF00" stroke="none" />
<path d="M-3.2059472657466803,-5.199628186561457 A6.108537562234761,6.108537562234761,0,0,1,-1.8144659448531333,-5.832833315310941 A0.01909456460880214,0.01909456460880214,0,0,0,-1.8258095559421987,-5.869298806914085 A6.146726691452366,6.146726691452366,0,0,0,-3.2259900882961148,-5.23213502975871 A0.01909456460880214,0.01909456460880214,0,0,0,-3.2059472657466803,-5.199628186561457 Z" fill="#00FF00" stroke="none" />
<path d="M-3.7535774827820823,-7.934840586525305 A8.777872125567672,8.777872125567672,0,0,1,-1.9087881472627881,-8.567821593712548 A0.04990663143334395,0.04990663143334395,0,0,0,-1.9304929944483171,-8.665246370092829 A8.877685388434362,8.877685388434362,0,0,0,-3.7962594460893553,-8.025067730181366 A0.04990663143334395,0.04990663143334395,0,0,0,-3.7535774827820823,-7.934840586525305 Z" fill="#00FF00" stroke="none" />
<path d="M-2.8844753676250043,-6.034930921559531 A6.688840659967225,6.688840659967225,0,0,1,-0.7335558814688181,-6.648494953235152 A0.023073137602376677,0.023073137602376677,0,0,0,-0.7386166794912503,-6.694362883629371 A6.734986935171978,6.734986935171978,0,0,0,-2.9043753474424947,-6.076565877048115 A0.023073137602376677,0.023073137602376677,0,0,0,-2.8844753676250043,-6.034930921559531 Z" fill="#00FF00" stroke="none" />
<path d="M-3.655694715053281,-4.845205784633075 A6.069606490136762,6.069606490136762,0,0,1,-1.4550331337708506,-5.892622635528197 A0.012206104553803908,0.012206104553803908,0,0,0,-1.4608853373985213,-5.9163230082302 A6.094018699244369,6.094018699244369,0,0,0,-3.6703980708577273,-4.864693403307541 A0.012206104553803908,0.012206104553803908,0,0,0,-3.655694715053281,-4.845205784633075 Z" fill="#00FF00" stroke="none" />
<path d="M0.20047888435972253,-6.361023545895153 A6.3641819847099494,6.3641819847099494,0,0,1,1.696812438835027,-6.133811203641778 A0.031976455579436465,0.031976455579436465,0,0,0,1.71386350610727,-6.195449146100723 A6.428134895868823,6.428134895868823,0,0,0,0.20249347292923398,-6.424944718276379 A0.031976455579436465,0.031976455579436465,0,0,0,0.20047888435972253,-6.361023545895153 Z" fill="#00FF00" stroke="none" />
<path d="M-3.4939337765976854,-5.069405003529629 A6.156820634472098,6.156820634472098,0,0,1,-2.442723846312912,-5.651507810816124 A0.01187664356333561,0.01187664356333561,0,0,0,-2.452147983272136,-5.673311578653264 A6.18057392159877,6.18057392159877,0,0,0,-3.507413528100016,-5.088962992913959 A0.01187664356333561,0.01187664356333561,0,0,0,-3.4939337765976854,-5.069405003529629 Z" fill="#00FF00" stroke="none" />
<path d="M-5.046030290448192,-5.350784518343387 A7.354815881710699,7.354815881710699,0,0,1,-2.539768106698375,-6.90238325638773 A0.028186810381393843,0.028186810381393843,0,0,0,-2.5592350690771988,-6.955289045235909 A7.411189502473487,7.411189502473487,0,0,0,-5.084707397057841,-5.391797522893315 A0.028186810381393843,0.028186810381393843,0,0,0,-5.046030290448192,-5.350784518343387 Z" fill="#00FF00" stroke="none" />
<path d="M-3.3833968542237547,-6.266415316822253 A7.121470016511741,7.121470016511741,0,0,1,-0.9812812638900245,-7.05353969842193 A0.053259408292632635,0.053259408292632635,0,0,0,-0.9959586996897271,-7.159042452722805 A7.2279888330970055,7.2279888330970055,0,0,0,-3.4340037413010873,-6.36014472131768 A0.053259408292632635,0.053259408292632635,0,0,0,-3.3833968542237547,-6.266415316822253 Z" fill="#00FF00" stroke="none" />
<path d="M1.161659739909122,-8.199723902442917 A8.281601622127173,8.281601622127173,0,0,1,3.3753656776556284,-7.562528146706217 A0.032395392462015934,0.032395392462015934,0,0,0,3.401772718423761,-7.621693288546176 A8.346392407051205,8.346392407051205,0,0,0,1.1707479392451372,-8.263874120243802 A0.032395392462015934,0.032395392462015934,0,0,0,1.161659739909122,-8.199723902442917 Z" fill="#00FF00" stroke="none" />
<path d="M-3.002185364628801,-5.6444081282693865 A6.393157285885033,6.393157285885033,0,0,1,-0.8082830258014595,-6.341856087319084 A0.015494826274250341,0.015494826274250341,0,0,0,-0.8122010289117131,-6.3725970667554135 A6.424146938433534,6.424146938433534,0,0,0,-3.0167379052868335,-5.6717683571696185 A0.015494826274250341,0.015494826274250341,0,0,0,-3.002185364628801,-5.6444081282693865 Z" fill="#00FF00" stroke="none" />
<path d="M-1.3302312460414705,-6.662202947727029 A6.7937076243129395,6.7937076243129395,0,0,1,2.6343693827795995,-6.262153083382839 A0.048186451869857344,0.048186451869857344,0,0,0,2.67173952600344,-6.3509855603867695 A6.890080528052654,6.890080528052654,0,0,0,-1.3491013910220298,-6.756710377083864 A0.048186451869857344,0.048186451869857344,0,0,0,-1.3302312460414705,-6.662202947727029 Z" fill="#00FF00" stroke="none" />
<path d="M-3.2584089536096648,-5.130762100052162 A6.0779888644431805,6.0779888644431805,0,0,1,0.023601138995786766,-6.077943042060645 A0.0538560780665611,0.0538560780665611,0,0,0,0.02401939076049555,-6.185654386144299 A6.185701020576302,6.185701020576302,0,0,0,-3.3161534249774847,-5.221687809316908 A0.0538560780665611,0.0538560780665611,0,0,0,-3.2584089536096648,-5.130762100052162 Z" fill="#00FF00" stroke="none" />
<path d="M-1.2393072533522653,-7.177733840942988 A7.283937503825092,7.283937503825092,0,0,1,3.099597677360971,-6.591527880402857 A0.035919656909978795,0.035919656909978795,0,0,0,3.1301680893315034,-6.656538163605395 A7.355776817645049,7.355776817645049,0,0,0,-1.251530172981404,-7.248525699555839 A0.035919656909978795,0.035919656909978795,0,0,0,-1.2393072533522653,-7.177733840942988 Z" fill="#00FF00" stroke="none" />
<path d="M-2.1070766043304086,-6.987737439268298 A7.298509870971501,7.298509870971501,0,0,1,0.0821468044439233,-7.298047563505468 A0.02422226375463003,0.02422226375463003,0,0,0,0.08269206137965883,-7.346489022406593 A7.346954398480761,7.346954398480761,0,0,0,-2.1210625182124447,-7.034119186308267 A0.02422226375463003,0.02422226375463003,0,0,0,-2.1070766043304086,-6.987737439268298 Z" fill="#00FF00" stroke="none" />
<path d="M-3.3339725211515114,-5.604699004830998 A6.521351371191936,6.521351371191936,0,0,1,1.0378228457936527,-6.438241021218118 A0.041323503555720405,0.041323503555720405,0,0,0,1.0509754804600848,-6.519834746380104 A6.603998378303376,6.603998378303376,0,0,0,-3.3762249370974096,-5.675729006458573 A0.041323503555720405,0.041323503555720405,0,0,0,-3.3339725211515114,-5.604699004830998 Z" fill="#00FF00" stroke="none" />
<path d="M-4.322026086205717,-6.912585043544635 A8.152529759165537,8.152529759165537,0,0,1,-0.4463608062479459,-8.14030119250666 A0.024141068050847616,0.024141068050847616,0,0,0,-0.44900431124999707,-8.188510906754379 A8.20081189526723,8.20081189526723,0,0,0,-4.347622638183298,-6.953523792834293 A0.024141068050847616,0.024141068050847616,0,0,0,-4.322026086205717,-6.912585043544635 Z" fill="#00FF00" stroke="none" />
<path d="M-2.7196971042994935,-9.733744206195809 A10.106558692788832,10.106558692788832,0,0,1,1.6756537859204295,-9.966680139370183 A0.01593152215681419,0.01593152215681419,0,0,0,1.6809366356478224,-9.998102187229767 A10.13842173710246,10.13842173710246,0,0,0,-2.7282715193885556,-9.764431874709604 A0.01593152215681419,0.01593152215681419,0,0,0,-2.7196971042994935,-9.733744206195809 Z" fill="#00FF00" stroke="none" />
<path d="M-2.325835432266083,-9.553943759567444 A9.832972684746057,9.832972684746057,0,0,1,0.9405603086200939,-9.787885273378032 A0.03263979498541199,0.03263979498541199,0,0,0,0.9468045435283023,-9.85286553497469 A9.898252274716882,9.898252274716882,0,0,0,-2.341276295189813,-9.617370919514343 A0.03263979498541199,0.03263979498541199,0,0,0,-2.325835432266083,-9.553943759567444 Z" fill="#00FF00" stroke="none" />
<path d="M-5.771303682981216,-6.8911756273038165 A8.988673301858217,8.988673301858217,0,0,1,-3.591279190110401,-8.240082615254455 A0.04859357315612225,0.04859357315612225,0,0,0,-3.6301087441921163,-8.329175864932152 A9.085860448170461,9.085860448170461,0,0,0,-5.833704052492291,-6.965684252933328 A0.04859357315612225,0.04859357315612225,0,0,0,-5.771303682981216,-6.8911756273038165 Z" fill="#00FF00" stroke="none" />
<path d="M1.4451403731371766,-9.28438433320258 A9.396181306503646,9.396181306503646,0,0,1,3.653458212895762,-8.6568161717408 A0.029966855691771748,0.029966855691771748,0,0,0,3.676761861786825,-8.71203382932031 A9.456115017887189,9.456115017887189,0,0,0,1.454358226987268,-9.34360494558209 A0.029966855691771748,0.029966855691771748,0,0,0,1.4451403731371766,-9.28438433320258 Z" fill="#00FF00" stroke="none" />
<path d="M-0.7655932403871085,-9.740228374924477 A9.77027030360012,9.77027030360012,0,0,1,2.776376715062628,-9.367492414807092 A0.02554898909385383,0.02554898909385383,0,0,0,2.7908970131115836,-9.416483886712324 A9.821368281787828,9.821368281787828,0,0,0,-0.7695972510728255,-9.791169235471786 A0.02554898909385383,0.02554898909385383,0,0,0,-0.7655932403871085,-9.740228374924477 Z" fill="#00FF00" stroke="none" />
<path d="M-4.380380761036332,-10.005619535701832 A10.922461165180465,10.922461165180465,0,0,1,-1.0471439406075707,-10.872150085080882 A0.04798959329605866,0.04798959329605866,0,0,0,-1.0563455319105248,-10.967687171996792 A11.018440351772583,11.018440351772583,0,0,0,-4.41887257859008,-10.093542139395613 A0.04798959329605866,0.04798959329605866,0,0,0,-4.380380761036332,-10.005619535701832 Z" fill="#00FF00" stroke="none" />
<path d="M-6.676254967389699,-6.961112739140687 A9.645178637880296,9.645178637880296,0,0,1,-2.5594937637908997,-9.299379690588932 A0.03915936817025685,0.03915936817025685,0,0,0,-2.5802768228484334,-9.374890543571704 A9.723497374220809,9.723497374220809,0,0,0,-6.730466078677934,-7.01763689216282 A0.03915936817025685,0.03915936817025685,0,0,0,-6.676254967389699,-6.961112739140687 Z" fill="#00FF00" stroke="none" />
<path d="M-2.884255093558513,-11.125674009952322 A11.493456817704882,11.493456817704882,0,0,1,0.03809385373051671,-11.493393688495786 A0.05071554557931857,0.05071554557931857,0,0,0,0.038430036413551784,-11.594824222531823 A11.59488790886352,11.59488790886352,0,0,0,-2.909708979709531,-11.223859375121695 A0.05071554557931857,0.05071554557931857,0,0,0,-2.884255093558513,-11.125674009952322 Z" fill="#00FF00" stroke="none" />
<path d="M-7.328703835249036,-8.643322994033147 A11.332119496545033,11.332119496545033,0,0,1,-3.6580517883639163,-10.725464530621675 A0.015165165924805097,0.015165165924805097,0,0,0,-3.667842536219863,-10.754171155058007 A11.362449828394642,11.362449828394642,0,0,0,-7.348319055457257,-8.66645678244513 A0.015165165924805097,0.015165165924805097,0,0,0,-7.328703835249036,-8.643322994033147 Z" fill="#00FF00" stroke="none" />
<path d="M0.09265520487149204,-9.110817999663817 A9.111289129974308,9.111289129974308,0,0,1,2.6561520799920366,-8.715528999317366 A0.04329908149449424,0.04329908149449424,0,0,0,2.681397452788953,-8.798365663816922 A9.197887292963296,9.197887292963296,0,0,0,0.09353584540641294,-9.19741168479914 A0.04329908149449424,0.04329908149449424,0,0,0,0.09265520487149204,-9.110817999663817 Z" fill="#00FF00" stroke="none" />
<path d="M-6.703750988608893,-7.922371553340936 A10.378065732421451,10.378065732421451,0,0,1,-4.138456907127152,-9.517217175956002 A0.017950999910287202,0.017950999910287202,0,0,0,-4.152773532495304,-9.550141146390695 A10.413967732242025,10.413967732242025,0,0,0,-6.726942021793268,-7.949778296506765 A0.017950999910287202,0.017950999910287202,0,0,0,-6.703750988608893,-7.922371553340936 Z" fill="#00FF00" stroke="none" />
<path d="M-2.7011751159578443,-9.96262482949421 A10.322317593463419,10.322317593463419,0,0,1,1.2169530989328712,-10.250330026653879 A0.05012786413836979,0.05012786413836979,0,0,0,1.2287727816840985,-10.349886574163119 A10.422573321740158,10.422573321740158,0,0,0,-2.7274103364886337,-10.059387034181785 A0.05012786413836979,0.05012786413836979,0,0,0,-2.7011751159578443,-9.96262482949421 Z" fill="#00FF00" stroke="none" />
<path d="M-4.670250841137021,-8.204213227847514 A9.440357917321206,9.440357917321206,0,0,1,-0.15921156801193195,-9.439015270871234 A0.032030882248398486,0.032030882248398486,0,0,0,-0.16029196920693664,-9.503067924240948 A9.504419681818002,9.504419681818002,0,0,0,-4.701942913847202,-8.259886580519826 A0.032030882248398486,0.032030882248398486,0,0,0,-4.670250841137021,-8.204213227847514 Z" fill="#00FF00" stroke="none" />
<path d="M-5.773529364049511,-6.910666387678999 A9.005051429022394,9.005051429022394,0,0,1,-3.7963156023791167,-8.165717303854644 A0.046622575958887524,0.046622575958887524,0,0,0,-3.8356255416794953,-8.250271351826159 A9.098296580940168,9.098296580940168,0,0,0,-5.833312878546438,-6.98222468384768 A0.046622575958887524,0.046622575958887524,0,0,0,-5.773529364049511,-6.910666387678999 Z" fill="#00FF00" stroke="none" />
<path d="M-2.2037102185264748,-9.783608954603112 A10.02872588636404,10.02872588636404,0,0,1,-0.5969590524627304,-10.010943152046714 A0.013110638363199539,0.013110638363199539,0,0,0,-0.5985198717219583,-10.037117933734484 A10.05494716309044,10.05494716309044,0,0,0,-2.2094720766248543,-9.809189344444093 A0.013110638363199539,0.013110638363199539,0,0,0,-2.2037102185264748,-9.783608954603112 Z" fill="#00FF00" stroke="none" />
<path d="M-1.0479774134280948,-11.807796220273291 A11.854210570027666,11.854210570027666,0,0,1,3.0294122938887584,-11.460583291970408 A0.02822045476342247,0.02822045476342247,0,0,0,3.043836095810348,-11.515150041977572 A11.910651479554511,11.910651479554511,0,0,0,-1.052967100259458,-11.864016139283748 A0.02822045476342247,0.02822045476342247,0,0,0,-1.0479774134280948,-11.807796220273291 Z" fill="#00FF00" stroke="none" />
</svg>