<?xml version="1.0" encoding="UTF-8"?>
<svg xmlns="http://www.w3.org/2000/svg" xmlns:xlink="http://www.w3.org/1999/xlink"
     width="46.0mm" height="46.0mm" viewBox="-23.0 -23.0 46.0 46.0" displayInline="False">
<defs>
</defs>
<circle cx="0" cy="0" r="13.0" fill="none" stroke="red" stroke-width="0.1" />
<circle cx="0" cy="0" r="5.0" fill="none" stroke="red" stroke-width="0.1" />
<path d="M-2.258743292424046,-5.627808248058709 Q-1.9437449027250877,-6.163889461427975,-1.3782085711049803,-5.905479495563507" stroke="#00FF00" fill="none" stroke-width="0.1" />
<circle cx="-10.773947166442948" cy="-2.019704887915375" r="0.1" stroke-width="0.1" stroke="#00FF00" fill-opacity="1.0" id="d0" />
<path d="M-5.878176817000428,-1.202928637982619 Q-5.861196095776135,-1.5824158396389432,-5.684881467065964,-1.9188857979071927" stroke="#00FF00" fill="none" stroke-width="0.1" />
<use xlink:href="#d0" />
<path d="M-3.058548571460188,-5.161906686101449 Q-2.59365647974636,-5.410447861782767,-2.108742990197844,-5.617223780595843" stroke="#00FF00" fill="none" stroke-width="0.1" />
<use xlink:href="#d0" />
<path d="M-2.856046238503666,-5.276646651380881 Q-2.361164746904835,-5.599998820665634,-1.7841652832456227,-5.728590947350061" stroke="#00FF00" fill="none" stroke-width="0.1" />
<use xlink:href="#d0" />
<path d="M-3.458714465783067,-4.902784335883331 Q-3.0789176370646927,-5.149783120110202,-2.6815663568288626,-5.3674204115127395" stroke="#00FF00" fill="none" stroke-width="0.1" />
<use xlink:href="#d0" />
<path d="M4.596051830201232,-4.120997484451664 Q5.002602073356658,-4.039794947313704,4.9963780686776875,-3.625261216462843" stroke="#00FF00" fill="none" stroke-width="0.1" />
<use xlink:href="#d0" />
<path d="M3.067785992894085,-5.249766098529154 Q3.8204552309652104,-5.203852770311586,4.089725348321278,-4.499500145878603" stroke="#00FF00" fill="none" stroke-width="0.1" />
<use xlink:href="#d0" />
<path d="M-0.03555505461224459,-6.2401771422648435 Q0.26686158820538985,-6.508628289790964,0.5462864581919671,-6.216320940423619" stroke="#00FF00" fill="none" stroke-width="0.1" />
<use xlink:href="#d0" />
<path d="M-0.13413314681227168,-5.998500504203216 Q0.17041038483030546,-5.997579536841673,0.4745148843602036,-5.981206870232848" stroke="#00FF00" fill="none" stroke-width="0.1" />
<use xlink:href="#d0" />
<path d="M6.002116429611573,-0.9501078737880436 Q6.366261269897687,-0.3193192590565926,6.067063542147653,0.3447413261997823" stroke="#00FF00" fill="none" stroke-width="0.1" />
<use xlink:href="#d0" />
<path d="M4.938267992598947,3.4078599198430637 Q4.781586322429552,3.624421642297516,4.61541478061645,3.8337900833075365" stroke="#00FF00" fill="none" stroke-width="0.1" />
<use xlink:href="#d0" />
<path d="M5.483772060182072,2.434798552645881 Q5.314817135506245,2.784370452387612,5.123606963323266,3.1222830886044495" stroke="#00FF00" fill="none" stroke-width="0.1" />
<use xlink:href="#d0" />
<path d="M5.876253016132258,1.212291421398561 Q5.767945274955985,1.6525154477683186,5.626707731744402,2.0833050908419" stroke="#00FF00" fill="none" stroke-width="0.1" />
<use xlink:href="#d0" />
<path d="M5.218754025906456,2.960507797166755 Q4.972358908567414,3.3579230015576997,4.695763699988604,3.7349435435986624" stroke="#00FF00" fill="none" stroke-width="0.1" />
<use xlink:href="#d0" />
<path d="M5.997776969139768,0.16331389547913244 Q5.977298013567375,0.5214484221891136,5.935453583671487,0.8777190644399263" stroke="#00FF00" fill="none" stroke-width="0.1" />
<use xlink:href="#d0" />
<path d="M-3.9394529303048094,4.85895632272639 Q-4.375816560557503,4.751497385221744,-4.5187727667865545,4.325440858270761" stroke="#00FF00" fill="none" stroke-width="0.1" />
<use xlink:href="#d0" />
<path d="M-4.9821873152772165,3.343323130582923 Q-5.170694885260556,3.043667919392706,-5.341201492579561,2.7334166560672513" stroke="#00FF00" fill="none" stroke-width="0.1" />
<use xlink:href="#d0" />
<path d="M-5.903704207868832,1.0706430899192525 Q-5.960164441612799,0.6902462089243161,-5.992140064029452,0.3070137668788041" stroke="#00FF00" fill="none" stroke-width="0.1" />
<use xlink:href="#d0" />
<path d="M-3.7000529150610806,4.7233048203295125 Q-4.026685893903352,4.448123279748412,-4.33291543350183,4.150402853473581" stroke="#00FF00" fill="none" stroke-width="0.1" />
<use xlink:href="#d0" />
<path d="M-5.963572015017933,0.660158179298679 Q-5.9981706772829995,0.14815034992332732,-5.98889120737668,-0.3649412366481629" stroke="#00FF00" fill="none" stroke-width="0.1" />
<use xlink:href="#d0" />
<path d="M-4.570875945739184,-4.449458025063813 Q-4.43132867746484,-5.088083617000845,-3.779589884290069,-5.1386071979393435" stroke="#00FF00" fill="none" stroke-width="0.1" />
<use xlink:href="#d0" />
<path d="M-6.3823781880268475,-3.454393327541101 Q-6.306879240084548,-4.104051240599075,-5.743478671961011,-4.436218811227679" stroke="#00FF00" fill="none" stroke-width="0.1" />
<use xlink:href="#d0" />
<path d="M-5.200213326612262,-5.158925345466191 Q-5.114742493848948,-5.559138436517824,-4.70880978657061,-5.611046226530848" stroke="#00FF00" fill="none" stroke-width="0.1" />
<use xlink:href="#d0" />
<path d="M-6.245497992864492,-3.4447063625425898 Q-6.355249929834882,-4.016238506788299,-5.791933768880997,-4.162421208853298" stroke="#00FF00" fill="none" stroke-width="0.1" />
<use xlink:href="#d0" />
<path d="M-1.9529008749247434,-7.0945051315463346 Q-1.4345696325400696,-7.549939406074063,-0.78531808349775,-7.316358410886561" stroke="#00FF00" fill="none" stroke-width="0.1" />
<use xlink:href="#d0" />
<path d="M-6.661854146860612,0.5918591799356561 Q-7.0816870375818155,-0.14421325086793474,-6.632235514298371,-0.8625833558546472" stroke="#00FF00" fill="none" stroke-width="0.1" />
<use xlink:href="#d0" />
<path d="M-5.131538988769943,-4.987637702073991 Q-5.003197211452198,-5.57992243098251,-4.400473357751776,-5.643142428481917" stroke="#00FF00" fill="none" stroke-width="0.1" />
<use xlink:href="#d0" />
<path d="M-1.9631777657931915,-6.381754248679512 Q-1.3965019605522198,-6.754204583754636,-0.7285887105786039,-6.637018360789817" stroke="#00FF00" fill="none" stroke-width="0.1" />
<use xlink:href="#d0" />
<path d="M-4.7513573004782295,-4.812154424922161 Q-4.462583877904737,-5.529632171623663,-3.700305729289118,-5.660385491810238" stroke="#00FF00" fill="none" stroke-width="0.1" />
<use xlink:href="#d0" />
<path d="M-3.9678718970106517,-5.599131788472465 Q-3.8494039824831083,-6.13949390164727,-3.311401852168387,-6.010732230704139" stroke="#00FF00" fill="none" stroke-width="0.1" />
<use xlink:href="#d0" />
<path d="M-1.8513830640983604,-6.683898109060032 Q-1.218688509323108,-7.1265632845869495,-0.4748509532651272,-6.9192940213947915" stroke="#00FF00" fill="none" stroke-width="0.1" />
<use xlink:href="#d0" />
<path d="M-3.748805571887918,-5.926080304139326 Q-3.302483476272784,-6.4545870078757765,-2.612744850057954,-6.507344722344252" stroke="#00FF00" fill="none" stroke-width="0.1" />
<use xlink:href="#d0" />
<path d="M6.085110949954327,-3.7601672547167797 Q6.715661101604359,-3.1811925330504356,6.764221222162053,-2.326530531575046" stroke="#00FF00" fill="none" stroke-width="0.1" />
<use xlink:href="#d0" />
<path d="M3.7351918376083018,-5.788272029458567 Q4.285862734097901,-5.770770978328891,4.461765403912591,-5.2486570312030105" stroke="#00FF00" fill="none" stroke-width="0.1" />
<use xlink:href="#d0" />
<path d="M2.8097101446177133,-6.7345443763340045 Q3.384848430470131,-6.828803783713113,3.658101166178547,-6.314020502942859" stroke="#00FF00" fill="none" stroke-width="0.1" />
<use xlink:href="#d0" />
<path d="M6.628221277012277,-3.44782288636111 Q7.250113630939273,-3.039214734900555,7.105490457827785,-2.3092867527598253" stroke="#00FF00" fill="none" stroke-width="0.1" />
<use xlink:href="#d0" />
<path d="M-0.3236104895364593,-7.16861970144697 Q0.16255424928339382,-7.563427535261301,0.6313073688937476,-7.1480964724108285" stroke="#00FF00" fill="none" stroke-width="0.1" />
<use xlink:href="#d0" />
<path d="M5.349455357166353,-3.669314873934709 Q5.944694821172188,-3.214466256950434,5.999400023396608,-2.4673353281755332" stroke="#00FF00" fill="none" stroke-width="0.1" />
<use xlink:href="#d0" />
<path d="M2.936146120145427,-6.897579964198571 Q3.8033871825915977,-6.861536467045691,4.293525474827796,-6.145177165742528" stroke="#00FF00" fill="none" stroke-width="0.1" />
<use xlink:href="#d0" />
<path d="M6.790908970873494,-1.4405203016264203 Q7.239410503691783,-0.9661957719899916,6.931001266772205,-0.3908514168965767" stroke="#00FF00" fill="none" stroke-width="0.1" />
<use xlink:href="#d0" />
<path d="M6.515545348976334,-3.3123164150985898 Q6.971187811764408,-2.9815917700690693,6.895622050945269,-2.423668244380011" stroke="#00FF00" fill="none" stroke-width="0.1" />
<use xlink:href="#d0" />
<path d="M5.823907956602615,-4.184650926109071 Q6.226521115001969,-3.9928730286487184,6.232837591477948,-3.5469624777581337" stroke="#00FF00" fill="none" stroke-width="0.1" />
<use xlink:href="#d0" />
<path d="M5.060895077625474,-4.997222593023662 Q5.710174421525463,-4.666746400946547,5.904768048520855,-3.964669837972275" stroke="#00FF00" fill="none" stroke-width="0.1" />
<use xlink:href="#d0" />
<path d="M6.762350059192949,-1.2454729571100873 Q7.213950898761139,-0.6714439036456927,6.876045994373852,-0.023931009479915288" stroke="#00FF00" fill="none" stroke-width="0.1" />
<use xlink:href="#d0" />
<path d="M3.5341612046743798,6.006400874884152 Q3.23358956348987,6.6049840082326075,2.576461922663061,6.475259906096583" stroke="#00FF00" fill="none" stroke-width="0.1" />
<use xlink:href="#d0" />
<path d="M2.996142603436514,6.359361127819862 Q2.438841171378766,6.850481694411995,1.6965646307376223,6.822024106369294" stroke="#00FF00" fill="none" stroke-width="0.1" />
<use xlink:href="#d0" />
<path d="M5.877812353973561,2.9114768075941817 Q5.850525339934543,3.6400430763772778,5.208996054872717,3.9864439504404796" stroke="#00FF00" fill="none" stroke-width="0.1" />
<use xlink:href="#d0" />
<path d="M6.641955129950714,2.1983871787255773 Q6.737383757470989,2.9086263487757167,6.15503619342061,3.3262597002558207" stroke="#00FF00" fill="none" stroke-width="0.1" />
<use xlink:href="#d0" />
<path d="M2.3376989805421253,6.50555942787473 Q1.710879422667875,7.043459951953042,0.9071495495370645,6.853044556108779" stroke="#00FF00" fill="none" stroke-width="0.1" />
<use xlink:href="#d0" />
<path d="M5.870107684150003,2.7200194607995676 Q5.742206260254079,3.4062859191655797,5.201263361033746,3.847535515081468" stroke="#00FF00" fill="none" stroke-width="0.1" />
<use xlink:href="#d0" />
<path d="M4.997232747964264,4.312819858647424 Q4.8804365363766165,4.753570045906911,4.442914740193237,4.881931880090474" stroke="#00FF00" fill="none" stroke-width="0.1" />
<use xlink:href="#d0" />
<path d="M6.153563673648591,3.380554357130487 Q6.138077298341145,3.939399580684964,5.636468693074632,4.186253016618921" stroke="#00FF00" fill="none" stroke-width="0.1" />
<use xlink:href="#d0" />
<path d="M6.0265981196085985,2.0635567583606615 Q6.103700171804796,2.75823076251238,5.53137728628587,3.1594329723870738" stroke="#00FF00" fill="none" stroke-width="0.1" />
<use xlink:href="#d0" />
<path d="M6.361229158156234,2.4354437056805334 Q6.455739675033049,2.8909313793193734,6.053001435454692,3.123747119806504" stroke="#00FF00" fill="none" stroke-width="0.1" />
<use xlink:href="#d0" />
<path d="M6.980814091582137,1.4395880363043752 Q7.1938741584102095,2.1141049499579734,6.649757786465042,2.56610609228262" stroke="#00FF00" fill="none" stroke-width="0.1" />
<use xlink:href="#d0" />
<path d="M6.8628371278961575,-0.20809829435154636 Q7.170986604970269,0.2663679271323513,6.828486561973463,0.7166656243254875" stroke="#00FF00" fill="none" stroke-width="0.1" />
<use xlink:href="#d0" />
<path d="M-4.3550065157559015,4.5259591541728215 Q-4.731318234599015,4.486701136888258,-4.750562806999167,4.108836944230485" stroke="#00FF00" fill="none" stroke-width="0.1" />
<use xlink:href="#d0" />
<path d="M-6.303131127113622,2.168665224857915 Q-6.81197823174684,1.8008348119049995,-6.551386951005228,1.2295933804697745" stroke="#00FF00" fill="none" stroke-width="0.1" />
<use xlink:href="#d0" />
<path d="M-6.541884756720807,1.8004096067610966 Q-7.013948506384003,1.2592425539838432,-6.759614184567712,0.5876623164068747" stroke="#00FF00" fill="none" stroke-width="0.1" />
<use xlink:href="#d0" />
<path d="M-3.7945058916100116,5.006100499336809 Q-4.337427287536217,5.028740888864397,-4.3947436650854135,4.488378915501115" stroke="#00FF00" fill="none" stroke-width="0.1" />
<use xlink:href="#d0" />
<path d="M-4.957301198270376,4.3408016593848355 Q-5.385480584724029,4.2801216768181005,-5.347924897189907,3.8492977944694484" stroke="#00FF00" fill="none" stroke-width="0.1" />
<use xlink:href="#d0" />
<path d="M-6.552399971494135,0.9341366773777449 Q-6.886583734709584,0.5219045237426849,-6.61834258097292,0.0640171800330533" stroke="#00FF00" fill="none" stroke-width="0.1" />
<use xlink:href="#d0" />
<path d="M-2.1501160890038733,6.7926798224546 Q-2.7504575104305116,6.808331982945327,-3.1714651430026786,6.380071097824394" stroke="#00FF00" fill="none" stroke-width="0.1" />
<use xlink:href="#d0" />
<path d="M-2.638108389005314,5.95165794268065 Q-3.16257522126811,6.061407019347581,-3.3725744250889895,5.568445913003875" stroke="#00FF00" fill="none" stroke-width="0.1" />
<use xlink:href="#d0" />
<path d="M-4.8093957699714505,4.688308921053697 Q-5.288644886760422,4.5290907083034595,-5.372254959248586,4.031055055972309" stroke="#00FF00" fill="none" stroke-width="0.1" />
<use xlink:href="#d0" />
<path d="M-0.8364958317257757,7.114766759919109 Q-1.2583939126357724,7.315521317954694,-1.588960301079845,6.98533009142279" stroke="#00FF00" fill="none" stroke-width="0.1" />
<use xlink:href="#d0" />
<path d="M0.24230182112905163,6.798457125837492 Q-0.28004718382886257,7.146434805501579,-0.7735638185698631,6.7586484213171385" stroke="#00FF00" fill="none" stroke-width="0.1" />
<use xlink:href="#d0" />
<path d="M-5.802287864183879,3.123696091735473 Q-6.314391458227016,2.7442754316981373,-6.242409017747867,2.1110071974105376" stroke="#00FF00" fill="none" stroke-width="0.1" />
<use xlink:href="#d0" />
<path d="M-5.809113489973602,-6.514949778138759 Q-5.676585532638352,-7.105096380306887,-5.071742067838596,-7.104069435779737" stroke="#00FF00" fill="none" stroke-width="0.1" />
<use xlink:href="#d0" />
<path d="M-4.742501314282553,-6.045254812101112 Q-4.575959209644878,-6.570012962272396,-4.026008750711481,-6.5442859043900246" stroke="#00FF00" fill="none" stroke-width="0.1" />
<use xlink:href="#d0" />
<path d="M-7.447356195080015,-2.4059800682636823 Q-7.607221828957444,-2.993520797943247,-7.08982397468194,-3.314551311007869" stroke="#00FF00" fill="none" stroke-width="0.1" />
<use xlink:href="#d0" />
<path d="M-8.172002469126088,0.05128878104372591 Q-8.38490810362363,-0.5664777866794305,-8.0908447554687,-1.1499939292746104" stroke="#00FF00" fill="none" stroke-width="0.1" />
<use xlink:href="#d0" />
<path d="M-8.000586768853308,-1.583157530468286 Q-8.155079404082661,-2.3838239000945407,-7.593669732656142,-2.9752237568914146" stroke="#00FF00" fill="none" stroke-width="0.1" />
<use xlink:href="#d0" />
<path d="M-7.911343162739874,-1.5215552905882523 Q-8.042518159290674,-2.4550764995967436,-7.4123513785091015,-3.1561888698970915" stroke="#00FF00" fill="none" stroke-width="0.1" />
<use xlink:href="#d0" />
<path d="M-7.247420818875501,-3.640694312766274 Q-7.233118732895209,-4.360652613805615,-6.6031144756172075,-4.7094206466160164" stroke="#00FF00" fill="none" stroke-width="0.1" />
<use xlink:href="#d0" />
<path d="M-7.520995496834785,-4.084002534108609 Q-7.368473694656119,-4.820024069300258,-6.755219133286742,-5.254661209182888" stroke="#00FF00" fill="none" stroke-width="0.1" />
<use xlink:href="#d0" />
<path d="M-8.4027719143305,-1.4412059468688667 Q-8.607991493551618,-2.222464496930172,-8.05021310878159,-2.806727512380337" stroke="#00FF00" fill="none" stroke-width="0.1" />
<use xlink:href="#d0" />
<path d="M-3.0399924822578166,-7.80570254022745 Q-2.7710639942858157,-8.184280513929867,-2.32745892271389,-8.046954790588599" stroke="#00FF00" fill="none" stroke-width="0.1" />
<use xlink:href="#d0" />
<path d="M-5.552840968438014,-6.393587823747895 Q-5.062725917946071,-7.238778340755142,-4.100689664404001,-7.409207269134207" stroke="#00FF00" fill="none" stroke-width="0.1" />
<use xlink:href="#d0" />
<path d="M7.868678640254167,-1.9263752894784207 Q8.372843588383509,-1.309923406113572,8.081047446524439,-0.5689441681976283" stroke="#00FF00" fill="none" stroke-width="0.1" />
<use xlink:href="#d0" />
<path d="M1.8950131127000274,-8.095124476463802 Q2.568345867275247,-8.262084384555388,3.028357490210573,-7.742813823038361" stroke="#00FF00" fill="none" stroke-width="0.1" />
<use xlink:href="#d0" />
<path d="M6.542360940498013,-5.0963001683805125 Q7.118554395389385,-4.7269310377464295,7.235433130587255,-4.0525633239703485" stroke="#00FF00" fill="none" stroke-width="0.1" />
<use xlink:href="#d0" />
<path d="M-0.2100668251334576,-8.01619247014981 Q0.5931527901424396,-8.32183504428019,1.3449022173740948,-7.905359436180648" stroke="#00FF00" fill="none" stroke-width="0.1" />
<use xlink:href="#d0" />
<path d="M7.736572117184659,-3.9038261625000064 Q8.197744859197803,-3.403471302672218,8.22656241239128,-2.7236148234377056" stroke="#00FF00" fill="none" stroke-width="0.1" />
<use xlink:href="#d0" />
<path d="M7.279217121684011,-3.488235196868002 Q7.853934522513741,-3.099898893313614,7.699374143982328,-2.4237212059687914" stroke="#00FF00" fill="none" stroke-width="0.1" />
<use xlink:href="#d0" />
<path d="M2.7703976516560513,-7.807537704056174 Q3.282332592265806,-7.833408428702038,3.622907272872267,-7.45032153941891" stroke="#00FF00" fill="none" stroke-width="0.1" />
<use xlink:href="#d0" />
<path d="M8.629764456101757,-1.3906234863994602 Q9.091520918190568,-0.4686363951933892,8.7270103634266,0.49594189716917086" stroke="#00FF00" fill="none" stroke-width="0.1" />
<use xlink:href="#d0" />
<path d="M4.714922476749393,-6.567156218810994 Q5.410693024348343,-6.354633261568946,5.7314277227194435,-5.701646343229959" stroke="#00FF00" fill="none" stroke-width="0.1" />
<use xlink:href="#d0" />
<path d="M6.325527193197852,-6.061016305487572 Q6.786462375204945,-5.881757441580559,6.898400427639166,-5.40002633949312" stroke="#00FF00" fill="none" stroke-width="0.1" />
<use xlink:href="#d0" />
<path d="M1.0851902829453959,-8.059197397655383 Q1.5626508524510216,-8.299853786524093,1.9199041539972823,-7.902042057850515" stroke="#00FF00" fill="none" stroke-width="0.1" />
<use xlink:href="#d0" />
<path d="M8.56362421424068,0.2646680916267705 Q8.835525767651063,1.253630348944631,8.299255632843776,2.12792500388654" stroke="#00FF00" fill="none" stroke-width="0.1" />
<use xlink:href="#d0" />
<path d="M5.8872527136159025,5.0801916515258165 Q5.825703202546327,5.600198436373076,5.308529937217458,5.682218020797548" stroke="#00FF00" fill="none" stroke-width="0.1" />
<use xlink:href="#d0" />
<path d="M7.85416937163782,0.05383224965674389 Q8.196960190183512,0.871752826301649,7.689809690786306,1.5992815102306908" stroke="#00FF00" fill="none" stroke-width="0.1" />
<use xlink:href="#d0" />
<path d="M6.194213216875744,5.553378827661271 Q5.801247161554205,6.352792415213945,4.969527306033109,6.671738314279566" stroke="#00FF00" fill="none" stroke-width="0.1" />
<use xlink:href="#d0" />
<path d="M3.667897123800549,7.815149345921502 Q2.8704545009588354,8.413365603452105,1.8736680437516768,8.427300675285377" stroke="#00FF00" fill="none" stroke-width="0.1" />
<use xlink:href="#d0" />
<path d="M6.499422960546447,3.970841959610045 Q6.361757290567258,4.593346423603844,5.81418703251047,4.919889616573239" stroke="#00FF00" fill="none" stroke-width="0.1" />
<use xlink:href="#d0" />
<path d="M8.696258260348733,0.5990238352614955 Q8.795720848011626,1.484659565659647,8.411072253702335,2.288580527072118" stroke="#00FF00" fill="none" stroke-width="0.1" />
<use xlink:href="#d0" />
<path d="M2.2357393540075665,8.031252769904585 Q1.8562505243285505,8.461486770534355,1.3315121634178533,8.229618877677662" stroke="#00FF00" fill="none" stroke-width="0.1" />
<use xlink:href="#d0" />
<path d="M0.902710574274396,8.434303670124981 Q0.2360050725578736,8.836713793239493,-0.4512292922517127,8.470463795247847" stroke="#00FF00" fill="none" stroke-width="0.1" />
<use xlink:href="#d0" />
<path d="M8.366172732427424,0.6574067329806423 Q8.588339426602753,1.5777198629787732,8.053584892584906,2.3589828696513697" stroke="#00FF00" fill="none" stroke-width="0.1" />
<use xlink:href="#d0" />
<path d="M6.658163518468162,4.57945010672298 Q6.582355694153727,5.343503146097226,5.85019796039843,5.574736634386911" stroke="#00FF00" fill="none" stroke-width="0.1" />
<use xlink:href="#d0" />
<path d="M0.321624829745865,8.060432992417038 Q-0.3215325193241608,8.378038083705938,-0.9384558207265561,8.01207359108106" stroke="#00FF00" fill="none" stroke-width="0.1" />
<use xlink:href="#d0" />
<path d="M-6.603014895778679,4.936592316537999 Q-7.183933223715975,4.635596011976316,-7.2188194337164,3.982260086555818" stroke="#00FF00" fill="none" stroke-width="0.1" />
<use xlink:href="#d0" />
<path d="M-2.5036109907571977,7.635994212903917 Q-3.3392283454826246,7.6310732873234395,-3.909881212722522,7.0206341960639005" stroke="#00FF00" fill="none" stroke-width="0.1" />
<use xlink:href="#d0" />
<path d="M-7.354596292228204,3.5319399014126103 Q-7.899302917462114,2.921450683977955,-7.882905924647268,2.103444858323688" stroke="#00FF00" fill="none" stroke-width="0.1" />
<use xlink:href="#d0" />
<path d="M-3.0844257688151804,8.248168873584115 Q-3.9866455056364303,8.288943396664855,-4.518021308111115,7.558667577685029" stroke="#00FF00" fill="none" stroke-width="0.1" />
<use xlink:href="#d0" />
<path d="M-4.586083450085332,6.155503000745141 Q-5.416172942227895,5.810113779341113,-5.818898179307207,5.006276319000409" stroke="#00FF00" fill="none" stroke-width="0.1" />
<use xlink:href="#d0" />
<path d="M-5.248620143863865,5.66310517386978 Q-5.900858808769884,5.532090502323343,-5.989569135405374,4.872764635921123" stroke="#00FF00" fill="none" stroke-width="0.1" />
<use xlink:href="#d0" />
<path d="M-7.676211829861045,3.244213543558181 Q-8.168181614909612,2.713572087168413,-8.091538350500338,1.9940302644361398" stroke="#00FF00" fill="none" stroke-width="0.1" />
<use xlink:href="#d0" />
<path d="M-1.7042539105317462,7.813359973160565 Q-2.5455822407514446,7.952926159639379,-3.149497475169261,7.350764661969042" stroke="#00FF00" fill="none" stroke-width="0.1" />
<use xlink:href="#d0" />
<path d="M-8.030451686711368,3.111399070990497 Q-8.632509298739153,2.4131311350380478,-8.47981732011365,1.5038805434829354" stroke="#00FF00" fill="none" stroke-width="0.1" />
<use xlink:href="#d0" />
<path d="M-5.240766776520235,6.971771516616626 Q-5.975144489588791,6.659457365041725,-6.3649494227230115,5.9631076907903635" stroke="#00FF00" fill="none" stroke-width="0.1" />
<use xlink:href="#d0" />
<path d="M-5.240210934043337,-7.98521893422445 Q-4.490753024270537,-8.717765966616588,-3.4591897886576795,-8.902670277327497" stroke="#00FF00" fill="none" stroke-width="0.1" />
<use xlink:href="#d0" />
<path d="M-9.694103575079842,0.5301927641652995 Q-9.972348048304427,-0.22572875924214866,-9.66018480495211,-0.9682861280227923" stroke="#00FF00" fill="none" stroke-width="0.1" />
<use xlink:href="#d0" />
<path d="M-3.53543187937575,-9.33350517537096 Q-3.114778237103611,-9.757870470571497,-2.5260526822868106,-9.655705840522195" stroke="#00FF00" fill="none" stroke-width="0.1" />
<use xlink:href="#d0" />
<path d="M-9.112503500445802,-0.1288020370588222 Q-9.303287162187203,-0.829752630386165,-8.991467138768357,-1.4858764090045602" stroke="#00FF00" fill="none" stroke-width="0.1" />
<use xlink:href="#d0" />
<path d="M-1.1372372241609008,-9.150534923567808 Q-0.5280986454991952,-9.54463520069293,0.12079929628878,-9.220141290754032" stroke="#00FF00" fill="none" stroke-width="0.1" />
<use xlink:href="#d0" />
<path d="M-9.63923298478167,-1.215798043622524 Q-9.77982384606039,-1.9809810107415253,-9.35254475320064,-2.631137407502402" stroke="#00FF00" fill="none" stroke-width="0.1" />
<use xlink:href="#d0" />
<path d="M-3.8666612461819256,-8.048965677524336 Q-3.3743631787047463,-8.520456125376617,-2.6927347304288305,-8.513876751646828" stroke="#00FF00" fill="none" stroke-width="0.1" />
<use xlink:href="#d0" />
<path d="M-7.460632106002861,-5.706886005740159 Q-7.145413839909109,-6.415721528595456,-6.47449534681609,-6.805181063549329" stroke="#00FF00" fill="none" stroke-width="0.1" />
<use xlink:href="#d0" />
<path d="M-9.514977761880129,-1.614192220437983 Q-9.70635364465312,-2.251101149481869,-9.25416869467466,-2.7387552106932445" stroke="#00FF00" fill="none" stroke-width="0.1" />
<use xlink:href="#d0" />
<path d="M-8.680049876812575,-2.823548421301733 Q-8.684312007726378,-3.544285472375521,-8.176964897031091,-4.05622196435437" stroke="#00FF00" fill="none" stroke-width="0.1" />
<use xlink:href="#d0" />
<path d="M7.926474403973505,-4.683290309369479 Q8.554790400094975,-3.975337540083484,8.690751675271429,-3.038591765513768" stroke="#00FF00" fill="none" stroke-width="0.1" />
<use xlink:href="#d0" />
<path d="M5.8238424969791005,-7.781129300426045 Q6.5512448170597235,-7.6837414314080155,6.76241996250574,-6.980887541729371" stroke="#00FF00" fill="none" stroke-width="0.1" />
<use xlink:href="#d0" />
<path d="M8.525195873708139,-3.3735889718215484 Q8.92914123312314,-2.942014217219225,8.860855733707146,-2.3548466833990394" stroke="#00FF00" fill="none" stroke-width="0.1" />
<use xlink:href="#d0" />
<path d="M7.586755934914496,-6.435580517688588 Q8.41130835052092,-5.921466427359166,8.617216966985518,-4.971834063955688" stroke="#00FF00" fill="none" stroke-width="0.1" />
<use xlink:href="#d0" />
<path d="M2.384272823894586,-8.854215834553443 Q3.2306390788432235,-8.968577303648468,3.8096615808385956,-8.340765767188381" stroke="#00FF00" fill="none" stroke-width="0.1" />
<use xlink:href="#d0" />
<path d="M7.416806308604191,-4.845467303248053 Q7.997416412842424,-4.310816875041169,8.124855858158503,-3.5318955944852544" stroke="#00FF00" fill="none" stroke-width="0.1" />
<use xlink:href="#d0" />
<path d="M1.4061900210199916,-8.779025222768496 Q2.130344391904288,-8.862968855602405,2.7372428060676186,-8.459087188216747" stroke="#00FF00" fill="none" stroke-width="0.1" />
<use xlink:href="#d0" />
<path d="M9.713490230284537,-2.3160921374008714 Q10.11483295540829,-1.7233451100969277,9.93241805348138,-1.0311386199926984" stroke="#00FF00" fill="none" stroke-width="0.1" />
<use xlink:href="#d0" />
<path d="M1.6666812200613716,-8.832271674379866 Q2.21755747380919,-9.077622635289051,2.593265386736694,-8.60591795529748" stroke="#00FF00" fill="none" stroke-width="0.1" />
<use xlink:href="#d0" />
<path d="M8.834001421663322,-1.307153373235872 Q9.269021833666349,-0.5182294069240395,8.924654920226997,0.3142699698977881" stroke="#00FF00" fill="none" stroke-width="0.1" />
<use xlink:href="#d0" />
<path d="M7.147056604172589,5.920493685091546 Q6.756247307242518,6.839159439435467,5.832883329740668,7.218735044319697" stroke="#00FF00" fill="none" stroke-width="0.1" />
<use xlink:href="#d0" />
<path d="M2.4095282596008305,9.111787151568521 Q1.7120453411648846,9.5455007208317,0.907308347843299,9.381219701682616" stroke="#00FF00" fill="none" stroke-width="0.1" />
<use xlink:href="#d0" />
<path d="M7.944125184936551,4.569203154511305 Q7.644673413451624,5.453361338600614,6.906130977173519,6.024292269409212" stroke="#00FF00" fill="none" stroke-width="0.1" />
<use xlink:href="#d0" />
<path d="M4.1093879653686765,8.145054132284393 Q3.5219784772331586,8.728297250981232,2.6942872187922027,8.71606520457557" stroke="#00FF00" fill="none" stroke-width="0.1" />
<use xlink:href="#d0" />
<path d="M8.053803221527067,5.651568035482114 Q7.878691201953952,6.391975614161405,7.190277523105839,6.715941983927638" stroke="#00FF00" fill="none" stroke-width="0.1" />
<use xlink:href="#d0" />
<path d="M9.83232033112708,0.1907151992092129 Q9.996483987967748,1.2532392732087074,9.575110251833474,2.2423556913072176" stroke="#00FF00" fill="none" stroke-width="0.1" />
<use xlink:href="#d0" />
<path d="M9.550691302571616,2.7356719024543317 Q9.548980062114161,3.5204988749481783,9.040831184761887,4.118613432155559" stroke="#00FF00" fill="none" stroke-width="0.1" />
<use xlink:href="#d0" />
<path d="M7.105796493286321,5.701677556533058 Q6.91192614195754,6.473573240445075,6.1543685909076356,6.71753064823098" stroke="#00FF00" fill="none" stroke-width="0.1" />
<use xlink:href="#d0" />
<path d="M5.156954579243721,8.032370593112951 Q4.75101476979126,8.528673078149048,4.115358755211871,8.612605888660498" stroke="#00FF00" fill="none" stroke-width="0.1" />
<use xlink:href="#d0" />
<path d="M5.305038242122373,7.3518315923294955 Q4.8655539412890425,7.9393014526996035,4.142600628462769,8.064224609062842" stroke="#00FF00" fill="none" stroke-width="0.1" />
<use xlink:href="#d0" />
<path d="M-5.364110435163202,7.910731320000352 Q-6.248884611238786,7.655309058273041,-6.6763120237274824,6.8396058760496645" stroke="#00FF00" fill="none" stroke-width="0.1" />
<use xlink:href="#d0" />
<path d="M-8.969298183556134,3.985091562934841 Q-9.573246819516603,3.4931526920954927,-9.428045938550202,2.727858950001785" stroke="#00FF00" fill="none" stroke-width="0.1" />
<use xlink:href="#d0" />
<path d="M-1.8626223874711114,9.133595390259682 Q-2.6920852349052242,9.13638013915034,-3.387513089445894,8.684277861751905" stroke="#00FF00" fill="none" stroke-width="0.1" />
<use xlink:href="#d0" />
<path d="M-5.7719638966303775,7.7626851397234224 Q-6.477101828844384,7.7011151637996,-6.658610048957695,7.016962307039064" stroke="#00FF00" fill="none" stroke-width="0.1" />
<use xlink:href="#d0" />
<path d="M-1.9905542840244805,8.704842475680763 Q-2.859764201051176,8.732407123013152,-3.544284207615703,8.19601356390472" stroke="#00FF00" fill="none" stroke-width="0.1" />
<use xlink:href="#d0" />
<path d="M-7.617029811275459,5.3485913890654 Q-8.143251237622952,4.984438004630057,-8.228163082916355,4.350161522745564" stroke="#00FF00" fill="none" stroke-width="0.1" />
<use xlink:href="#d0" />
<path d="M-8.645499985663673,3.004224692247272 Q-9.235014290539409,2.1993644255268037,-9.071569102407372,1.2151831235935968" stroke="#00FF00" fill="none" stroke-width="0.1" />
<use xlink:href="#d0" />
<path d="M-6.803857854619057,5.737024969053371 Q-7.437807375814455,5.295942304169398,-7.6472204428226815,4.552576929638656" stroke="#00FF00" fill="none" stroke-width="0.1" />
<use xlink:href="#d0" />
<path d="M-5.003552072820906,8.664207064558761 Q-6.098657535823463,8.407727176021993,-6.682475979314048,7.446377118362397" stroke="#00FF00" fill="none" stroke-width="0.1" />
<use xlink:href="#d0" />
<path d="M-6.762911945427854,6.161858013971438 Q-7.670519879421794,5.655331868483802,-7.886029884308775,4.6385347718588585" stroke="#00FF00" fill="none" stroke-width="0.1" />
<use xlink:href="#d0" />
<path d="M-5.357712040944489,-9.450768820365184 Q-4.745169320501543,-10.018245594116939,-3.918038958171944,-10.132673898429536" stroke="#00FF00" fill="none" stroke-width="0.1" />
<use xlink:href="#d0" />
<path d="M-5.562516984750224,-9.207835180569647 Q-5.2002024964302,-9.847624604543054,-4.467527663676604,-9.786062563281265" stroke="#00FF00" fill="none" stroke-width="0.1" />
<use xlink:href="#d0" />
<path d="M-3.7947019982891206,-10.192835893975797 Q-2.815116457372534,-10.830783401536804,-1.6488696083240375,-10.750576534869474" stroke="#00FF00" fill="none" stroke-width="0.1" />
<use xlink:href="#d0" />
<path d="M-7.845275098213998,-6.872840552689058 Q-7.475925154123439,-7.602693767056586,-6.739965163888437,-7.959720360597739" stroke="#00FF00" fill="none" stroke-width="0.1" />
<use xlink:href="#d0" />
<path d="M-10.37602505328755,0.19685179445601736 Q-10.716649666188557,-0.9245289149436461,-10.189003449569524,-1.9710036123994825" stroke="#00FF00" fill="none" stroke-width="0.1" />
<use xlink:href="#d0" />
<path d="M-8.349891224187822,-6.257345257784646 Q-8.20110838611315,-6.833710528481172,-7.661041104776681,-7.084031502034057" stroke="#00FF00" fill="none" stroke-width="0.1" />
<use xlink:href="#d0" />
<path d="M-5.788679663861249,-8.597528223906869 Q-5.284176813202841,-9.148929893099298,-4.554451481353069,-9.310385358065306" stroke="#00FF00" fill="none" stroke-width="0.1" />
<use xlink:href="#d0" />
<path d="M-10.278958875265937,-1.5815121524071363 Q-10.396555558269455,-2.4339967089112045,-9.912761201323951,-3.145686191142783" stroke="#00FF00" fill="none" stroke-width="0.1" />
<use xlink:href="#d0" />
<path d="M-8.084606765314323,-7.966258207441707 Q-7.886933691715599,-8.701662074474411,-7.135698900236518,-8.826320727379095" stroke="#00FF00" fill="none" stroke-width="0.1" />
<use xlink:href="#d0" />
<path d="M-10.900878848130468,-0.5051850268491278 Q-11.176678642015457,-1.1272099502213402,-10.782229182366523,-1.6816377231420991" stroke="#00FF00" fill="none" stroke-width="0.1" />
<use xlink:href="#d0" />
<path d="M-9.812816586576332,-2.72097247680622 Q-9.780553436165924,-3.716570497962127,-9.143500036129884,-4.482350685814016" stroke="#00FF00" fill="none" stroke-width="0.1" />
<use xlink:href="#d0" />
<path d="M-8.68797943893203,-7.008443937107573 Q-8.325968452973441,-7.813582283170415,-7.545414004695936,-8.225934636782865" stroke="#00FF00" fill="none" stroke-width="0.1" />
<use xlink:href="#d0" />
<path d="M-1.6227511452052734,-10.159301586735157 Q-0.673507432843586,-10.615009570803258,0.32572033271400985,-10.282929362509556" stroke="#00FF00" fill="none" stroke-width="0.1" />
<use xlink:href="#d0" />
<path d="M-6.702539364873721,-8.047920247863635 Q-6.5292520384595125,-8.64839571574364,-5.904276435817643,-8.65058229387501" stroke="#00FF00" fill="none" stroke-width="0.1" />
<use xlink:href="#d0" />
<path d="M-10.22503254840114,-3.900454780260839 Q-10.223318308149082,-4.535112868008758,-9.753979433329613,-4.962330432660169" stroke="#00FF00" fill="none" stroke-width="0.1" />
<use xlink:href="#d0" />
<path d="M-10.548651693814655,-2.2976870527606876 Q-10.624016421978357,-3.153822015675998,-10.093724268918912,-3.830163016489019" stroke="#00FF00" fill="none" stroke-width="0.1" />
<use xlink:href="#d0" />
<path d="M-4.423987548805099,-9.225286523404987 Q-3.768068052331173,-9.784463878019755,-2.9065147843163666,-9.809676298403053" stroke="#00FF00" fill="none" stroke-width="0.1" />
<use xlink:href="#d0" />
<path d="M-5.823741638757633,-8.710317086951475 Q-5.3255868026486,-9.387843856164729,-4.488445248765256,-9.46781124014811" stroke="#00FF00" fill="none" stroke-width="0.1" />
<use xlink:href="#d0" />
<path d="M-5.128495700868632,-9.30352146025362 Q-4.722367001942938,-9.90145043772472,-4.002107661201454,-9.840737471520125" stroke="#00FF00" fill="none" stroke-width="0.1" />
<use xlink:href="#d0" />
<path d="M-10.167974293899203,-2.19410097166064 Q-10.094838275635254,-3.2556501783635055,-9.53398869861013,-4.1599086300075685" stroke="#00FF00" fill="none" stroke-width="0.1" />
<use xlink:href="#d0" />
<path d="M-10.033273470648735,-5.11501296399218 Q-10.01770864672274,-5.7210560197171025,-9.503643312774813,-6.042408289927319" stroke="#00FF00" fill="none" stroke-width="0.1" />
<use xlink:href="#d0" />
<path d="M-8.502181896699634,-6.101639085522933 Q-8.114076510672495,-6.957351456994954,-7.327611185797382,-7.4714932138311685" stroke="#00FF00" fill="none" stroke-width="0.1" />
<use xlink:href="#d0" />
<path d="M-8.915733223234323,-5.078001158508026 Q-8.79650262256744,-5.833494375263442,-8.146937904120332,-6.237290875059506" stroke="#00FF00" fill="none" stroke-width="0.1" />
<use xlink:href="#d0" />
<path d="M-8.931639133594846,-5.652700245664671 Q-8.910867924388885,-6.3020763819957555,-8.305513671683132,-6.538015014481452" stroke="#00FF00" fill="none" stroke-width="0.1" />
<use xlink:href="#d0" />
<path d="M-11.289766772913534,-0.9076928698776391 Q-11.435101619850595,-1.9549527122445385,-10.950109193819785,-2.894451377417247" stroke="#00FF00" fill="none" stroke-width="0.1" />
<use xlink:href="#d0" />
<path d="M-8.958495613063928,-5.4492475483281355 Q-8.72598126229272,-6.202222781614478,-8.091284983093821,-6.669336534814108" stroke="#00FF00" fill="none" stroke-width="0.1" />
<use xlink:href="#d0" />
<path d="M-8.95747740240186,-5.056390394852076 Q-8.908919736454079,-5.629251070392875,-8.412389621124074,-5.919052804469332" stroke="#00FF00" fill="none" stroke-width="0.1" />
<use xlink:href="#d0" />
<path d="M-4.352388900161853,-9.487490401356846 Q-3.654129604462286,-10.0834792937769,-2.7361628544774836,-10.073190958572562" stroke="#00FF00" fill="none" stroke-width="0.1" />
<use xlink:href="#d0" />
<path d="M-3.563476223186471,-9.746007513678414 Q-2.5421814689335225,-10.314043092379025,-1.3738905883380235,-10.285691513027581" stroke="#00FF00" fill="none" stroke-width="0.1" />
<use xlink:href="#d0" />
<path d="M10.11255029618118,-0.9184015687450431 Q10.434328355523839,-0.3023112049947988,10.148759781614457,0.33137566197941765" stroke="#00FF00" fill="none" stroke-width="0.1" />
<use xlink:href="#d0" />
<path d="M3.182046358905597,-10.14064881322502 Q3.9285656803857343,-10.235209568509465,4.42009939679591,-9.665448706905998" stroke="#00FF00" fill="none" stroke-width="0.1" />
<use xlink:href="#d0" />
<path d="M3.4824562691768866,-9.607920289288904 Q4.107135086035091,-9.707316791052705,4.470783776282958,-9.189762041412381" stroke="#00FF00" fill="none" stroke-width="0.1" />
<use xlink:href="#d0" />
<path d="M3.2757793431270557,-10.17117224201735 Q3.840753448148473,-10.324607882632305,4.168089985014989,-9.83923274236665" stroke="#00FF00" fill="none" stroke-width="0.1" />
<use xlink:href="#d0" />
<path d="M8.41528857082841,-6.006061300801802 Q9.019828552668965,-5.669176428855393,9.061231636406985,-4.978346644286786" stroke="#00FF00" fill="none" stroke-width="0.1" />
<use xlink:href="#d0" />
<path d="M3.181059341323676,-9.961233187612788 Q4.298834958814239,-9.937432318294357,5.08155489359317,-9.139097603944295" stroke="#00FF00" fill="none" stroke-width="0.1" />
<use xlink:href="#d0" />
<path d="M3.9895582084689774,-10.481534171716566 Q4.6463750137597915,-10.518843065669566,5.06114762170605,-10.008192546255467" stroke="#00FF00" fill="none" stroke-width="0.1" />
<use xlink:href="#d0" />
<path d="M1.9309029123851449,-10.638664242540672 Q2.5869090289929777,-10.856254772077616,3.074294186471541,-10.366208476468056" stroke="#00FF00" fill="none" stroke-width="0.1" />
<use xlink:href="#d0" />
<path d="M4.870860190213091,-9.556384791823355 Q5.52505002389268,-9.513387051666818,5.886589002187186,-8.966484216309327" stroke="#00FF00" fill="none" stroke-width="0.1" />
<use xlink:href="#d0" />
<path d="M1.7968356942275203,-10.917784013087886 Q2.7260325369472387,-11.129852438952673,3.4520484094586847,-10.512373093038567" stroke="#00FF00" fill="none" stroke-width="0.1" />
<use xlink:href="#d0" />
<path d="M3.0392023458165096,-9.74178733636548 Q4.194537598925339,-9.698813802178648,5.017100204400372,-8.886387170543108" stroke="#00FF00" fill="none" stroke-width="0.1" />
<use xlink:href="#d0" />
<path d="M10.085367893669847,-4.921897282037527 Q10.520725008814216,-4.548324525196287,10.49462159468866,-3.975252946655021" stroke="#00FF00" fill="none" stroke-width="0.1" />
<use xlink:href="#d0" />
<path d="M9.238485279495771,-6.079194070901005 Q9.779016065268573,-5.797969292169363,9.76640621419033,-5.188787957756849" stroke="#00FF00" fill="none" stroke-width="0.1" />
<use xlink:href="#d0" />
<path d="M2.8365888686965834,-10.83836595750067 Q3.7338645782439452,-10.898543675954297,4.405726753028454,-10.300775932733035" stroke="#00FF00" fill="none" stroke-width="0.1" />
<use xlink:href="#d0" />
<path d="M10.291551716078388,-3.732934212475976 Q10.8745055910493,-3.0213498588260816,10.742177346851,-2.1110330192090534" stroke="#00FF00" fill="none" stroke-width="0.1" />
<use xlink:href="#d0" />
<path d="M1.5335862896584425,-11.026771780948039 Q2.599296247573867,-11.175803805614052,3.489857967319223,-10.571777248167825" stroke="#00FF00" fill="none" stroke-width="0.1" />
<use xlink:href="#d0" />
<path d="M10.343730784160542,-3.760818320471658 Q10.848911712536957,-3.4049488603993736,10.637679921171635,-2.824232084919283" stroke="#00FF00" fill="none" stroke-width="0.1" />
<use xlink:href="#d0" />
<path d="M4.514573553411353,-9.576613308534098 Q5.275972247627963,-9.60561578767914,5.659963526420709,-8.947497399269857" stroke="#00FF00" fill="none" stroke-width="0.1" />
<use xlink:href="#d0" />
<path d="M7.04819427361644,-7.921500660547224 Q8.071742027246028,-7.405591104046596,8.497798761083493,-6.341500725366004" stroke="#00FF00" fill="none" stroke-width="0.1" />
<use xlink:href="#d0" />
<path d="M3.8667588523375804,-9.621503919487273 Q4.587028935559706,-9.59369839737001,5.060898731640145,-9.050550575678985" stroke="#00FF00" fill="none" stroke-width="0.1" />
<use xlink:href="#d0" />
<path d="M6.866484371590323,-7.749250027849761 Q7.649478686287211,-7.325861468811588,8.038646761035716,-6.52530779892517" stroke="#00FF00" fill="none" stroke-width="0.1" />
<use xlink:href="#d0" />
<path d="M10.583363692002507,-3.3117344776122044 Q11.140569018618061,-2.3901412769271766,11.010445249438597,-1.321085802102718" stroke="#00FF00" fill="none" stroke-width="0.1" />
<use xlink:href="#d0" />
<path d="M6.549470079795491,-7.811655485757062 Q7.493338684379916,-7.329314908989174,7.954674479641832,-6.375003817820795" stroke="#00FF00" fill="none" stroke-width="0.1" />
<use xlink:href="#d0" />
<path d="M8.842756786899924,-6.182234293570145 Q9.450949141672286,-5.745355398167427,9.558822564970269,-5.004326090921201" stroke="#00FF00" fill="none" stroke-width="0.1" />
<use xlink:href="#d0" />
<path d="M0.2466885585193065,-10.381584054726178 Q1.325548806666925,-10.664398612439618,2.3023440989199204,-10.126072998967457" stroke="#00FF00" fill="none" stroke-width="0.1" />
<use xlink:href="#d0" />
<path d="M3.206686144244546,-10.162164243587743 Q3.9751099891040287,-10.250339362122679,4.483172656304906,-9.66713923945979" stroke="#00FF00" fill="none" stroke-width="0.1" />
<use xlink:href="#d0" />
<path d="M2.0440327215225023,-9.941066821956136 Q2.895553324248939,-10.115138574511711,3.5259774591006265,-9.516846236183815" stroke="#00FF00" fill="none" stroke-width="0.1" />
<use xlink:href="#d0" />
<path d="M-0.39665846397391297,-10.679862662676213 Q0.42213370300151903,-10.973839627884098,1.2159226979610303,-10.617831060214264" stroke="#00FF00" fill="none" stroke-width="0.1" />
<use xlink:href="#d0" />
<path d="M10.360873363197557,-3.4020022841336686 Q10.859364071565258,-2.8148069189641514,10.70888458258707,-2.059394907805765" stroke="#00FF00" fill="none" stroke-width="0.1" />
<use xlink:href="#d0" />
<path d="M10.933553292848611,1.044967930949123 Q11.166150486823092,1.8176171304674038,10.700512042559724,2.4766080859326767" stroke="#00FF00" fill="none" stroke-width="0.1" />
<use xlink:href="#d0" />
<path d="M7.80460626949136,7.012314433923947 Q7.284546344404214,8.069531573806222,6.179803507317058,8.479060169202349" stroke="#00FF00" fill="none" stroke-width="0.1" />
<use xlink:href="#d0" />
<path d="M9.733962687746555,2.849049145502338 Q9.860017886011786,3.523679252272461,9.334936021515173,3.9656121991627256" stroke="#00FF00" fill="none" stroke-width="0.1" />
<use xlink:href="#d0" />
<path d="M2.5085169252488257,10.413803805682655 Q1.9110147225213765,10.868604989629274,1.1942109646089905,10.644896760397351" stroke="#00FF00" fill="none" stroke-width="0.1" />
<use xlink:href="#d0" />
<path d="M2.4536423648767975,10.895729010417845 Q2.0279705527510385,11.363206210822648,1.4668687583442266,11.0718366845331" stroke="#00FF00" fill="none" stroke-width="0.1" />
<use xlink:href="#d0" />
<path d="M11.168363921681866,-0.46652273071561406 Q11.47439754264132,0.16022030020358474,11.150983862148871,0.7781741781214011" stroke="#00FF00" fill="none" stroke-width="0.1" />
<use xlink:href="#d0" />
<path d="M10.063275629472313,1.8798034510366306 Q10.212054119169165,2.5119470211905384,9.787007579135128,3.00294190007269" stroke="#00FF00" fill="none" stroke-width="0.1" />
<use xlink:href="#d0" />
<path d="M10.388508240546606,-0.1692552042323925 Q10.696774417178316,0.6261983048016458,10.297798925264201,1.3802492828804402" stroke="#00FF00" fill="none" stroke-width="0.1" />
<use xlink:href="#d0" />
<path d="M10.11749264372525,5.17849223766714 Q9.802703830130405,6.345107670907635,8.867269553640499,7.109990851927562" stroke="#00FF00" fill="none" stroke-width="0.1" />
<use xlink:href="#d0" />
<path d="M8.923034959844726,5.7244501369349825 Q8.828647396198214,6.291010345149513,8.323947215625413,6.565194971693381" stroke="#00FF00" fill="none" stroke-width="0.1" />
<use xlink:href="#d0" />
<path d="M8.872652208453422,5.063423067694277 Q8.751325505754096,5.7130948911420925,8.205374051873694,6.085560536505227" stroke="#00FF00" fill="none" stroke-width="0.1" />
<use xlink:href="#d0" />
<path d="M10.603319619478185,2.6884708844599507 Q10.534147617250841,3.72816901183293,9.933912677126031,4.579917201504259" stroke="#00FF00" fill="none" stroke-width="0.1" />
<use xlink:href="#d0" />
<path d="M9.952092964600164,3.9067059098560377 Q9.899125414075513,4.815317924464238,9.216998235235693,5.417882332960942" stroke="#00FF00" fill="none" stroke-width="0.1" />
<use xlink:href="#d0" />
<path d="M8.287589655950413,7.7102082322284105 Q7.995021121316117,8.522437327433181,7.165781717432217,8.762592405667013" stroke="#00FF00" fill="none" stroke-width="0.1" />
<use xlink:href="#d0" />
<path d="M9.026567092301804,5.531494420075254 Q8.660873797599177,6.460562306800961,7.874549539882721,7.075861328141071" stroke="#00FF00" fill="none" stroke-width="0.1" />
<use xlink:href="#d0" />
<path d="M11.19321345864178,2.0167140796531 Q11.346637820109274,2.838045331898398,10.824604559540946,3.490429678328428" stroke="#00FF00" fill="none" stroke-width="0.1" />
<use xlink:href="#d0" />
<path d="M1.2431486287576619,11.088074153669732 Q0.37158551014680896,11.429023584534182,-0.520283755956612,11.1454076535472" stroke="#00FF00" fill="none" stroke-width="0.1" />
<use xlink:href="#d0" />
<path d="M7.662684348635,6.741535452444026 Q7.092929031798042,7.671630732891206,6.1210921508698135,8.166839202772113" stroke="#00FF00" fill="none" stroke-width="0.1" />
<use xlink:href="#d0" />
<path d="M5.723552572002955,9.575251340989096 Q4.9304169961186135,10.353630902131588,3.8262073759234614,10.478770414701529" stroke="#00FF00" fill="none" stroke-width="0.1" />
<use xlink:href="#d0" />
<path d="M8.8762096585,5.976358150918536 Q8.625910899797898,6.839244239270698,7.842826613240505,7.279699538054134" stroke="#00FF00" fill="none" stroke-width="0.1" />
<use xlink:href="#d0" />
<path d="M8.190806552214411,6.128870346528516 Q7.6483812768667345,7.121015008041058,6.697450397414376,7.732821081243837" stroke="#00FF00" fill="none" stroke-width="0.1" />
<use xlink:href="#d0" />
<path d="M1.1154071551357991,10.499493991495262 Q0.25003851516476727,10.911873656944705,-0.6333107555225521,10.539564729442708" stroke="#00FF00" fill="none" stroke-width="0.1" />
<use xlink:href="#d0" />
<path d="M2.2684727555486144,10.70128064221641 Q1.8308256107507972,11.120759516364839,1.2818019353988392,10.863717587665365" stroke="#00FF00" fill="none" stroke-width="0.1" />
<use xlink:href="#d0" />
<path d="M2.1035539358162048,11.125194964475625 Q0.9647780676068779,11.565874845755872,-0.23127101937639813,11.3199565314571" stroke="#00FF00" fill="none" stroke-width="0.1" />
<use xlink:href="#d0" />
<path d="M5.028123043796853,9.283115117712478 Q4.31620043564548,9.874359850310576,3.398722068219038,9.995345713644117" stroke="#00FF00" fill="none" stroke-width="0.1" />
<use xlink:href="#d0" />
<path d="M5.388742495497633,9.95702127777866 Q4.728022237204476,10.649446760836513,3.771285541094465,10.675121721856424" stroke="#00FF00" fill="none" stroke-width="0.1" />
<use xlink:href="#d0" />
<path d="M4.162343431057852,10.221203609294486 Q3.430517097021212,10.701553341655426,2.5558140145919213,10.7361967559998" stroke="#00FF00" fill="none" stroke-width="0.1" />
<use xlink:href="#d0" />
<path d="M8.588236217629232,6.954258044262927 Q8.305520724034242,7.627391998163302,7.658843177521078,7.966280653989848" stroke="#00FF00" fill="none" stroke-width="0.1" />
<use xlink:href="#d0" />
<path d="M3.6916652446288283,10.549754462558099 Q3.174662384248619,10.948431766138256,2.524582555009078,10.888167633794438" stroke="#00FF00" fill="none" stroke-width="0.1" />
<use xlink:href="#d0" />
<path d="M-4.257832909534211,9.97242945745564 Q-5.252671976563545,9.72579977431079,-6.004451191291951,9.029122673927638" stroke="#00FF00" fill="none" stroke-width="0.1" />
<use xlink:href="#d0" />
<path d="M-3.7974737783940644,9.387176458875052 Q-4.531879014396279,9.482662742190652,-4.918885722913902,8.851240151106637" stroke="#00FF00" fill="none" stroke-width="0.1" />
<use xlink:href="#d0" />
<path d="M-10.84228851769634,3.32190126422331 Q-11.357269314618138,2.796351172776352,-11.14516499577614,2.0917804682003704" stroke="#00FF00" fill="none" stroke-width="0.1" />
<use xlink:href="#d0" />
<path d="M-6.251447823860108,9.209640417605753 Q-7.170476097345409,8.972851757428574,-7.604123488420668,8.12867655211424" stroke="#00FF00" fill="none" stroke-width="0.1" />
<use xlink:href="#d0" />
<path d="M-8.573997540328545,6.328158613535749 Q-9.316618817892788,5.694715230047771,-9.541725432334834,4.7449447871983965" stroke="#00FF00" fill="none" stroke-width="0.1" />
<use xlink:href="#d0" />
<path d="M-0.04507107642091317,10.260281308887926 Q-1.2039170175485647,10.396363402836084,-2.3009938473161764,9.999041516768383" stroke="#00FF00" fill="none" stroke-width="0.1" />
<use xlink:href="#d0" />
<path d="M-5.695460257348696,8.553722647279717 Q-6.740925481068975,8.210537371445056,-7.281098435029179,7.251899354585668" stroke="#00FF00" fill="none" stroke-width="0.1" />
<use xlink:href="#d0" />
<path d="M-11.09130137792838,2.0042028843229054 Q-11.490885715646835,1.3467075652128184,-11.25415550684094,0.6146375235909196" stroke="#00FF00" fill="none" stroke-width="0.1" />
<use xlink:href="#d0" />
<path d="M-10.053934082968954,1.2730751280980894 Q-10.492034141978397,0.5086425825186313,-10.12993246519614,-0.2945828865226861" stroke="#00FF00" fill="none" stroke-width="0.1" />
<use xlink:href="#d0" />
<path d="M-1.7293848363199011,10.298072845099806 Q-2.6704930975784267,10.376540726710154,-3.456799826646007,9.853507557899135" stroke="#00FF00" fill="none" stroke-width="0.1" />
<use xlink:href="#d0" />
<path d="M-2.0222216660063492,10.240979857794823 Q-3.1068641268015305,10.279491838099998,-3.9886011954974614,9.646663123458856" stroke="#00FF00" fill="none" stroke-width="0.1" />
<use xlink:href="#d0" />
<path d="M-6.351488655982204,9.044185831862492 Q-7.342099823904691,8.739264142840511,-7.813293655350007,7.816082635412717" stroke="#00FF00" fill="none" stroke-width="0.1" />
<use xlink:href="#d0" />
<path d="M-0.3962124382782293,10.910843895593626 Q-1.1769156211812581,11.186293703536833,-1.8831985547913652,10.754397333811447" stroke="#00FF00" fill="none" stroke-width="0.1" />
<use xlink:href="#d0" />
<path d="M-10.109271650952097,3.5367757206647448 Q-10.656089750936697,2.4680697550905606,-10.634795854600082,1.2677826872174478" stroke="#00FF00" fill="none" stroke-width="0.1" />
<use xlink:href="#d0" />
<path d="M0.43852917010390285,10.338721357560747 Q-0.6412879308207179,10.55467282545161,-1.687016482384174,10.209576021093083" stroke="#00FF00" fill="none" stroke-width="0.1" />
<use xlink:href="#d0" />
<path d="M-8.782172638557457,5.101646166646832 Q-9.366148389868941,4.557644445521584,-9.43385104419837,3.762420010972576" stroke="#00FF00" fill="none" stroke-width="0.1" />
<use xlink:href="#d0" />
<path d="M-8.951898117006856,6.82413495988544 Q-9.736199227953504,6.368719887318765,-9.839210247636597,5.467653934806454" stroke="#00FF00" fill="none" stroke-width="0.1" />
<use xlink:href="#d0" />
<path d="M-10.516171560096236,2.9762968394798888 Q-10.989821612178371,2.4809041664133944,-10.774926052395951,1.8300753327319288" stroke="#00FF00" fill="none" stroke-width="0.1" />
<use xlink:href="#d0" />
<path d="M-4.9457635699103095,10.018636142945697 Q-5.63179840829164,10.000235802012865,-6.003188796270846,9.423129614439036" stroke="#00FF00" fill="none" stroke-width="0.1" />
<use xlink:href="#d0" />
<path d="M-9.608105872435477,3.8701804965058666 Q-10.117666649310639,3.2314372777537512,-10.07268407713719,2.415580885346307" stroke="#00FF00" fill="none" stroke-width="0.1" />
<use xlink:href="#d0" />
<path d="M-4.256050774541212,9.33681305416828 Q-4.825948918997583,9.448010868027106,-5.06990885965963,8.921102530444589" stroke="#00FF00" fill="none" stroke-width="0.1" />
<use xlink:href="#d0" />
<path d="M-0.005117829612057256,10.798553514263261 Q-0.6332303136396604,11.051757158770128,-1.22831162944338,10.72846842440996" stroke="#00FF00" fill="none" stroke-width="0.1" />
<use xlink:href="#d0" />
<path d="M-7.53276383053156,8.50868875995721 Q-8.389948106839219,7.995709852574653,-8.861109676770143,7.1148471969984834" stroke="#00FF00" fill="none" stroke-width="0.1" />
<use xlink:href="#d0" />
<path d="M-1.7722253850547163,10.319842419755238 Q-2.3124788924555673,10.492059350634404,-2.7302785144918484,10.108684860916188" stroke="#00FF00" fill="none" stroke-width="0.1" />
<use xlink:href="#d0" />
<path d="M-8.07745135139875,6.128796073134561 Q-8.711714451564518,5.839575476493764,-8.738251281953488,5.14298805887408" stroke="#00FF00" fill="none" stroke-width="0.1" />
<use xlink:href="#d0" />
<path d="M-0.8574868606682224,10.113141099796126 Q-1.4906917735761165,10.274102703892819,-2.052040720367848,9.939820697706597" stroke="#00FF00" fill="none" stroke-width="0.1" />
<use xlink:href="#d0" />
<path d="M-5.508565222972354,8.5822269086314 Q-6.154738948721921,8.559632456748485,-6.381881610434856,7.954275368465107" stroke="#00FF00" fill="none" stroke-width="0.1" />
<use xlink:href="#d0" />
<path d="M-6.55856126361788,7.885374869998438 Q-7.222484830752558,7.74897104066752,-7.405189107514725,7.096269229036981" stroke="#00FF00" fill="none" stroke-width="0.1" />
<use xlink:href="#d0" />
<path d="M-0.7562070179397715,10.935506221734407 Q-1.454580478367303,11.116948021785024,-2.0827623174856513,10.761935072673273" stroke="#00FF00" fill="none" stroke-width="0.1" />
<use xlink:href="#d0" />
</svg>