<?xml version="1.0" encoding="UTF-8"?>
<svg xmlns="http://www.w3.org/2000/svg" xmlns:xlink="http://www.w3.org/1999/xlink"
     width="46.0mm" height="46.0mm" viewBox="-23.0 -23.0 46.0 46.0" displayInline="False">
<defs>
</defs>
<circle cx="0" cy="0" r="13.0" fill="none" stroke="red" stroke-width="0.1" />
<circle cx="0" cy="0" r="5.0" fill="none" stroke="red" stroke-width="0.1" />
<path d="M-2.082102528961541,-5.895198945041803 Q-1.6182934595217455,-6.384458372314174,-0.9774295600257583,-6.17520469279504" stroke="#00FF00" fill="none" stroke-width="0.1" />
<circle cx="2.891613617618831" cy="9.758260262577146" r="0.1" stroke-width="0.1" stroke="#00FF00" fill-opacity="1.0" id="d0" />
<path d="M-5.820699213652479,-1.4558367573960374 Q-5.631383260277726,-2.07063337553122,-5.37733527403451,-2.6616283269127186" stroke="#00FF00" fill="none" stroke-width="0.1" />
<use xlink:href="#d0" />
<path d="M-5.441871662093161,-2.527060112721385 Q-5.379098853397803,-3.019661226287743,-4.991251783469755,-3.3297756131622434" stroke="#00FF00" fill="none" stroke-width="0.1" />
<use xlink:href="#d0" />
<path d="M-1.002873293908816,-5.915593390046723 Q-0.5450908025322939,-6.047198315061234,-0.07115306428748727,-5.99957808861944" stroke="#00FF00" fill="none" stroke-width="0.1" />
<use xlink:href="#d0" />
<path d="M-5.2047297045072085,-2.985094421123109 Q-5.042946989669505,-3.477049503268989,-4.640666723949007,-3.8031845021287607" stroke="#00FF00" fill="none" stroke-width="0.1" />
<use xlink:href="#d0" />
<path d="M5.023757644374321,-3.2805272641132817 Q5.316968279284653,-2.780260476480719,5.5605185286483145,-2.2540261073374426" stroke="#00FF00" fill="none" stroke-width="0.1" />
<use xlink:href="#d0" />
<path d="M5.674810926537574,-1.9484663066242027 Q5.849069988094602,-1.3373033591414547,5.957707948568432,-0.7111371172738312" stroke="#00FF00" fill="none" stroke-width="0.1" />
<use xlink:href="#d0" />
<path d="M3.6658257215465144,-5.021853270458405 Q4.060235758841635,-5.029457963735542,4.13596734202146,-4.64231220799482" stroke="#00FF00" fill="none" stroke-width="0.1" />
<use xlink:href="#d0" />
<path d="M4.266055810577946,-4.219095616483957 Q4.810822205345843,-3.8658681230648324,5.0385017194963115,-3.257836770409579" stroke="#00FF00" fill="none" stroke-width="0.1" />
<use xlink:href="#d0" />
<path d="M5.914760289539165,-1.00777513230411 Q6.045506874100731,-0.36188371019856425,5.992743893671944,0.294992584411243" stroke="#00FF00" fill="none" stroke-width="0.1" />
<use xlink:href="#d0" />
<path d="M4.991086229886304,3.3300237605517653 Q4.8065514297842595,3.5912481608542306,4.6083591769879115,3.8422683008701126" stroke="#00FF00" fill="none" stroke-width="0.1" />
<use xlink:href="#d0" />
<path d="M5.8498738213976225,1.429609472932099 Q6.105434871488562,1.7992923623583907,5.690235795482164,1.9712999678343948" stroke="#00FF00" fill="none" stroke-width="0.1" />
<use xlink:href="#d0" />
<path d="M5.541685603438288,2.6238147579017217 Q5.744804406931235,3.099247687473274,5.235929036461705,3.1905689674845243" stroke="#00FF00" fill="none" stroke-width="0.1" />
<use xlink:href="#d0" />
<path d="M1.0146051625689065,5.913592509134234 Q0.6261925607357365,6.248711007977756,0.1790058914084291,5.997329146448532" stroke="#00FF00" fill="none" stroke-width="0.1" />
<use xlink:href="#d0" />
<path d="M4.8162505473737065,3.578230102288347 Q4.496164537999748,3.9729717400496964,4.143821543762725,4.339209952681237" stroke="#00FF00" fill="none" stroke-width="0.1" />
<use xlink:href="#d0" />
<path d="M-4.9429104896697496,3.4011227397894293 Q-5.494196489261029,3.244663025072215,-5.3650267810757315,2.686352106173011" stroke="#00FF00" fill="none" stroke-width="0.1" />
<use xlink:href="#d0" />
<path d="M-0.9727778776358258,5.920616792259261 Q-1.2611083164712797,5.865970151145246,-1.5464218795389302,5.797290692253001" stroke="#00FF00" fill="none" stroke-width="0.1" />
<use xlink:href="#d0" />
<path d="M-5.5820834669916595,2.2000782185045997 Q-5.745465539487948,1.7290534215449966,-5.869178673822272,1.2460905644253266" stroke="#00FF00" fill="none" stroke-width="0.1" />
<use xlink:href="#d0" />
<path d="M-0.6777060613487826,6.110280399326595 Q-1.2502821916549676,6.359269602423219,-1.6859775005602848,5.912046340446611" stroke="#00FF00" fill="none" stroke-width="0.1" />
<use xlink:href="#d0" />
<path d="M-5.683917699927966,2.0271781090588243 Q-6.117252194966611,1.7676008510289207,-5.889154805324358,1.316900597739542" stroke="#00FF00" fill="none" stroke-width="0.1" />
<use xlink:href="#d0" />
<path d="M-5.593279440517371,-4.436887068112922 Q-5.601851128948436,-4.865611173302987,-5.176148213502713,-4.917136506825356" stroke="#00FF00" fill="none" stroke-width="0.1" />
<use xlink:href="#d0" />
<path d="M-6.787986771659618,0.30269700490491486 Q-7.010614939838721,-0.01285059808894058,-6.786831461389325,-0.32757991956223415" stroke="#00FF00" fill="none" stroke-width="0.1" />
<use xlink:href="#d0" />
<path d="M-2.761917542311752,-6.737167264581702 Q-2.3487695704408305,-7.254302052848385,-1.7109262596748662,-7.077453115029138" stroke="#00FF00" fill="none" stroke-width="0.1" />
<use xlink:href="#d0" />
<path d="M-3.320797989936164,-6.790510432194814 Q-2.682145085965696,-7.365985467297548,-1.822992059951884,-7.335900160788931" stroke="#00FF00" fill="none" stroke-width="0.1" />
<use xlink:href="#d0" />
<path d="M-6.762173944687852,-0.5610323944324832 Q-7.095785774119137,-0.9801396845278632,-6.6610514366246525,-1.293115449006219" stroke="#00FF00" fill="none" stroke-width="0.1" />
<use xlink:href="#d0" />
<path d="M-5.9598111450134565,-3.4537945186034706 Q-5.810377397653475,-4.283349321929725,-5.062147651411947,-4.67147799055786" stroke="#00FF00" fill="none" stroke-width="0.1" />
<use xlink:href="#d0" />
<path d="M-6.563336324277056,-2.7954450878907195 Q-6.436921514860939,-3.581651765079425,-5.835480500381427,-4.1035428929956534" stroke="#00FF00" fill="none" stroke-width="0.1" />
<use xlink:href="#d0" />
<path d="M-4.2877483657522815,-5.384754888401971 Q-3.9744378916874465,-5.986138657786594,-3.2985963231607487,-6.041492659352543" stroke="#00FF00" fill="none" stroke-width="0.1" />
<use xlink:href="#d0" />
<path d="M-6.236182365154215,-1.9300123951060073 Q-6.355160545530304,-2.4076743265243277,-5.949548972881516,-2.6865936343272567" stroke="#00FF00" fill="none" stroke-width="0.1" />
<use xlink:href="#d0" />
<path d="M-6.52345630917753,0.3750354029039362 Q-6.855730187345237,-0.15829846247200624,-6.499194241386002,-0.6757277439283282" stroke="#00FF00" fill="none" stroke-width="0.1" />
<use xlink:href="#d0" />
<path d="M-0.9833553885118637,-6.22174016568377 Q-0.43322773808603104,-6.525894419703434,0.1522782087450363,-6.297130287403893" stroke="#00FF00" fill="none" stroke-width="0.1" />
<use xlink:href="#d0" />
<path d="M-7.0596983998902045,-0.6731367711639271 Q-7.2665778684239255,-1.1905083869250312,-6.905419784939213,-1.6148164613588085" stroke="#00FF00" fill="none" stroke-width="0.1" />
<use xlink:href="#d0" />
<path d="M3.5863388763129036,-5.988219479040419 Q4.285007571128281,-5.902576523700607,4.582849720818084,-5.2647970047581145" stroke="#00FF00" fill="none" stroke-width="0.1" />
<use xlink:href="#d0" />
<path d="M1.9197854058099577,-6.291300929975869 Q2.6709087814571446,-6.294576028241885,3.1904701921025764,-5.752125115918559" stroke="#00FF00" fill="none" stroke-width="0.1" />
<use xlink:href="#d0" />
<path d="M3.0385313257113697,-5.632836555057622 Q3.688397454422091,-5.478170921999437,4.0761572800351,-4.934213422799988" stroke="#00FF00" fill="none" stroke-width="0.1" />
<use xlink:href="#d0" />
<path d="M5.181554250593893,-3.673476174165135 Q5.556226696766345,-3.4854807362704765,5.562420596026874,-3.0663347447567744" stroke="#00FF00" fill="none" stroke-width="0.1" />
<use xlink:href="#d0" />
<path d="M7.028049087033669,-2.499744853635191 Q7.497733739126754,-1.9948347502043988,7.341058374943457,-1.3232763274172772" stroke="#00FF00" fill="none" stroke-width="0.1" />
<use xlink:href="#d0" />
<path d="M3.1457641243912113,-6.681419172023393 Q3.9061469086136205,-6.540990512329553,4.390389263330417,-5.938154275111212" stroke="#00FF00" fill="none" stroke-width="0.1" />
<use xlink:href="#d0" />
<path d="M5.076232763589536,-5.5048389268275235 Q5.800352621495936,-5.256347118562618,5.976560850389542,-4.5113314090240015" stroke="#00FF00" fill="none" stroke-width="0.1" />
<use xlink:href="#d0" />
<path d="M4.0521762459948105,-5.167968713312094 Q4.611055985685158,-4.954275583122042,4.864255018026809,-4.412148690828343" stroke="#00FF00" fill="none" stroke-width="0.1" />
<use xlink:href="#d0" />
<path d="M3.707978753202769,-5.714858893699087 Q4.202020084907704,-5.698965545415571,4.363254254194074,-5.231704399366619" stroke="#00FF00" fill="none" stroke-width="0.1" />
<use xlink:href="#d0" />
<path d="M7.132565860659566,-1.1318524723562982 Q7.5063157594401275,-0.807010771133667,7.210157109509846,-0.41014659819389965" stroke="#00FF00" fill="none" stroke-width="0.1" />
<use xlink:href="#d0" />
<path d="M6.521944311044838,-1.5298572425378032 Q6.9626296000378085,-1.3031388845260403,6.633767303895569,-0.9323905494381797" stroke="#00FF00" fill="none" stroke-width="0.1" />
<use xlink:href="#d0" />
<path d="M7.448990501819801,-0.8365666086390385 Q7.76124723276191,-0.4733718149561048,7.495444626723582,-0.07492018828070168" stroke="#00FF00" fill="none" stroke-width="0.1" />
<use xlink:href="#d0" />
<path d="M5.1978693434311,4.255446079833968 Q4.9793230049150425,4.817958226506325,4.4243130867072615,5.054910559104485" stroke="#00FF00" fill="none" stroke-width="0.1" />
<use xlink:href="#d0" />
<path d="M2.131483119158675,6.197619904341103 Q1.7274693200858164,6.646525680125667,1.156003793376506,6.451152454844214" stroke="#00FF00" fill="none" stroke-width="0.1" />
<use xlink:href="#d0" />
<path d="M6.426285789656461,2.1371222877371885 Q6.527228693717297,2.599363547454363,6.13615461674838,2.8656669803801598" stroke="#00FF00" fill="none" stroke-width="0.1" />
<use xlink:href="#d0" />
<path d="M2.1949684851958198,6.243335656340237 Q1.9413114926110795,6.627030004436189,1.5207164168186507,6.4408499709549565" stroke="#00FF00" fill="none" stroke-width="0.1" />
<use xlink:href="#d0" />
<path d="M4.537086509993284,5.316023297615488 Q4.247008846180949,5.875055331761066,3.6252118222939913,5.975206853612145" stroke="#00FF00" fill="none" stroke-width="0.1" />
<use xlink:href="#d0" />
<path d="M3.7406876634273383,6.127402750459367 Q3.178379770241982,6.719128461027772,2.364252023044166,6.7785043360011255" stroke="#00FF00" fill="none" stroke-width="0.1" />
<use xlink:href="#d0" />
<path d="M4.143861274655393,5.393674928074333 Q3.7783996296050817,5.9514367665913275,3.118149225457528,6.044870627325691" stroke="#00FF00" fill="none" stroke-width="0.1" />
<use xlink:href="#d0" />
<path d="M6.7484771774085255,-0.5809639737243815 Q7.012544618129499,0.091162516390913,6.731094188092206,0.7561973180332432" stroke="#00FF00" fill="none" stroke-width="0.1" />
<use xlink:href="#d0" />
<path d="M6.842662519345907,2.2505873291330745 Q6.785077701231334,3.0463763787082603,6.228635015120589,3.6181873262905233" stroke="#00FF00" fill="none" stroke-width="0.1" />
<use xlink:href="#d0" />
<path d="M4.7264572984933215,5.199981533097207 Q4.495435426396896,5.825856118315052,3.8314348709419668,5.890612308475467" stroke="#00FF00" fill="none" stroke-width="0.1" />
<use xlink:href="#d0" />
<path d="M5.036257183448127,4.017475394095778 Q4.783916230656481,4.7393176541038216,4.06446907342117,4.998408357787581" stroke="#00FF00" fill="none" stroke-width="0.1" />
<use xlink:href="#d0" />
<path d="M4.037576694471998,5.033178150928759 Q3.7966582821164985,5.531805165549517,3.244753308653633,5.577318695279243" stroke="#00FF00" fill="none" stroke-width="0.1" />
<use xlink:href="#d0" />
<path d="M-6.353518331655796,0.7700482935366503 Q-6.784672346476456,0.33803267721020663,-6.398595589906303,-0.13469982144221496" stroke="#00FF00" fill="none" stroke-width="0.1" />
<use xlink:href="#d0" />
<path d="M-2.677643773495672,6.056471252453514 Q-3.149045786866212,6.078854446880734,-3.4026863945096477,5.680875417587938" stroke="#00FF00" fill="none" stroke-width="0.1" />
<use xlink:href="#d0" />
<path d="M-4.8069964712944,5.540944765119681 Q-5.444336797928952,5.321255256835096,-5.649397537438958,4.679058818728682" stroke="#00FF00" fill="none" stroke-width="0.1" />
<use xlink:href="#d0" />
<path d="M0.011059152205891161,6.984133521208862 Q-0.5041163129038027,7.2171119263798476,-0.9818999375300648,6.914775185036695" stroke="#00FF00" fill="none" stroke-width="0.1" />
<use xlink:href="#d0" />
<path d="M-3.619640914796644,6.394788838456313 Q-4.4174170986042,6.314724391349814,-4.766153439646587,5.592754780093648" stroke="#00FF00" fill="none" stroke-width="0.1" />
<use xlink:href="#d0" />
<path d="M-6.349829261462243,3.262718742298946 Q-6.855397727879543,3.0861393905692482,-6.652408569034249,2.5905840020564166" stroke="#00FF00" fill="none" stroke-width="0.1" />
<use xlink:href="#d0" />
<path d="M-2.6225092480661005,5.923579084203442 Q-3.2482687310792433,6.039334401798214,-3.4966376063976248,5.4534273051477085" stroke="#00FF00" fill="none" stroke-width="0.1" />
<use xlink:href="#d0" />
<path d="M-0.8413545310817331,6.680008942978658 Q-1.4790643375976367,6.8159464371184715,-2.0030726750086454,6.427915430672709" stroke="#00FF00" fill="none" stroke-width="0.1" />
<use xlink:href="#d0" />
<path d="M-2.352708751553492,6.986614519062797 Q-2.8227690125165545,7.202116635260325,-3.0212118487081194,6.724604068109969" stroke="#00FF00" fill="none" stroke-width="0.1" />
<use xlink:href="#d0" />
<path d="M-4.036130420984118,6.186362433814385 Q-4.837069457583355,5.980360970234216,-5.205951380319634,5.240181214753108" stroke="#00FF00" fill="none" stroke-width="0.1" />
<use xlink:href="#d0" />
<path d="M-3.0114967093394562,6.357068577694744 Q-3.5186048064576525,6.528755758056102,-3.654027920082596,6.010783084684816" stroke="#00FF00" fill="none" stroke-width="0.1" />
<use xlink:href="#d0" />
<path d="M-3.134390680854612,6.455476184212658 Q-3.920546614659493,6.328656614452883,-4.384193750799996,5.681234272639292" stroke="#00FF00" fill="none" stroke-width="0.1" />
<use xlink:href="#d0" />
<path d="M-2.099293159040309,-7.337306357980571 Q-1.475934285652494,-7.814147335248019,-0.7215943737172574,-7.597525776084945" stroke="#00FF00" fill="none" stroke-width="0.1" />
<use xlink:href="#d0" />
<path d="M-4.911721212349921,-5.8755096600408026 Q-4.7862180515062525,-6.461724354712949,-4.188875616524951,-6.410923498402057" stroke="#00FF00" fill="none" stroke-width="0.1" />
<use xlink:href="#d0" />
<path d="M-7.665771626296104,-4.395439469115786 Q-7.513332793555244,-5.078221550553185,-6.9366177307828245,-5.474237591681295" stroke="#00FF00" fill="none" stroke-width="0.1" />
<use xlink:href="#d0" />
<path d="M-8.193880136861187,-1.7410434056578157 Q-8.350798658340638,-2.5178752362589116,-7.790621462755367,-3.0784933103205376" stroke="#00FF00" fill="none" stroke-width="0.1" />
<use xlink:href="#d0" />
<path d="M-3.9270745120486006,-7.613351249089304 Q-3.709152798519357,-8.060642946343131,-3.2276762486791366,-7.935183520177967" stroke="#00FF00" fill="none" stroke-width="0.1" />
<use xlink:href="#d0" />
<path d="M-5.809500595547859,-6.634654274662373 Q-5.341124242907301,-7.324059681568315,-4.541554396749808,-7.5593133402002275" stroke="#00FF00" fill="none" stroke-width="0.1" />
<use xlink:href="#d0" />
<path d="M-2.7276385070992086,-7.403041103536787 Q-2.112833503127006,-7.924194488777848,-1.3201766930916998,-7.778313628614048" stroke="#00FF00" fill="none" stroke-width="0.1" />
<use xlink:href="#d0" />
<path d="M-0.9892170067366786,-7.783782018804093 Q-0.6512517267983029,-8.090342345222272,-0.2686012843435424,-7.8417897289282115" stroke="#00FF00" fill="none" stroke-width="0.1" />
<use xlink:href="#d0" />
<path d="M-7.252027819446154,-4.9229477534485815 Q-7.207592029048212,-5.648819551955302,-6.513371217805996,-5.865434123426996" stroke="#00FF00" fill="none" stroke-width="0.1" />
<use xlink:href="#d0" />
<path d="M-4.482620140140526,-6.126126916265204 Q-4.098505666217067,-6.833046744223751,-3.29399137628352,-6.83907414259798" stroke="#00FF00" fill="none" stroke-width="0.1" />
<use xlink:href="#d0" />
<path d="M-7.0145348531555145,-4.87734903758366 Q-7.045011101289171,-5.477257079350315,-6.456105860863214,-5.5956170306659985" stroke="#00FF00" fill="none" stroke-width="0.1" />
<use xlink:href="#d0" />
<path d="M7.884128604543658,-1.6902456554760694 Q8.308538650762396,-1.0182612231983112,8.05896328823324,-0.26367583838523967" stroke="#00FF00" fill="none" stroke-width="0.1" />
<use xlink:href="#d0" />
<path d="M5.024887720051853,-6.314706566807097 Q5.689204021069588,-6.142134814248154,5.912059365810079,-5.492956369673977" stroke="#00FF00" fill="none" stroke-width="0.1" />
<use xlink:href="#d0" />
<path d="M1.139233482318784,-8.314768841379562 Q2.0775493541814796,-8.479855643343807,2.8332890953825878,-7.899728268415233" stroke="#00FF00" fill="none" stroke-width="0.1" />
<use xlink:href="#d0" />
<path d="M3.898216257381939,-7.763022087234795 Q4.812704177727025,-7.59792577863365,5.352748709530685,-6.841687158064866" stroke="#00FF00" fill="none" stroke-width="0.1" />
<use xlink:href="#d0" />
<path d="M5.57434029804508,-5.644557367501661 Q6.240092191645174,-5.22643804617369,6.534933468544341,-4.497659635313196" stroke="#00FF00" fill="none" stroke-width="0.1" />
<use xlink:href="#d0" />
<path d="M6.393488988121533,-5.326140421340644 Q7.180372086842185,-4.817925102278752,7.352344933407545,-3.89711395897867" stroke="#00FF00" fill="none" stroke-width="0.1" />
<use xlink:href="#d0" />
<path d="M2.2585285765671896,-8.174537177619216 Q2.771278594753255,-8.335082598101822,3.0858181314535362,-7.899476935787709" stroke="#00FF00" fill="none" stroke-width="0.1" />
<use xlink:href="#d0" />
<path d="M0.30121212622726956,-8.211810084531866 Q0.9809699442868784,-8.554968534026518,1.565407858907514,-8.06684894148119" stroke="#00FF00" fill="none" stroke-width="0.1" />
<use xlink:href="#d0" />
<path d="M1.1390556015926285,-8.290281320796227 Q1.6253289614264155,-8.443282785841792,2.0200506131412483,-8.120690091476835" stroke="#00FF00" fill="none" stroke-width="0.1" />
<use xlink:href="#d0" />
<path d="M4.176187196694272,-7.311637873900605 Q4.918985960382297,-7.2581332380091075,5.243900781464318,-6.588026449176479" stroke="#00FF00" fill="none" stroke-width="0.1" />
<use xlink:href="#d0" />
<path d="M-0.4532599876511923,-7.704007752795078 Q0.3659591931192086,-7.993826016810604,1.1552712731644532,-7.630368821815444" stroke="#00FF00" fill="none" stroke-width="0.1" />
<use xlink:href="#d0" />
<path d="M2.1327386359731446,8.40194628463601 Q1.2992016416237582,8.826165684185588,0.3787793396939584,8.660127116336252" stroke="#00FF00" fill="none" stroke-width="0.1" />
<use xlink:href="#d0" />
<path d="M1.9622111257701218,7.489459822573356 Q1.7073543870332248,7.956528440157922,1.2833069031616404,7.6351427182688765" stroke="#00FF00" fill="none" stroke-width="0.1" />
<use xlink:href="#d0" />
<path d="M7.7793241004831355,1.4249395079572051 Q7.937169577230408,2.36945200529741,7.287375932381424,3.072863173303204" stroke="#00FF00" fill="none" stroke-width="0.1" />
<use xlink:href="#d0" />
<path d="M8.801471708587947,0.7845472044866624 Q8.993779028697135,1.674271097535208,8.49418959673408,2.435192322564362" stroke="#00FF00" fill="none" stroke-width="0.1" />
<use xlink:href="#d0" />
<path d="M5.227817201259165,5.863602313033215 Q4.702795396708005,6.611785698078549,3.8237697571237326,6.862265633134263" stroke="#00FF00" fill="none" stroke-width="0.1" />
<use xlink:href="#d0" />
<path d="M1.6681455965934278,7.9399437307925025 Q1.151097902541728,8.285246149944717,0.5595016952649726,8.093971462303337" stroke="#00FF00" fill="none" stroke-width="0.1" />
<use xlink:href="#d0" />
<path d="M4.959167795844866,6.426189303065724 Q4.6135925935862705,6.979521237508938,3.969098416549507,7.080643469764974" stroke="#00FF00" fill="none" stroke-width="0.1" />
<use xlink:href="#d0" />
<path d="M4.6910898545817385,6.382175978622415 Q4.28268673584301,6.973832641240387,3.5702879424253724,7.0704694507533725" stroke="#00FF00" fill="none" stroke-width="0.1" />
<use xlink:href="#d0" />
<path d="M7.582153219671152,0.020131459283644577 Q7.761806338555586,0.7657626183083418,7.43991034037659,1.4619120525462543" stroke="#00FF00" fill="none" stroke-width="0.1" />
<use xlink:href="#d0" />
<path d="M8.214525438369707,0.9434448037124171 Q8.350346057749077,1.5280183093729396,8.016317656229262,2.0266147906550938" stroke="#00FF00" fill="none" stroke-width="0.1" />
<use xlink:href="#d0" />
<path d="M5.509737536711649,6.263114665971924 Q5.308469644896517,6.859323388463592,4.6808367018909,6.904605768093719" stroke="#00FF00" fill="none" stroke-width="0.1" />
<use xlink:href="#d0" />
<path d="M-8.512875265728196,2.140661147377548 Q-8.95613801821465,1.7987892377907888,-8.67925102309491,1.312279358918915" stroke="#00FF00" fill="none" stroke-width="0.1" />
<use xlink:href="#d0" />
<path d="M-7.017170103506235,5.014786087802942 Q-7.536113557401322,4.7209622411041,-7.574058977075808,4.1258194797810805" stroke="#00FF00" fill="none" stroke-width="0.1" />
<use xlink:href="#d0" />
<path d="M-5.150781745630787,6.654248033263285 Q-5.8432208672877906,6.433276840051366,-6.1295826585033435,5.765222104298041" stroke="#00FF00" fill="none" stroke-width="0.1" />
<use xlink:href="#d0" />
<path d="M-3.4828001972601683,6.724763607314412 Q-4.002159522584812,6.810538528943142,-4.179962531149244,6.3150816326065184" stroke="#00FF00" fill="none" stroke-width="0.1" />
<use xlink:href="#d0" />
<path d="M0.5846091759216983,8.113579376902907 Q-0.2944951504101317,8.333259716906081,-1.155898874362407,8.0520702919264" stroke="#00FF00" fill="none" stroke-width="0.1" />
<use xlink:href="#d0" />
<path d="M-0.6684707042204973,8.132484305106148 Q-1.5845456254169037,8.307916929073542,-2.371741366699925,7.807624283012295" stroke="#00FF00" fill="none" stroke-width="0.1" />
<use xlink:href="#d0" />
<path d="M-6.899081837022776,4.766099706679065 Q-7.495810410170893,4.357623633616321,-7.555504649081547,3.6369473608578633" stroke="#00FF00" fill="none" stroke-width="0.1" />
<use xlink:href="#d0" />
<path d="M-8.415210586822443,1.03544353819289 Q-8.777066961044468,0.3243375341595925,-8.468680581545785,-0.41153584182095904" stroke="#00FF00" fill="none" stroke-width="0.1" />
<use xlink:href="#d0" />
<path d="M-7.20723777933689,2.863493874068297 Q-7.66639896585182,2.546070696507748,-7.488355988120983,2.017027062262736" stroke="#00FF00" fill="none" stroke-width="0.1" />
<use xlink:href="#d0" />
<path d="M-3.983537569386612,7.689786818139543 Q-4.880965780396042,7.481473094280371,-5.433184335801697,6.744027049793493" stroke="#00FF00" fill="none" stroke-width="0.1" />
<use xlink:href="#d0" />
<path d="M-5.22312216001176,6.8669051141693265 Q-6.0475118825194185,6.660531365322892,-6.332277739801202,5.8598335788168034" stroke="#00FF00" fill="none" stroke-width="0.1" />
<use xlink:href="#d0" />
<path d="M-8.827136712262876,-2.932211376547461 Q-8.936214295723412,-3.5452680073272766,-8.436518230935274,-3.916805615910769" stroke="#00FF00" fill="none" stroke-width="0.1" />
<use xlink:href="#d0" />
<path d="M-9.61377966872427,-2.827881241640255 Q-9.771826278281564,-3.461280387046594,-9.25032605702324,-3.8539771242644667" stroke="#00FF00" fill="none" stroke-width="0.1" />
<use xlink:href="#d0" />
<path d="M-8.880067423662256,-1.562175886785073 Q-9.123719792642017,-2.237976145718478,-8.595002616409145,-2.724320277419729" stroke="#00FF00" fill="none" stroke-width="0.1" />
<use xlink:href="#d0" />
<path d="M-6.318111010744284,-7.504647009153426 Q-6.006238857374951,-8.202576760849325,-5.246717218484182,-8.289162316262436" stroke="#00FF00" fill="none" stroke-width="0.1" />
<use xlink:href="#d0" />
<path d="M-1.565513115035615,-9.361377070692306 Q-0.8284723363161858,-9.855658860633575,-0.019258449926601612,-9.491356124660932" stroke="#00FF00" fill="none" stroke-width="0.1" />
<use xlink:href="#d0" />
<path d="M-4.352567863480818,-8.88596816286049 Q-3.5262453874189954,-9.48622454379374,-2.508477376342324,-9.571458533053095" stroke="#00FF00" fill="none" stroke-width="0.1" />
<use xlink:href="#d0" />
<path d="M-8.463405271590071,-3.654311845883114 Q-8.386562132054399,-4.570533548646386,-7.658246380466794,-5.131713771656356" stroke="#00FF00" fill="none" stroke-width="0.1" />
<use xlink:href="#d0" />
<path d="M-6.721759842678382,-6.053949791503581 Q-6.33132853157827,-6.945492011250068,-5.407549398739551,-7.251949597238075" stroke="#00FF00" fill="none" stroke-width="0.1" />
<use xlink:href="#d0" />
<path d="M-6.308623615025194,-7.148631438301935 Q-5.763249101859096,-7.993338340893876,-4.789508714383981,-8.243923194182017" stroke="#00FF00" fill="none" stroke-width="0.1" />
<use xlink:href="#d0" />
<path d="M-7.366558470423285,-4.901291505644247 Q-7.078148558214572,-5.831106033007958,-6.220733079349279,-6.292163544994292" stroke="#00FF00" fill="none" stroke-width="0.1" />
<use xlink:href="#d0" />
<path d="M2.8234369119107434,-8.762259113021575 Q3.5437120227085583,-8.722504445540396,4.087626066211912,-8.248654066094335" stroke="#00FF00" fill="none" stroke-width="0.1" />
<use xlink:href="#d0" />
<path d="M3.1411962190011096,-8.358481680145353 Q4.051615238767159,-8.355325898705342,4.617867798813491,-7.642422827629586" stroke="#00FF00" fill="none" stroke-width="0.1" />
<use xlink:href="#d0" />
<path d="M5.335429099469393,-7.443338338116897 Q5.9199655423639665,-7.320988655199119,6.161935804457176,-6.7750008437559845" stroke="#00FF00" fill="none" stroke-width="0.1" />
<use xlink:href="#d0" />
<path d="M9.243182747328312,-2.4091418445819337 Q9.70553470187076,-1.6300963827256008,9.523062286751186,-0.7427492244901109" stroke="#00FF00" fill="none" stroke-width="0.1" />
<use xlink:href="#d0" />
<path d="M6.856282380544889,-6.231141042361614 Q7.726107875102614,-5.613500782985547,8.044754516866629,-4.595394600567796" stroke="#00FF00" fill="none" stroke-width="0.1" />
<use xlink:href="#d0" />
<path d="M6.09373683582333,-7.803763710486197 Q6.639451474390511,-7.750327847499917,6.776012251086564,-7.219280756868805" stroke="#00FF00" fill="none" stroke-width="0.1" />
<use xlink:href="#d0" />
<path d="M5.3193509805521195,-7.892954585646069 Q6.178382349996462,-7.52724461791501,6.704539856273225,-6.755987881947088" stroke="#00FF00" fill="none" stroke-width="0.1" />
<use xlink:href="#d0" />
<path d="M7.563811970465925,-6.4870573155998414 Q8.30717411493027,-6.053347901355317,8.492304831943878,-5.212861285492229" stroke="#00FF00" fill="none" stroke-width="0.1" />
<use xlink:href="#d0" />
<path d="M10.031098769249947,-1.2812718745628784 Q10.431368262406046,-0.4045760983320861,10.10020355539329,0.500488036434896" stroke="#00FF00" fill="none" stroke-width="0.1" />
<use xlink:href="#d0" />
<path d="M-0.268539437334162,-9.022762891208837 Q0.4909519381642219,-9.30385987612931,1.2166415795832564,-8.944391923837424" stroke="#00FF00" fill="none" stroke-width="0.1" />
<use xlink:href="#d0" />
<path d="M6.491104361491746,7.0586105003419135 Q6.123139918421958,7.810097040806869,5.305552333655626,7.988086908775819" stroke="#00FF00" fill="none" stroke-width="0.1" />
<use xlink:href="#d0" />
<path d="M1.2393408012865315,9.987066281479269 Q0.28605833081990795,10.394276152668079,-0.6881776990701428,10.040113046519755" stroke="#00FF00" fill="none" stroke-width="0.1" />
<use xlink:href="#d0" />
<path d="M9.554680456683974,1.7596196801366395 Q9.674774980618901,2.6499318552532913,9.117763181729183,3.3547838395292393" stroke="#00FF00" fill="none" stroke-width="0.1" />
<use xlink:href="#d0" />
<path d="M9.996732984339861,1.345057918237508 Q10.268384139514632,2.0645494291427795,9.739763439788776,2.623139207239269" stroke="#00FF00" fill="none" stroke-width="0.1" />
<use xlink:href="#d0" />
<path d="M6.989623199063683,5.829319513167494 Q6.524681279717841,6.741883992293897,5.597385738582916,7.176703375853926" stroke="#00FF00" fill="none" stroke-width="0.1" />
<use xlink:href="#d0" />
<path d="M1.2139147385060798,9.175680681887346 Q0.5327823655734776,9.527403719660057,-0.18331807149910487,9.253815399768074" stroke="#00FF00" fill="none" stroke-width="0.1" />
<use xlink:href="#d0" />
<path d="M8.577940312765936,5.274200854934946 Q8.293494927633011,6.281581219469704,7.400847124909274,6.828302607624654" stroke="#00FF00" fill="none" stroke-width="0.1" />
<use xlink:href="#d0" />
<path d="M4.1416654967182485,8.229524332986802 Q3.411210654917736,8.98544908713911,2.3631316328117635,8.904721933891741" stroke="#00FF00" fill="none" stroke-width="0.1" />
<use xlink:href="#d0" />
<path d="M6.371881277416029,6.597394257470971 Q5.977211245724274,7.455549141453213,5.053764616641754,7.654145621921215" stroke="#00FF00" fill="none" stroke-width="0.1" />
<use xlink:href="#d0" />
<path d="M5.86589059992093,6.806613036743685 Q5.6027228285785915,7.431466498964102,4.929573902147813,7.5125198638987305" stroke="#00FF00" fill="none" stroke-width="0.1" />
<use xlink:href="#d0" />
<path d="M-9.488310158684593,1.1971175949774764 Q-9.925804365976859,0.64041434778934,-9.563476845643844,0.032106485885983374" stroke="#00FF00" fill="none" stroke-width="0.1" />
<use xlink:href="#d0" />
<path d="M-7.777371109820635,6.147107421514049 Q-8.377729401941748,5.713390994978836,-8.562310512103847,4.996125471384969" stroke="#00FF00" fill="none" stroke-width="0.1" />
<use xlink:href="#d0" />
<path d="M-8.585563654444098,5.2693687514225385 Q-9.245693370625116,4.575243139837332,-9.397113271961786,3.6293818284798145" stroke="#00FF00" fill="none" stroke-width="0.1" />
<use xlink:href="#d0" />
<path d="M-6.386175111508368,6.389633051401378 Q-6.948928874007422,6.331526429671013,-6.954573368920925,5.765808906190496" stroke="#00FF00" fill="none" stroke-width="0.1" />
<use xlink:href="#d0" />
<path d="M-6.579389836741156,6.301525966250389 Q-7.315076362253866,5.963771903208115,-7.497709044466593,5.175128907734046" stroke="#00FF00" fill="none" stroke-width="0.1" />
<use xlink:href="#d0" />
<path d="M-2.1489125061127377,8.750102176289214 Q-2.8589728320721433,8.923475660493448,-3.3360789772451214,8.369748509484147" stroke="#00FF00" fill="none" stroke-width="0.1" />
<use xlink:href="#d0" />
<path d="M-6.686998016365673,6.40337683488324 Q-7.199779725413615,6.152957319594371,-7.367229241036559,5.607415685537647" stroke="#00FF00" fill="none" stroke-width="0.1" />
<use xlink:href="#d0" />
<path d="M-5.0582347154101335,7.986880880619134 Q-5.614607943545871,7.876013835332085,-5.900844184389012,7.386206235202351" stroke="#00FF00" fill="none" stroke-width="0.1" />
<use xlink:href="#d0" />
<path d="M-9.045252854310368,2.203604886741938 Q-9.454765028413776,1.4757102918411988,-9.286548294049123,0.6576431232637628" stroke="#00FF00" fill="none" stroke-width="0.1" />
<use xlink:href="#d0" />
<path d="M0.5590439400668789,8.878238251979075 Q-0.121247451714616,9.112755080554095,-0.7950585189266841,8.86022158511355" stroke="#00FF00" fill="none" stroke-width="0.1" />
<use xlink:href="#d0" />
<path d="M-6.725050320909309,-8.045072958768612 Q-6.402593329118161,-8.667016144475426,-5.7133484082321,-8.79244850407576" stroke="#00FF00" fill="none" stroke-width="0.1" />
<use xlink:href="#d0" />
<path d="M-4.042008936708377,-9.501536726505313 Q-3.6005175196740264,-10.09199958810289,-2.884979688986674,-9.914329458097205" stroke="#00FF00" fill="none" stroke-width="0.1" />
<use xlink:href="#d0" />
<path d="M-5.313562177560556,-9.193622520463464 Q-4.754810089342222,-9.803555729330602,-3.9298965930295076,-9.864712404914302" stroke="#00FF00" fill="none" stroke-width="0.1" />
<use xlink:href="#d0" />
<path d="M-5.944024519731284,-8.902518176732853 Q-5.278812498029734,-9.687943190126642,-4.258191151918014,-9.821103069001602" stroke="#00FF00" fill="none" stroke-width="0.1" />
<use xlink:href="#d0" />
<path d="M-9.54701490147766,-6.1266598028743715 Q-9.054943628595517,-7.279916495366516,-8.034298359523879,-8.008214766060226" stroke="#00FF00" fill="none" stroke-width="0.1" />
<use xlink:href="#d0" />
<path d="M-3.773936610425849,-9.406470667890373 Q-3.4247099764157154,-9.87355347068247,-2.8612648371488767,-9.723037153949887" stroke="#00FF00" fill="none" stroke-width="0.1" />
<use xlink:href="#d0" />
<path d="M-11.084550487488986,-0.7796668677071928 Q-11.240663536675385,-2.007735893540455,-10.669066723163834,-3.1058260078392697" stroke="#00FF00" fill="none" stroke-width="0.1" />
<use xlink:href="#d0" />
<path d="M-8.613156332165996,-6.049003646828851 Q-8.332752589857433,-6.872947244487359,-7.57720639372077,-7.304988048493783" stroke="#00FF00" fill="none" stroke-width="0.1" />
<use xlink:href="#d0" />
<path d="M-1.5855061898775336,-10.170948638996803 Q-0.6134959365968715,-10.527864356582072,0.39339184914670644,-10.286266035266435" stroke="#00FF00" fill="none" stroke-width="0.1" />
<use xlink:href="#d0" />
<path d="M-10.116529680135715,-4.632214837860914 Q-10.098301096806269,-5.440236854675678,-9.43355807440286,-5.89996348548313" stroke="#00FF00" fill="none" stroke-width="0.1" />
<use xlink:href="#d0" />
<path d="M-4.008765484095629,-10.516220593056154 Q-3.392653560253187,-10.999829065992952,-2.6111746496196284,-10.947276520554261" stroke="#00FF00" fill="none" stroke-width="0.1" />
<use xlink:href="#d0" />
<path d="M-10.060806051008303,-1.9352570292803055 Q-10.087739145355965,-2.837055525342011,-9.594693657154638,-3.592616287712991" stroke="#00FF00" fill="none" stroke-width="0.1" />
<use xlink:href="#d0" />
<path d="M-4.403179601354777,-9.163578996057181 Q-4.011596006094094,-9.579879522751925,-3.4402175598381057,-9.566821507676867" stroke="#00FF00" fill="none" stroke-width="0.1" />
<use xlink:href="#d0" />
<path d="M-4.878673803288985,-8.893053726500392 Q-4.447744507479103,-9.34571325229708,-3.8246836671120708,-9.3946611172435" stroke="#00FF00" fill="none" stroke-width="0.1" />
<use xlink:href="#d0" />
<path d="M-1.7056100392468656,-11.140139909083784 Q-0.7014024445219887,-11.634025848018025,0.3548674952255461,-11.264363801865303" stroke="#00FF00" fill="none" stroke-width="0.1" />
<use xlink:href="#d0" />
<path d="M-2.093491443094497,-10.663831931550822 Q-1.1790223077129884,-11.016947326222867,-0.21053865315306344,-10.86534359153917" stroke="#00FF00" fill="none" stroke-width="0.1" />
<use xlink:href="#d0" />
<path d="M-6.430394429848249,-8.468035255826079 Q-6.173652990209413,-9.13242521663325,-5.4614434104884575,-9.123060313917094" stroke="#00FF00" fill="none" stroke-width="0.1" />
<use xlink:href="#d0" />
<path d="M-10.601388662597913,-2.3345170128268005 Q-10.712677850334288,-3.056036202087487,-10.237459333697583,-3.610240663657423" stroke="#00FF00" fill="none" stroke-width="0.1" />
<use xlink:href="#d0" />
<path d="M-9.006643775308355,-5.98875710481315 Q-8.633612516806709,-7.0173094844788935,-7.703002257241147,-7.592667514167107" stroke="#00FF00" fill="none" stroke-width="0.1" />
<use xlink:href="#d0" />
<path d="M-10.723712096885194,-0.8081809547061041 Q-10.933742641656691,-1.7113293177025826,-10.45779880681616,-2.5071102306412616" stroke="#00FF00" fill="none" stroke-width="0.1" />
<use xlink:href="#d0" />
<path d="M-9.7807535842834,-4.251142497572217 Q-9.84958383981982,-4.880994008879376,-9.306719339853494,-5.207718151007604" stroke="#00FF00" fill="none" stroke-width="0.1" />
<use xlink:href="#d0" />
<path d="M-3.0402003565214746,-10.588457769429796 Q-2.58286317704648,-11.08376120338113,-1.9536852626336998,-10.841649783928617" stroke="#00FF00" fill="none" stroke-width="0.1" />
<use xlink:href="#d0" />
<path d="M-11.07757100912962,-0.6581313339539525 Q-11.195657122149388,-1.5113967789867173,-10.855542442300877,-2.3028058099729907" stroke="#00FF00" fill="none" stroke-width="0.1" />
<use xlink:href="#d0" />
<path d="M-10.264372301350008,-2.194711308826433 Q-10.293120607203663,-2.96989069451168,-9.855841772548391,-3.6106065175122755" stroke="#00FF00" fill="none" stroke-width="0.1" />
<use xlink:href="#d0" />
<path d="M-6.17622232304798,-9.53097018373356 Q-5.583916534136765,-10.134708352393625,-4.7571210331418845,-10.31285189959467" stroke="#00FF00" fill="none" stroke-width="0.1" />
<use xlink:href="#d0" />
<path d="M-0.821559669647461,-10.237244692563719 Q-0.15199959686566225,-10.60158713148165,0.5277305871098368,-10.256590057794256" stroke="#00FF00" fill="none" stroke-width="0.1" />
<use xlink:href="#d0" />
<path d="M-9.801908897747223,-3.6173685372615507 Q-9.877522245208107,-4.407663668439181,-9.238833240492957,-4.879214437639359" stroke="#00FF00" fill="none" stroke-width="0.1" />
<use xlink:href="#d0" />
<path d="M-10.388977345656171,-2.4234791835618306 Q-10.502469814207942,-3.1876381295748315,-9.983385812182721,-3.759801772277816" stroke="#00FF00" fill="none" stroke-width="0.1" />
<use xlink:href="#d0" />
<path d="M-10.675332228568106,-2.42294715365079 Q-10.695991727940072,-3.6852804703758624,-9.902155292580828,-4.666981000743722" stroke="#00FF00" fill="none" stroke-width="0.1" />
<use xlink:href="#d0" />
<path d="M8.984366076031026,-7.009609209907481 Q9.655410086438433,-6.746104190016764,9.6720409659945,-6.025369583343506" stroke="#00FF00" fill="none" stroke-width="0.1" />
<use xlink:href="#d0" />
<path d="M4.806042034939137,-9.753528405479184 Q5.915557755006473,-9.537428436053354,6.602164984348254,-8.639489216240568" stroke="#00FF00" fill="none" stroke-width="0.1" />
<use xlink:href="#d0" />
<path d="M10.52622683037893,-4.0531611849353615 Q11.081375797114703,-3.424782255700642,10.977577615997617,-2.592750770977405" stroke="#00FF00" fill="none" stroke-width="0.1" />
<use xlink:href="#d0" />
<path d="M6.388465050747389,-9.083385017984257 Q7.379952136512344,-8.689978608936318,7.928749823829796,-7.775300336365193" stroke="#00FF00" fill="none" stroke-width="0.1" />
<use xlink:href="#d0" />
<path d="M3.091256533240006,-10.012618836362977 Q4.290941054854832,-9.96421201461624,5.150446838411524,-9.125858879102088" stroke="#00FF00" fill="none" stroke-width="0.1" />
<use xlink:href="#d0" />
<path d="M2.934216495381286,-10.022415246606133 Q3.533074659456341,-10.16643170484788,3.913557057288059,-9.682071316434389" stroke="#00FF00" fill="none" stroke-width="0.1" />
<use xlink:href="#d0" />
<path d="M10.207203845310273,-2.166200621347507 Q10.722924297296164,-1.1003539403047882,10.434420423314263,0.0480197997222753" stroke="#00FF00" fill="none" stroke-width="0.1" />
<use xlink:href="#d0" />
<path d="M10.97717051104462,-2.4495427085790524 Q11.403061057114568,-1.4117940575820487,11.243114394740422,-0.301513874442121" stroke="#00FF00" fill="none" stroke-width="0.1" />
<use xlink:href="#d0" />
<path d="M-0.5679812140166024,-10.20999398075858 Q0.06855442133534453,-10.45030288717312,0.7018825363556992,-10.201663621770768" stroke="#00FF00" fill="none" stroke-width="0.1" />
<use xlink:href="#d0" />
<path d="M9.449465444205261,-5.50782981247953 Q10.032625402886726,-5.157703710842891,9.978017153253488,-4.479705360160065" stroke="#00FF00" fill="none" stroke-width="0.1" />
<use xlink:href="#d0" />
<path d="M0.6967939838121567,-11.149010091788448 Q1.7667514144747405,-11.399174903149236,2.7107835618486735,-10.836863031499867" stroke="#00FF00" fill="none" stroke-width="0.1" />
<use xlink:href="#d0" />
<path d="M3.249557736852471,-10.186192108217591 Q4.471842053088907,-10.063887285107628,5.381818020834984,-9.238732052682765" stroke="#00FF00" fill="none" stroke-width="0.1" />
<use xlink:href="#d0" />
<path d="M0.5195157793367831,-10.405300575731143 Q1.5781629666666754,-10.650387976319967,2.520246553245584,-10.108834454433632" stroke="#00FF00" fill="none" stroke-width="0.1" />
<use xlink:href="#d0" />
<path d="M4.365780663572087,-10.153294908846906 Q5.243406799012421,-10.092986827707676,5.797332029202745,-9.409589770633808" stroke="#00FF00" fill="none" stroke-width="0.1" />
<use xlink:href="#d0" />
<path d="M9.22342350873651,-6.468036588030038 Q10.109727652601098,-5.719488348217487,10.294823365173631,-4.5742376857224665" stroke="#00FF00" fill="none" stroke-width="0.1" />
<use xlink:href="#d0" />
<path d="M9.324151083481041,-4.242273685185255 Q9.893867805566293,-3.6709448651014536,9.834690681651875,-2.866276093440014" stroke="#00FF00" fill="none" stroke-width="0.1" />
<use xlink:href="#d0" />
<path d="M10.421733280716527,-1.6927882058801826 Q10.88389218900918,-0.7490041071952276,10.555375863632248,0.24919241924917393" stroke="#00FF00" fill="none" stroke-width="0.1" />
<use xlink:href="#d0" />
<path d="M3.051831151749132,-10.062621095871965 Q3.9978053357097503,-10.085126585158108,4.6714358310118484,-9.420599979545495" stroke="#00FF00" fill="none" stroke-width="0.1" />
<use xlink:href="#d0" />
<path d="M5.866801135946848,-8.712559851531536 Q6.813221479817029,-8.501645636983026,7.225244955183072,-7.623902548752049" stroke="#00FF00" fill="none" stroke-width="0.1" />
<use xlink:href="#d0" />
<path d="M8.983896686303702,-6.45023508289593 Q9.844558757929837,-5.682714482946704,10.0787404084343,-4.553561691049515" stroke="#00FF00" fill="none" stroke-width="0.1" />
<use xlink:href="#d0" />
<path d="M9.186822221493987,-6.491477670283036 Q9.830088095519029,-6.029763214914282,9.950122366270216,-5.247099176627807" stroke="#00FF00" fill="none" stroke-width="0.1" />
<use xlink:href="#d0" />
<path d="M10.513851435412974,-4.09817588396078 Q11.123498397132495,-3.5623077244853505,10.938567946856383,-2.7719756228760963" stroke="#00FF00" fill="none" stroke-width="0.1" />
<use xlink:href="#d0" />
<path d="M6.930877194162326,-8.742179127515724 Q7.637781662400915,-8.417589940330723,8.02935000801466,-7.745469193465686" stroke="#00FF00" fill="none" stroke-width="0.1" />
<use xlink:href="#d0" />
<path d="M10.481998345060804,-3.895190977578024 Q11.12127865177264,-3.2069251608606937,10.946614574292957,-2.2839508356222695" stroke="#00FF00" fill="none" stroke-width="0.1" />
<use xlink:href="#d0" />
<path d="M3.4217082991411583,-10.376886232551211 Q4.266039168202982,-10.40547920480889,4.8473053619749,-9.792419838604335" stroke="#00FF00" fill="none" stroke-width="0.1" />
<use xlink:href="#d0" />
<path d="M1.330258819002112,-11.22289016050402 Q2.581683546694238,-11.253472672260735,3.6946390775948426,-10.680472562886905" stroke="#00FF00" fill="none" stroke-width="0.1" />
<use xlink:href="#d0" />
<path d="M1.7345559903113652,-10.344156220257839 Q2.591725859714984,-10.378357682993611,3.3321824986791975,-9.94519040481981" stroke="#00FF00" fill="none" stroke-width="0.1" />
<use xlink:href="#d0" />
<path d="M2.4630255669384007,-10.639303353213782 Q3.2162173227777324,-10.745664415451666,3.787124203269075,-10.242995707023987" stroke="#00FF00" fill="none" stroke-width="0.1" />
<use xlink:href="#d0" />
<path d="M9.534351334157497,-4.398487061928209 Q10.207355634828666,-3.5983061091087176,10.18493364583271,-2.552972860624549" stroke="#00FF00" fill="none" stroke-width="0.1" />
<use xlink:href="#d0" />
<path d="M2.152679058722933,10.105744241140462 Q1.470641729733274,10.483835238890542,0.710900232975706,10.307992755913393" stroke="#00FF00" fill="none" stroke-width="0.1" />
<use xlink:href="#d0" />
<path d="M11.099542585078606,2.5082533872181023 Q11.071322613691029,3.6708316061046977,10.399375820644917,4.619974371514458" stroke="#00FF00" fill="none" stroke-width="0.1" />
<use xlink:href="#d0" />
<path d="M2.3083056600392444,10.813797093169885 Q1.2003081089245755,11.318613295943672,0.011076487527336152,11.057411989423327" stroke="#00FF00" fill="none" stroke-width="0.1" />
<use xlink:href="#d0" />
<path d="M4.428260136843932,10.13713891854286 Q3.712881266709232,10.726881920909305,2.7859995917826534,10.70557236059727" stroke="#00FF00" fill="none" stroke-width="0.1" />
<use xlink:href="#d0" />
<path d="M8.637089043012798,5.993118455477211 Q8.206514071459642,7.085753795919426,7.188329749707277,7.6710293551639195" stroke="#00FF00" fill="none" stroke-width="0.1" />
<use xlink:href="#d0" />
<path d="M2.0111696967972432,10.023956237729553 Q0.9871329938380546,10.572129625203065,-0.12068506472118043,10.223010188803785" stroke="#00FF00" fill="none" stroke-width="0.1" />
<use xlink:href="#d0" />
<path d="M9.096163033100847,6.71499966161894 Q8.888389942067247,7.438219796026479,8.21311300626058,7.770210880451456" stroke="#00FF00" fill="none" stroke-width="0.1" />
<use xlink:href="#d0" />
<path d="M10.199715396879768,0.6932889668241918 Q10.533432143095478,1.3501353192231984,10.044841065447462,1.9015813784233997" stroke="#00FF00" fill="none" stroke-width="0.1" />
<use xlink:href="#d0" />
<path d="M4.39490523834849,9.284615331526513 Q3.8212530413037067,9.766408130601139,3.072958152885029,9.801846871845" stroke="#00FF00" fill="none" stroke-width="0.1" />
<use xlink:href="#d0" />
<path d="M3.871220689648455,10.714522315726438 Q3.0527330771410575,11.369464822743586,2.0162681628285988,11.212582252885632" stroke="#00FF00" fill="none" stroke-width="0.1" />
<use xlink:href="#d0" />
<path d="M3.1960636240596676,9.9825026954938 Q2.7603192263721015,10.334430929184995,2.2071279445471497,10.246646719340795" stroke="#00FF00" fill="none" stroke-width="0.1" />
<use xlink:href="#d0" />
<path d="M10.31170447780418,0.2556086726175112 Q10.582364640669155,0.9756059562589635,10.184629854842173,1.633982787835173" stroke="#00FF00" fill="none" stroke-width="0.1" />
<use xlink:href="#d0" />
<path d="M6.800334314961179,8.945763083611425 Q6.464469928641656,9.559972404661165,5.769358956668837,9.642910409852856" stroke="#00FF00" fill="none" stroke-width="0.1" />
<use xlink:href="#d0" />
<path d="M5.682970457599616,8.956629365076791 Q4.873121501082401,9.719865039948775,3.7770383099340883,9.912181617111147" stroke="#00FF00" fill="none" stroke-width="0.1" />
<use xlink:href="#d0" />
<path d="M2.844413511290394,10.637694014066247 Q1.8810999076760717,11.217494348460662,0.7813446368400833,10.983657073971012" stroke="#00FF00" fill="none" stroke-width="0.1" />
<use xlink:href="#d0" />
<path d="M9.967639711061729,4.396360598698176 Q9.712904148462554,5.4613650695626195,8.935291525984745,6.232366586537232" stroke="#00FF00" fill="none" stroke-width="0.1" />
<use xlink:href="#d0" />
<path d="M7.024941867469078,8.452396270778957 Q6.2936737087626975,9.473811263494769,5.068662061209743,9.751998557672728" stroke="#00FF00" fill="none" stroke-width="0.1" />
<use xlink:href="#d0" />
<path d="M10.513054426803242,2.135187000269721 Q10.474585460373493,3.197434224635287,9.913259488057381,4.100076002891697" stroke="#00FF00" fill="none" stroke-width="0.1" />
<use xlink:href="#d0" />
<path d="M6.92739010467191,8.156612022926945 Q6.584754450245976,8.758992621879976,5.9108957591094855,8.92078273918854" stroke="#00FF00" fill="none" stroke-width="0.1" />
<use xlink:href="#d0" />
<path d="M3.103169263426476,10.128621292080293 Q2.5813342407940523,10.614082000053484,1.894839661565197,10.422485855726386" stroke="#00FF00" fill="none" stroke-width="0.1" />
<use xlink:href="#d0" />
<path d="M8.490596543853357,6.4880154521831574 Q7.996069644345923,7.561756113022344,6.951590234946207,8.115415416579891" stroke="#00FF00" fill="none" stroke-width="0.1" />
<use xlink:href="#d0" />
<path d="M9.433148511517404,5.7869667355988526 Q9.35231629808177,6.388571064288195,8.821302633065802,6.682656260435443" stroke="#00FF00" fill="none" stroke-width="0.1" />
<use xlink:href="#d0" />
<path d="M9.903891407972228,2.1672664422809533 Q10.046197993699856,2.7615178294416767,9.620139239965047,3.199535881409677" stroke="#00FF00" fill="none" stroke-width="0.1" />
<use xlink:href="#d0" />
<path d="M11.016443477658466,1.5228839490789126 Q11.219108522791839,2.194102885594107,10.77850804765226,2.7395194260127846" stroke="#00FF00" fill="none" stroke-width="0.1" />
<use xlink:href="#d0" />
<path d="M6.380806663988741,8.785624462236722 Q5.599464835667617,9.566303980569751,4.536197690893142,9.865333313365095" stroke="#00FF00" fill="none" stroke-width="0.1" />
<use xlink:href="#d0" />
<path d="M9.725460008720159,4.429994585597979 Q9.596162471113711,5.3808658153276,8.852319096793297,5.987142141138061" stroke="#00FF00" fill="none" stroke-width="0.1" />
<use xlink:href="#d0" />
<path d="M8.169301000201047,6.4284009896373115 Q7.973840198491081,7.093688635883668,7.3358348266678,7.365279730689365" stroke="#00FF00" fill="none" stroke-width="0.1" />
<use xlink:href="#d0" />
<path d="M9.434496788497455,5.840609803562412 Q9.37276465044017,6.409781037086581,8.864738766899698,6.67374401099291" stroke="#00FF00" fill="none" stroke-width="0.1" />
<use xlink:href="#d0" />
<path d="M1.060874623546425,11.340451314923667 Q0.14152285415310562,11.615916609256331,-0.7842673040492802,11.362931654676006" stroke="#00FF00" fill="none" stroke-width="0.1" />
<use xlink:href="#d0" />
<path d="M-5.835245049319328,9.456080228266295 Q-6.695652000558188,9.254972164633855,-7.15584403248183,8.500672576438209" stroke="#00FF00" fill="none" stroke-width="0.1" />
<use xlink:href="#d0" />
<path d="M-9.289260198471341,4.114759603450455 Q-10.002068845861864,3.229855080182967,-9.94141825012414,2.0951861027579977" stroke="#00FF00" fill="none" stroke-width="0.1" />
<use xlink:href="#d0" />
<path d="M-1.018282141878826,11.191509286142173 Q-2.1029820126361134,11.295395277639695,-3.0776157706700062,10.808101581239837" stroke="#00FF00" fill="none" stroke-width="0.1" />
<use xlink:href="#d0" />
<path d="M-7.4126068778321,7.535540400954995 Q-7.960513575405949,7.302204697135876,-8.145806052019298,6.736241802562797" stroke="#00FF00" fill="none" stroke-width="0.1" />
<use xlink:href="#d0" />
<path d="M-7.933694753647271,6.458029704989206 Q-8.478617435011605,6.1208266649322,-8.627143209738112,5.497459427157493" stroke="#00FF00" fill="none" stroke-width="0.1" />
<use xlink:href="#d0" />
<path d="M-9.094189665948804,6.244442256477207 Q-9.948314775347525,5.589069797586558,-10.063737709611416,4.5186865444367035" stroke="#00FF00" fill="none" stroke-width="0.1" />
<use xlink:href="#d0" />
<path d="M-9.987966141738077,3.712203080250723 Q-10.616200673676419,2.779504233648842,-10.525632098113308,1.658610349870036" stroke="#00FF00" fill="none" stroke-width="0.1" />
<use xlink:href="#d0" />
<path d="M-10.48428164323823,2.677185414199039 Q-10.993482087996663,1.9642131544417085,-10.762679431981471,1.1190240217015857" stroke="#00FF00" fill="none" stroke-width="0.1" />
<use xlink:href="#d0" />
<path d="M-3.645731323522043,10.347474501019368 Q-4.6692392858615195,10.160146292606521,-5.47796051449195,9.505447597784277" stroke="#00FF00" fill="none" stroke-width="0.1" />
<use xlink:href="#d0" />
<path d="M1.035053236737553,10.957043872059746 Q-0.18369835832169887,11.291073755044692,-1.3909389199142586,10.917574572137836" stroke="#00FF00" fill="none" stroke-width="0.1" />
<use xlink:href="#d0" />
<path d="M-8.853477147835665,6.805030213559861 Q-9.845519225000345,5.990032433246865,-10.113268544851715,4.734373575714509" stroke="#00FF00" fill="none" stroke-width="0.1" />
<use xlink:href="#d0" />
<path d="M0.7937675393775875,10.310255738126234 Q-0.11899324559681326,10.54724031035054,-1.0261750971094612,10.289723269466815" stroke="#00FF00" fill="none" stroke-width="0.1" />
<use xlink:href="#d0" />
<path d="M0.2373822702514227,10.658382016490808 Q-0.625870166673466,10.857224629859434,-1.4605555848095222,10.560503536070906" stroke="#00FF00" fill="none" stroke-width="0.1" />
<use xlink:href="#d0" />
<path d="M-10.275387518415673,2.1854113374595485 Q-10.745335783055582,1.1933459512840117,-10.504505862377902,0.12234359312037889" stroke="#00FF00" fill="none" stroke-width="0.1" />
<use xlink:href="#d0" />
<path d="M-11.07556964035097,1.8903831725178248 Q-11.462325380005073,0.6810195872392244,-11.22149065013495,-0.5656314932326528" stroke="#00FF00" fill="none" stroke-width="0.1" />
<use xlink:href="#d0" />
<path d="M-6.048854274369333,9.169264705563846 Q-7.102694759885719,8.894928252500135,-7.603429403200683,7.927919940551764" stroke="#00FF00" fill="none" stroke-width="0.1" />
<use xlink:href="#d0" />
<path d="M-0.6905778938077649,10.14312378811421 Q-1.5523187644074485,10.25373227882028,-2.342704187180361,9.893007383995624" stroke="#00FF00" fill="none" stroke-width="0.1" />
<use xlink:href="#d0" />
<path d="M-6.667130656096222,8.813747132794333 Q-7.772767919401738,8.30226373070966,-8.355900904474057,7.232682059990469" stroke="#00FF00" fill="none" stroke-width="0.1" />
<use xlink:href="#d0" />
<path d="M-4.857746056298595,10.157087922666184 Q-5.726098370911417,10.115470038300126,-6.208677131118777,9.392361795511208" stroke="#00FF00" fill="none" stroke-width="0.1" />
<use xlink:href="#d0" />
<path d="M-8.70114644818626,6.299583094780371 Q-9.30712828314824,5.994057856240845,-9.334621818991703,5.315969542541701" stroke="#00FF00" fill="none" stroke-width="0.1" />
<use xlink:href="#d0" />
<path d="M-1.6672225819312172,10.187655446729325 Q-2.373631098040016,10.451722250388698,-2.89668689952961,9.908438809674742" stroke="#00FF00" fill="none" stroke-width="0.1" />
<use xlink:href="#d0" />
<path d="M-9.583463250843952,3.666671419952579 Q-10.172804975955929,3.15471040421986,-9.976544880781928,2.3991247203756445" stroke="#00FF00" fill="none" stroke-width="0.1" />
<use xlink:href="#d0" />
<path d="M-9.074420738260317,4.755684825375617 Q-9.518904628689079,4.453415509696746,-9.466101638813585,3.918490737124125" stroke="#00FF00" fill="none" stroke-width="0.1" />
<use xlink:href="#d0" />
<path d="M-2.7620727502079365,10.146998191524691 Q-3.8658106670684185,10.141036500321606,-4.693434158388034,9.410754166225097" stroke="#00FF00" fill="none" stroke-width="0.1" />
<use xlink:href="#d0" />
<path d="M-0.38577903477360037,10.486478135724468 Q-1.0855359102930742,10.744220120742396,-1.719595633443703,10.351716766418" stroke="#00FF00" fill="none" stroke-width="0.1" />
<use xlink:href="#d0" />
<path d="M-7.6679794567940815,6.747277385855147 Q-8.334214135504268,6.405510741508346,-8.493054871795799,5.673771234034201" stroke="#00FF00" fill="none" stroke-width="0.1" />
<use xlink:href="#d0" />
<path d="M-10.496744807464285,4.006558885330706 Q-11.14041147841551,2.9451822873652427,-11.105371075411997,1.704376405625664" stroke="#00FF00" fill="none" stroke-width="0.1" />
<use xlink:href="#d0" />
<path d="M0.09578576817732035,10.34022937704787 Q-0.8850448496077556,10.687639130472416,-1.7953687422870168,10.183622614893379" stroke="#00FF00" fill="none" stroke-width="0.1" />
<use xlink:href="#d0" />
<path d="M-7.399819168831974,6.987685520569577 Q-8.015284479845377,6.621060938522855,-8.259114258690865,5.947445193331343" stroke="#00FF00" fill="none" stroke-width="0.1" />
<use xlink:href="#d0" />
</svg>