<?xml version="1.0" encoding="UTF-8"?>
<svg xmlns="http://www.w3.org/2000/svg" xmlns:xlink="http://www.w3.org/1999/xlink"
     width="28.0" height="76.5" viewBox="0 -38.25 28.0 76.5" displayInline="False">
<defs>
</defs>
<rect x="0" y="-28.25" width="8.0" height="56.5" rx="0" fill="#FFFFFF" stroke="red" stroke-width="0.1" />
<path d="M4.0,-27.887855585378947 L4.0,-27.241019168115134" stroke="black" stroke-width="0.05" />
<path d="M5.030927835051546,-27.953904769716313 L5.030927835051546,-27.209512587932117" stroke="black" stroke-width="0.05" />
<path d="M6.030519426541048,-27.772888032699193 L6.030519426541048,-27.022864015847382" stroke="black" stroke-width="0.05" />
<path d="M4.0,-25.799849947779297 L4.0,-25.22527551652917" stroke="black" stroke-width="0.05" />
<path d="M5.030927835051546,-25.80968435520372 L5.030927835051546,-25.19736786792569" stroke="black" stroke-width="0.05" />
<path d="M6.030519426541048,-25.99233955461956 L6.030519426541048,-25.066300514705475" stroke="black" stroke-width="0.05" />
<path d="M4.0,-23.851981504182675 L4.0,-23.07593530647655" stroke="black" stroke-width="0.05" />
<path d="M5.030927835051546,-23.78264713968028 L5.030927835051546,-23.095803010228988" stroke="black" stroke-width="0.05" />
<path d="M6.030519426541048,-23.832238424339135 L6.030519426541048,-23.07834305749349" stroke="black" stroke-width="0.05" />
<path d="M4.0,-21.92018997593519 L4.0,-21.102461079866963" stroke="black" stroke-width="0.05" />
<path d="M5.030927835051546,-21.80323032209386 L5.030927835051546,-21.09943795630468" stroke="black" stroke-width="0.05" />
<path d="M6.030519426541048,-21.918342221323726 L6.030519426541048,-21.046428187539544" stroke="black" stroke-width="0.05" />
<path d="M4.0,-19.90632865255765 L4.0,-19.19035651540794" stroke="black" stroke-width="0.05" />
<path d="M5.030927835051546,-19.795764141768196 L5.030927835051546,-19.09034262268" stroke="black" stroke-width="0.05" />
<path d="M6.030519426541048,-19.7805237274134 L6.030519426541048,-19.05683203838422" stroke="black" stroke-width="0.05" />
<path d="M4.0,-17.961232304452217 L4.0,-17.235034338688756" stroke="black" stroke-width="0.05" />
<path d="M5.030927835051546,-17.933179970719774 L5.030927835051546,-17.016208265923858" stroke="black" stroke-width="0.05" />
<path d="M6.030519426541048,-17.902420662472675 L6.030519426541048,-17.243545883943437" stroke="black" stroke-width="0.05" />
<path d="M4.0,-15.892941648506032 L4.0,-15.216106745004375" stroke="black" stroke-width="0.05" />
<path d="M5.030927835051546,-15.801752940114753 L5.030927835051546,-15.076197806462938" stroke="black" stroke-width="0.05" />
<path d="M6.030519426541048,-15.959786464964168 L6.030519426541048,-15.241116670272428" stroke="black" stroke-width="0.05" />
<path d="M4.0,-13.81765425089324 L4.0,-13.14065820790879" stroke="black" stroke-width="0.05" />
<path d="M5.030927835051546,-13.775301444701991 L5.030927835051546,-13.096175801550665" stroke="black" stroke-width="0.05" />
<path d="M6.030519426541048,-13.899192575821132 L6.030519426541048,-13.239516270467538" stroke="black" stroke-width="0.05" />
<path d="M4.0,-11.759234981141649 L4.0,-11.166290008715663" stroke="black" stroke-width="0.05" />
<path d="M5.030927835051546,-11.87836022516377 L5.030927835051546,-11.214753664057419" stroke="black" stroke-width="0.05" />
<path d="M6.030519426541048,-11.860555193798735 L6.030519426541048,-11.056801571049494" stroke="black" stroke-width="0.05" />
<path d="M4.0,-9.971837163823928 L4.0,-9.101768692733366" stroke="black" stroke-width="0.05" />
<path d="M5.030927835051546,-9.906460265340634 L5.030927835051546,-9.030192131969965" stroke="black" stroke-width="0.05" />
<path d="M6.030519426541048,-9.876114535775503 L6.030519426541048,-9.033748178517264" stroke="black" stroke-width="0.05" />
<path d="M4.0,-7.802981423013313 L4.0,-7.174453820614729" stroke="black" stroke-width="0.05" />
<path d="M5.030927835051546,-7.8958828753556025 L5.030927835051546,-7.083866615294483" stroke="black" stroke-width="0.05" />
<path d="M6.030519426541048,-7.985579300460971 L6.030519426541048,-7.028872171617273" stroke="black" stroke-width="0.05" />
<path d="M4.0,-5.953186358739372 L4.0,-5.099255004216052" stroke="black" stroke-width="0.05" />
<path d="M5.030927835051546,-5.907727950257707 L5.030927835051546,-5.02820037999305" stroke="black" stroke-width="0.05" />
<path d="M6.030519426541048,-5.8863644407062985 L6.030519426541048,-5.230492305754975" stroke="black" stroke-width="0.05" />
<path d="M4.0,-3.828781976309801 L4.0,-3.226564984747131" stroke="black" stroke-width="0.05" />
<path d="M5.030927835051546,-3.7534949340034127 L5.030927835051546,-3.156157754024488" stroke="black" stroke-width="0.05" />
<path d="M6.030519426541048,-3.951604568035302 L6.030519426541048,-3.075707133424517" stroke="black" stroke-width="0.05" />
<path d="M4.0,-1.9241927901496036 L4.0,-1.0024126380208915" stroke="black" stroke-width="0.05" />
<path d="M5.030927835051546,-1.9963467230789658 L5.030927835051546,-1.111859376843702" stroke="black" stroke-width="0.05" />
<path d="M6.030519426541048,-1.9360954675240114 L6.030519426541048,-1.0755786695808784" stroke="black" stroke-width="0.05" />
<path d="M4.0,0.14399673439958538 L4.0,0.9547827249605773" stroke="black" stroke-width="0.05" />
<path d="M5.030927835051546,0.1389076379291811 L5.030927835051546,0.8089017274590868" stroke="black" stroke-width="0.05" />
<path d="M6.030519426541048,0.13348383531081504 L6.030519426541048,0.9075186633305528" stroke="black" stroke-width="0.05" />
<path d="M4.0,2.0209954858111856 L4.0,2.7902851716261288" stroke="black" stroke-width="0.05" />
<path d="M5.030927835051546,2.068931036131988 L5.030927835051546,2.8547922336036726" stroke="black" stroke-width="0.05" />
<path d="M6.030519426541048,2.2383664539137484 L6.030519426541048,2.8958083004157373" stroke="black" stroke-width="0.05" />
<path d="M4.0,4.075248262792788 L4.0,4.850582132162251" stroke="black" stroke-width="0.05" />
<path d="M5.030927835051546,4.141023684790086 L5.030927835051546,4.984172054866107" stroke="black" stroke-width="0.05" />
<path d="M6.030519426541048,4.156963765670807 L6.030519426541048,4.8002750059404455" stroke="black" stroke-width="0.05" />
<path d="M4.0,6.205345036128088 L4.0,6.949075903557888" stroke="black" stroke-width="0.05" />
<path d="M5.030927835051546,6.172852945169226 L5.030927835051546,6.938701302104408" stroke="black" stroke-width="0.05" />
<path d="M6.030519426541048,6.057673794377873 L6.030519426541048,6.832340579755285" stroke="black" stroke-width="0.05" />
<path d="M4.0,8.015014600935137 L4.0,8.976441219544535" stroke="black" stroke-width="0.05" />
<path d="M5.030927835051546,8.086620416653611 L5.030927835051546,8.84357004296412" stroke="black" stroke-width="0.05" />
<path d="M6.030519426541048,8.115973443673134 L6.030519426541048,8.84260863672338" stroke="black" stroke-width="0.05" />
<path d="M4.0,10.157353803552112 L4.0,10.871974481637368" stroke="black" stroke-width="0.05" />
<path d="M5.030927835051546,10.202330992654893 L5.030927835051546,10.780191998258823" stroke="black" stroke-width="0.05" />
<path d="M6.030519426541048,10.058956688368314 L6.030519426541048,10.840904371281987" stroke="black" stroke-width="0.05" />
<path d="M4.0,12.05877777673912 L4.0,12.88193912198053" stroke="black" stroke-width="0.05" />
<path d="M5.030927835051546,12.207601234738998 L5.030927835051546,12.862059380601405" stroke="black" stroke-width="0.05" />
<path d="M6.030519426541048,12.220230250228395 L6.030519426541048,12.95925684789246" stroke="black" stroke-width="0.05" />
<path d="M4.0,14.189759738360436 L4.0,14.98093249625682" stroke="black" stroke-width="0.05" />
<path d="M5.030927835051546,14.121236046353232 L5.030927835051546,14.801990222149568" stroke="black" stroke-width="0.05" />
<path d="M6.030519426541048,14.085101534558714 L6.030519426541048,14.872806955265515" stroke="black" stroke-width="0.05" />
<path d="M4.0,16.005529039024516 L4.0,16.88950534339446" stroke="black" stroke-width="0.05" />
<path d="M5.030927835051546,16.175013719865692 L5.030927835051546,16.844245722999545" stroke="black" stroke-width="0.05" />
<path d="M6.030519426541048,16.046816880855932 L6.030519426541048,16.93048518887531" stroke="black" stroke-width="0.05" />
<path d="M4.0,18.218041093148827 L4.0,18.802168801978496" stroke="black" stroke-width="0.05" />
<path d="M5.030927835051546,18.043009007976917 L5.030927835051546,18.82160689618494" stroke="black" stroke-width="0.05" />
<path d="M6.030519426541048,18.21460354766621 L6.030519426541048,18.912097831222734" stroke="black" stroke-width="0.05" />
<path d="M4.0,20.0154221249285 L4.0,20.82705794496177" stroke="black" stroke-width="0.05" />
<path d="M5.030927835051546,20.162752832659095 L5.030927835051546,20.973348882798817" stroke="black" stroke-width="0.05" />
<path d="M6.030519426541048,20.005704335534638 L6.030519426541048,20.83016324859851" stroke="black" stroke-width="0.05" />
<path d="M4.0,22.180148169038397 L4.0,22.814953480965922" stroke="black" stroke-width="0.05" />
<path d="M5.030927835051546,22.167777524617748 L5.030927835051546,22.88611712729988" stroke="black" stroke-width="0.05" />
<path d="M6.030519426541048,22.001799430166233 L6.030519426541048,22.855186491329793" stroke="black" stroke-width="0.05" />
<path d="M4.0,24.142395305112963 L4.0,24.993715655825103" stroke="black" stroke-width="0.05" />
<path d="M5.030927835051546,24.0038549773483 L5.030927835051546,24.79321194161927" stroke="black" stroke-width="0.05" />
<path d="M6.030519426541048,24.09939679704928 L6.030519426541048,24.75651977098202" stroke="black" stroke-width="0.05" />
<path d="M4.0,26.19786265193158 L4.0,26.98616160926391" stroke="black" stroke-width="0.05" />
<path d="M5.030927835051546,26.11193757265226 L5.030927835051546,26.914003084943726" stroke="black" stroke-width="0.05" />
<path d="M6.030519426541048,26.110237729189404 L6.030519426541048,26.761740909656865" stroke="black" stroke-width="0.05" />
<path d="M4.515463917525773,-26.759270978405535 L4.515463917525773,-26.215124551828822" stroke="black" stroke-width="0.05" />
<path d="M5.526043215771334,-26.938546763036186 L5.526043215771334,-26.021365911358842" stroke="black" stroke-width="0.05" />
<path d="M6.52333588876633,-26.898163954512313 L6.52333588876633,-26.023189895482975" stroke="black" stroke-width="0.05" />
<path d="M4.515463917525773,-24.940964065319378 L4.515463917525773,-24.113578368788808" stroke="black" stroke-width="0.05" />
<path d="M5.526043215771334,-24.86604620300374 L5.526043215771334,-24.083806906025796" stroke="black" stroke-width="0.05" />
<path d="M6.52333588876633,-24.942385075204776 L6.52333588876633,-24.10437659790538" stroke="black" stroke-width="0.05" />
<path d="M4.515463917525773,-22.957918208448397 L4.515463917525773,-22.04554187447935" stroke="black" stroke-width="0.05" />
<path d="M5.526043215771334,-22.782160563519067 L5.526043215771334,-22.0269602185007" stroke="black" stroke-width="0.05" />
<path d="M6.52333588876633,-22.78771616221642 L6.52333588876633,-22.19797310871796" stroke="black" stroke-width="0.05" />
<path d="M4.515463917525773,-20.8626910573561 L4.515463917525773,-20.071097705742364" stroke="black" stroke-width="0.05" />
<path d="M5.526043215771334,-20.76469917768211 L5.526043215771334,-20.207594256152166" stroke="black" stroke-width="0.05" />
<path d="M6.52333588876633,-20.96201042860384 L6.52333588876633,-20.098741899153154" stroke="black" stroke-width="0.05" />
<path d="M4.515463917525773,-18.844690492415012 L4.515463917525773,-18.02879852919671" stroke="black" stroke-width="0.05" />
<path d="M5.526043215771334,-18.905436329484896 L5.526043215771334,-18.02857744061406" stroke="black" stroke-width="0.05" />
<path d="M6.52333588876633,-18.752971196944333 L6.52333588876633,-18.085044552127567" stroke="black" stroke-width="0.05" />
<path d="M4.515463917525773,-16.90980193912474 L4.515463917525773,-16.246460007883904" stroke="black" stroke-width="0.05" />
<path d="M5.526043215771334,-16.77158076472551 L5.526043215771334,-16.079854872199753" stroke="black" stroke-width="0.05" />
<path d="M6.52333588876633,-16.971019771039977 L6.52333588876633,-16.16949398947068" stroke="black" stroke-width="0.05" />
<path d="M4.515463917525773,-14.99751260264053 L4.515463917525773,-14.089257476476785" stroke="black" stroke-width="0.05" />
<path d="M5.526043215771334,-14.933068402320174 L5.526043215771334,-14.221846997269552" stroke="black" stroke-width="0.05" />
<path d="M6.52333588876633,-14.911368103893706 L6.52333588876633,-14.035450345366566" stroke="black" stroke-width="0.05" />
<path d="M4.515463917525773,-12.835552423135056 L4.515463917525773,-12.051860978784555" stroke="black" stroke-width="0.05" />
<path d="M5.526043215771334,-12.872565875362783 L5.526043215771334,-12.003369471950998" stroke="black" stroke-width="0.05" />
<path d="M6.52333588876633,-12.992695869628148 L6.52333588876633,-12.145933194077354" stroke="black" stroke-width="0.05" />
<path d="M4.515463917525773,-10.779104169996529 L4.515463917525773,-10.239872803672565" stroke="black" stroke-width="0.05" />
<path d="M5.526043215771334,-10.885739845531694 L5.526043215771334,-10.172136688217176" stroke="black" stroke-width="0.05" />
<path d="M6.52333588876633,-10.848281682464963 L6.52333588876633,-10.037640838757607" stroke="black" stroke-width="0.05" />
<path d="M4.515463917525773,-8.850291559739954 L4.515463917525773,-8.129315389054181" stroke="black" stroke-width="0.05" />
<path d="M5.526043215771334,-8.823589975551977 L5.526043215771334,-8.130100802094494" stroke="black" stroke-width="0.05" />
<path d="M6.52333588876633,-8.982676112973284 L6.52333588876633,-8.228774949400705" stroke="black" stroke-width="0.05" />
<path d="M4.515463917525773,-6.957720974016612 L4.515463917525773,-6.064058235752224" stroke="black" stroke-width="0.05" />
<path d="M5.526043215771334,-6.992111865291831 L5.526043215771334,-6.1213732357053185" stroke="black" stroke-width="0.05" />
<path d="M6.52333588876633,-6.8039561064094505 L6.52333588876633,-6.069523679471894" stroke="black" stroke-width="0.05" />
<path d="M4.515463917525773,-4.9685145576097165 L4.515463917525773,-4.171474419439109" stroke="black" stroke-width="0.05" />
<path d="M5.526043215771334,-4.753204494511557 L5.526043215771334,-4.114876545958981" stroke="black" stroke-width="0.05" />
<path d="M6.52333588876633,-4.972218164191363 L6.52333588876633,-4.123705467115519" stroke="black" stroke-width="0.05" />
<path d="M4.515463917525773,-2.9027963527209875 L4.515463917525773,-2.203691024412654" stroke="black" stroke-width="0.05" />
<path d="M5.526043215771334,-2.9374497345123785 L5.526043215771334,-2.1918739974522112" stroke="black" stroke-width="0.05" />
<path d="M6.52333588876633,-2.950837410059444 L6.52333588876633,-2.0955844279297424" stroke="black" stroke-width="0.05" />
<path d="M4.515463917525773,-0.8042045036673638 L4.515463917525773,-0.04007589490172947" stroke="black" stroke-width="0.05" />
<path d="M5.526043215771334,-0.7515898886542733 L5.526043215771334,-0.19246543565927854" stroke="black" stroke-width="0.05" />
<path d="M6.52333588876633,-0.9410744856612684 L6.52333588876633,-0.06552470205483962" stroke="black" stroke-width="0.05" />
<path d="M4.515463917525773,1.0917539343444473 L4.515463917525773,1.9901375543553164" stroke="black" stroke-width="0.05" />
<path d="M5.526043215771334,1.0116899721391142 L5.526043215771334,1.862838032601498" stroke="black" stroke-width="0.05" />
<path d="M6.52333588876633,1.1246534702428703 L6.52333588876633,1.8242323655903367" stroke="black" stroke-width="0.05" />
<path d="M4.515463917525773,3.239367174341766 L4.515463917525773,3.8000839447644594" stroke="black" stroke-width="0.05" />
<path d="M5.526043215771334,3.1722620879937686 L5.526043215771334,3.778218046083695" stroke="black" stroke-width="0.05" />
<path d="M6.52333588876633,3.1416731183981015 L6.52333588876633,3.885918482023556" stroke="black" stroke-width="0.05" />
<path d="M4.515463917525773,5.116885396111388 L4.515463917525773,5.844527270486402" stroke="black" stroke-width="0.05" />
<path d="M5.526043215771334,5.004614699946835 L5.526043215771334,5.931518407824041" stroke="black" stroke-width="0.05" />
<path d="M6.52333588876633,5.135992120436147 L6.52333588876633,5.9014660959688765" stroke="black" stroke-width="0.05" />
<path d="M4.515463917525773,7.161383376015358 L4.515463917525773,7.831106671779742" stroke="black" stroke-width="0.05" />
<path d="M5.526043215771334,7.024282484893925 L5.526043215771334,7.8641943226610715" stroke="black" stroke-width="0.05" />
<path d="M6.52333588876633,7.23169885822601 L6.52333588876633,7.762402268922417" stroke="black" stroke-width="0.05" />
<path d="M4.515463917525773,9.076627735828374 L4.515463917525773,9.77134929705063" stroke="black" stroke-width="0.05" />
<path d="M5.526043215771334,9.114045158477163 L5.526043215771334,9.765088319819471" stroke="black" stroke-width="0.05" />
<path d="M6.52333588876633,9.138040327250332 L6.52333588876633,9.970527260090883" stroke="black" stroke-width="0.05" />
<path d="M4.515463917525773,11.036257680304331 L4.515463917525773,11.878243481299057" stroke="black" stroke-width="0.05" />
<path d="M5.526043215771334,11.049717516122637 L5.526043215771334,11.861084088725407" stroke="black" stroke-width="0.05" />
<path d="M6.52333588876633,11.068850671704103 L6.52333588876633,11.811365992289126" stroke="black" stroke-width="0.05" />
<path d="M4.515463917525773,13.150394876330013 L4.515463917525773,13.973703233336398" stroke="black" stroke-width="0.05" />
<path d="M5.526043215771334,13.10734010806215 L5.526043215771334,13.899643421097338" stroke="black" stroke-width="0.05" />
<path d="M6.52333588876633,13.154813532266488 L6.52333588876633,13.991977533011445" stroke="black" stroke-width="0.05" />
<path d="M4.515463917525773,15.217932165183546 L4.515463917525773,15.855009802545043" stroke="black" stroke-width="0.05" />
<path d="M5.526043215771334,15.176329803412077 L5.526043215771334,15.992961637927982" stroke="black" stroke-width="0.05" />
<path d="M6.52333588876633,15.075294502942798 L6.52333588876633,15.850093948253107" stroke="black" stroke-width="0.05" />
<path d="M4.515463917525773,17.154079316423328 L4.515463917525773,17.84559195382572" stroke="black" stroke-width="0.05" />
<path d="M5.526043215771334,17.232378935298918 L5.526043215771334,17.769440605729137" stroke="black" stroke-width="0.05" />
<path d="M6.52333588876633,17.21886117624058 L6.52333588876633,17.839401993169847" stroke="black" stroke-width="0.05" />
<path d="M4.515463917525773,19.138600312531374 L4.515463917525773,19.79985040506517" stroke="black" stroke-width="0.05" />
<path d="M5.526043215771334,19.06679766415631 L5.526043215771334,19.941801674724484" stroke="black" stroke-width="0.05" />
<path d="M6.52333588876633,19.214065574978903 L6.52333588876633,19.84140980097306" stroke="black" stroke-width="0.05" />
<path d="M4.515463917525773,21.10738764511108 L4.515463917525773,21.974746906532456" stroke="black" stroke-width="0.05" />
<path d="M5.526043215771334,21.141064719098992 L5.526043215771334,21.94450642475035" stroke="black" stroke-width="0.05" />
<path d="M6.52333588876633,21.14146649653359 L6.52333588876633,21.777896961671544" stroke="black" stroke-width="0.05" />
<path d="M4.515463917525773,23.184164905676866 L4.515463917525773,23.98141888993688" stroke="black" stroke-width="0.05" />
<path d="M5.526043215771334,23.00766613867012 L5.526043215771334,23.8678294564093" stroke="black" stroke-width="0.05" />
<path d="M6.52333588876633,23.09645665270617 L6.52333588876633,23.7728235190294" stroke="black" stroke-width="0.05" />
<path d="M4.515463917525773,25.07825531240157 L4.515463917525773,25.90379779428006" stroke="black" stroke-width="0.05" />
<path d="M5.526043215771334,25.13534282061491 L5.526043215771334,25.87895032202379" stroke="black" stroke-width="0.05" />
<path d="M6.52333588876633,25.18094210797839 L6.52333588876633,25.863508655149406" stroke="black" stroke-width="0.05" />
<path d="M4.515463917525773,27.21168335712807 L4.515463917525773,27.994227284405753" stroke="black" stroke-width="0.05" />
<path d="M5.526043215771334,27.126583294833708 L5.526043215771334,27.878518980350464" stroke="black" stroke-width="0.05" />
<path d="M6.52333588876633,27.11196650004335 L6.52333588876633,27.963933717865686" stroke="black" stroke-width="0.05" />
<path d="M2.9690721649484537,-27.94205063125882 L2.9690721649484537,-27.245085036565236" stroke="black" stroke-width="0.05" />
<path d="M1.9694805734589522,-27.89405391972119 L1.9694805734589522,-27.085121214654997" stroke="black" stroke-width="0.05" />
<path d="M2.9690721649484537,-25.912627698160158 L2.9690721649484537,-25.038945876884267" stroke="black" stroke-width="0.05" />
<path d="M1.9694805734589522,-25.925832797224064 L1.9694805734589522,-25.21385575237172" stroke="black" stroke-width="0.05" />
<path d="M2.9690721649484537,-23.89534454910316 L2.9690721649484537,-23.19350176132001" stroke="black" stroke-width="0.05" />
<path d="M1.9694805734589522,-23.8480307941284 L1.9694805734589522,-23.11943855736387" stroke="black" stroke-width="0.05" />
<path d="M2.9690721649484537,-21.798676210555808 L2.9690721649484537,-21.049428608262943" stroke="black" stroke-width="0.05" />
<path d="M1.9694805734589522,-21.88774192927517 L1.9694805734589522,-21.03867044410609" stroke="black" stroke-width="0.05" />
<path d="M2.9690721649484537,-19.800772462998513 L2.9690721649484537,-19.057413517434615" stroke="black" stroke-width="0.05" />
<path d="M1.9694805734589522,-19.766862825121166 L1.9694805734589522,-19.19445190943117" stroke="black" stroke-width="0.05" />
<path d="M2.9690721649484537,-17.901259557251464 L2.9690721649484537,-17.044864921738405" stroke="black" stroke-width="0.05" />
<path d="M1.9694805734589522,-17.86913370871268 L1.9694805734589522,-17.017690093381574" stroke="black" stroke-width="0.05" />
<path d="M2.9690721649484537,-15.800178864279074 L2.9690721649484537,-15.143335292478483" stroke="black" stroke-width="0.05" />
<path d="M1.9694805734589522,-15.987927821407697 L1.9694805734589522,-15.077568390405169" stroke="black" stroke-width="0.05" />
<path d="M2.9690721649484537,-13.938407416189643 L2.9690721649484537,-13.192195474327116" stroke="black" stroke-width="0.05" />
<path d="M1.9694805734589522,-13.830041848006003 L1.9694805734589522,-13.224743926906964" stroke="black" stroke-width="0.05" />
<path d="M2.9690721649484537,-11.92597437999588 L2.9690721649484537,-11.182050922544605" stroke="black" stroke-width="0.05" />
<path d="M1.9694805734589522,-11.768744813874642 L1.9694805734589522,-11.169886954606485" stroke="black" stroke-width="0.05" />
<path d="M2.9690721649484537,-9.755693687068364 L2.9690721649484537,-9.092784939991164" stroke="black" stroke-width="0.05" />
<path d="M1.9694805734589522,-9.88668339711419 L1.9694805734589522,-9.162506342820015" stroke="black" stroke-width="0.05" />
<path d="M2.9690721649484537,-7.90691596745952 L2.9690721649484537,-7.18535988613685" stroke="black" stroke-width="0.05" />
<path d="M1.9694805734589522,-7.898104619565124 L1.9694805734589522,-7.068031655677565" stroke="black" stroke-width="0.05" />
<path d="M2.9690721649484537,-5.836514427642004 L2.9690721649484537,-5.180689495446159" stroke="black" stroke-width="0.05" />
<path d="M1.9694805734589522,-5.987887779577488 L1.9694805734589522,-5.176376259193926" stroke="black" stroke-width="0.05" />
<path d="M2.9690721649484537,-3.8034029035718557 L2.9690721649484537,-3.1408960769325356" stroke="black" stroke-width="0.05" />
<path d="M1.9694805734589522,-3.997860311747316 L1.9694805734589522,-3.029997453935011" stroke="black" stroke-width="0.05" />
<path d="M2.9690721649484537,-1.8019460146378155 L2.9690721649484537,-1.046769253609463" stroke="black" stroke-width="0.05" />
<path d="M1.9694805734589522,-1.8100484434896265 L1.9694805734589522,-1.0873227062863324" stroke="black" stroke-width="0.05" />
<path d="M2.9690721649484537,0.1784909753905385 L2.9690721649484537,0.8933884942560821" stroke="black" stroke-width="0.05" />
<path d="M1.9694805734589522,0.1053153263508852 L1.9694805734589522,0.8055864015691785" stroke="black" stroke-width="0.05" />
<path d="M2.9690721649484537,2.202410179986008 L2.9690721649484537,2.891674557911475" stroke="black" stroke-width="0.05" />
<path d="M1.9694805734589522,2.0762268522258807 L1.9694805734589522,2.9711033534548537" stroke="black" stroke-width="0.05" />
<path d="M2.9690721649484537,4.031445876573424 L2.9690721649484537,4.976940057525559" stroke="black" stroke-width="0.05" />
<path d="M1.9694805734589522,4.2033180732517 L1.9694805734589522,4.9465780046514745" stroke="black" stroke-width="0.05" />
<path d="M2.9690721649484537,6.021141338931865 L2.9690721649484537,6.881196772494445" stroke="black" stroke-width="0.05" />
<path d="M1.9694805734589522,6.215762651925234 L1.9694805734589522,6.970329439927403" stroke="black" stroke-width="0.05" />
<path d="M2.9690721649484537,8.132706285598417 L2.9690721649484537,8.855476036607259" stroke="black" stroke-width="0.05" />
<path d="M1.9694805734589522,8.131988772043655 L1.9694805734589522,8.779450220653748" stroke="black" stroke-width="0.05" />
<path d="M2.9690721649484537,10.226810259385857 L2.9690721649484537,10.980943573872374" stroke="black" stroke-width="0.05" />
<path d="M1.9694805734589522,10.11145375797667 L1.9694805734589522,10.817030882944277" stroke="black" stroke-width="0.05" />
<path d="M2.9690721649484537,12.027262810476811 L2.9690721649484537,12.857997169564028" stroke="black" stroke-width="0.05" />
<path d="M1.9694805734589522,12.050010528131162 L1.9694805734589522,12.961315603694647" stroke="black" stroke-width="0.05" />
<path d="M2.9690721649484537,14.13969971622026 L2.9690721649484537,14.871897206481483" stroke="black" stroke-width="0.05" />
<path d="M1.9694805734589522,14.046695481496267 L1.9694805734589522,14.772010743044527" stroke="black" stroke-width="0.05" />
<path d="M2.9690721649484537,16.10523891857387 L2.9690721649484537,16.95783377106318" stroke="black" stroke-width="0.05" />
<path d="M1.9694805734589522,16.18621936127223 L1.9694805734589522,16.75377192569984" stroke="black" stroke-width="0.05" />
<path d="M2.9690721649484537,18.172343192053564 L2.9690721649484537,18.77939399009559" stroke="black" stroke-width="0.05" />
<path d="M1.9694805734589522,18.232159071136152 L1.9694805734589522,18.796071746484877" stroke="black" stroke-width="0.05" />
<path d="M2.9690721649484537,20.218875559891675 L2.9690721649484537,20.968632127603883" stroke="black" stroke-width="0.05" />
<path d="M1.9694805734589522,20.018569237719674 L1.9694805734589522,20.773927524537157" stroke="black" stroke-width="0.05" />
<path d="M2.9690721649484537,22.017289500395727 L2.9690721649484537,22.881099664000832" stroke="black" stroke-width="0.05" />
<path d="M1.9694805734589522,22.11330164692166 L1.9694805734589522,22.86754905973967" stroke="black" stroke-width="0.05" />
<path d="M2.9690721649484537,24.15357106643741 L2.9690721649484537,24.997557877873742" stroke="black" stroke-width="0.05" />
<path d="M1.9694805734589522,24.0177346032576 L1.9694805734589522,24.921346689370836" stroke="black" stroke-width="0.05" />
<path d="M2.9690721649484537,26.24695859584228 L2.9690721649484537,26.760903817796894" stroke="black" stroke-width="0.05" />
<path d="M1.9694805734589522,26.23689150668585 L1.9694805734589522,26.9750812820752" stroke="black" stroke-width="0.05" />
<path d="M3.484536082474227,-26.94117061439111 L3.484536082474227,-26.067057039641455" stroke="black" stroke-width="0.05" />
<path d="M2.4739567842286663,-26.87801486433316 L2.4739567842286663,-26.190668772568714" stroke="black" stroke-width="0.05" />
<path d="M1.4766641112336698,-26.757608413350336 L1.4766641112336698,-26.085541050420158" stroke="black" stroke-width="0.05" />
<path d="M3.484536082474227,-24.995228329313388 L3.484536082474227,-24.12034089975564" stroke="black" stroke-width="0.05" />
<path d="M2.4739567842286663,-24.821559581127868 L2.4739567842286663,-24.022128238297448" stroke="black" stroke-width="0.05" />
<path d="M1.4766641112336698,-24.93534617053852 L1.4766641112336698,-24.11605303754349" stroke="black" stroke-width="0.05" />
<path d="M3.484536082474227,-22.836740856496696 L3.484536082474227,-22.019655438646414" stroke="black" stroke-width="0.05" />
<path d="M2.4739567842286663,-22.932939993254735 L2.4739567842286663,-22.034160019959028" stroke="black" stroke-width="0.05" />
<path d="M1.4766641112336698,-22.888805945031162 L1.4766641112336698,-22.117915401390835" stroke="black" stroke-width="0.05" />
<path d="M3.484536082474227,-20.8707680193456 L3.484536082474227,-20.074391955179518" stroke="black" stroke-width="0.05" />
<path d="M2.4739567842286663,-20.990980520132606 L2.4739567842286663,-20.221679663823668" stroke="black" stroke-width="0.05" />
<path d="M1.4766641112336698,-20.999468487183414 L1.4766641112336698,-20.171277528446055" stroke="black" stroke-width="0.05" />
<path d="M3.484536082474227,-18.848382922504342 L3.484536082474227,-18.241025449352716" stroke="black" stroke-width="0.05" />
<path d="M2.4739567842286663,-18.81501795169141 L2.4739567842286663,-18.022958747851895" stroke="black" stroke-width="0.05" />
<path d="M1.4766641112336698,-18.894430359299214 L1.4766641112336698,-18.161645355603834" stroke="black" stroke-width="0.05" />
<path d="M3.484536082474227,-16.78274502870274 L3.484536082474227,-16.107484113842123" stroke="black" stroke-width="0.05" />
<path d="M2.4739567842286663,-16.771458883278854 L2.4739567842286663,-16.105688633983508" stroke="black" stroke-width="0.05" />
<path d="M1.4766641112336698,-16.807594553247974 L1.4766641112336698,-16.005817480260436" stroke="black" stroke-width="0.05" />
<path d="M3.484536082474227,-14.991239365526821 L3.484536082474227,-14.08648032582676" stroke="black" stroke-width="0.05" />
<path d="M2.4739567842286663,-14.89990496290545 L2.4739567842286663,-14.210987489482147" stroke="black" stroke-width="0.05" />
<path d="M1.4766641112336698,-14.846386071976472 L1.4766641112336698,-14.16998505013058" stroke="black" stroke-width="0.05" />
<path d="M3.484536082474227,-12.803894690963684 L3.484536082474227,-12.234393798995123" stroke="black" stroke-width="0.05" />
<path d="M2.4739567842286663,-12.803056025317536 L2.4739567842286663,-12.014541917377578" stroke="black" stroke-width="0.05" />
<path d="M1.4766641112336698,-12.982109406959143 L1.4766641112336698,-12.126209146719702" stroke="black" stroke-width="0.05" />
<path d="M3.484536082474227,-10.980782221757929 L3.484536082474227,-10.133254389641655" stroke="black" stroke-width="0.05" />
<path d="M2.4739567842286663,-10.817141596676635 L2.4739567842286663,-10.09318673761724" stroke="black" stroke-width="0.05" />
<path d="M1.4766641112336698,-10.912309381292944 L1.4766641112336698,-10.061375545010925" stroke="black" stroke-width="0.05" />
<path d="M3.484536082474227,-8.904054061789864 L3.484536082474227,-8.135228219839021" stroke="black" stroke-width="0.05" />
<path d="M2.4739567842286663,-8.980162148196966 L2.4739567842286663,-8.077695333050254" stroke="black" stroke-width="0.05" />
<path d="M1.4766641112336698,-8.848929548065005 L1.4766641112336698,-8.19164249745086" stroke="black" stroke-width="0.05" />
<path d="M3.484536082474227,-6.960947773149722 L3.484536082474227,-6.018765460913107" stroke="black" stroke-width="0.05" />
<path d="M2.4739567842286663,-6.770498255817039 L2.4739567842286663,-6.148078362565465" stroke="black" stroke-width="0.05" />
<path d="M1.4766641112336698,-6.833733093840607 L1.4766641112336698,-6.133150380753207" stroke="black" stroke-width="0.05" />
<path d="M3.484536082474227,-4.838305212438116 L3.484536082474227,-4.030114003104778" stroke="black" stroke-width="0.05" />
<path d="M2.4739567842286663,-4.988703761278851 L2.4739567842286663,-4.163864018754762" stroke="black" stroke-width="0.05" />
<path d="M1.4766641112336698,-4.784184437173567 L1.4766641112336698,-4.172901702315516" stroke="black" stroke-width="0.05" />
<path d="M3.484536082474227,-2.859146650814956 L3.484536082474227,-2.1031534212105574" stroke="black" stroke-width="0.05" />
<path d="M2.4739567842286663,-2.927601297768445 L2.4739567842286663,-2.014804681057107" stroke="black" stroke-width="0.05" />
<path d="M1.4766641112336698,-2.9507317655967458 L1.4766641112336698,-2.247907143904845" stroke="black" stroke-width="0.05" />
<path d="M3.484536082474227,-0.8651119094266437 L3.484536082474227,-0.17498928610617026" stroke="black" stroke-width="0.05" />
<path d="M2.4739567842286663,-0.8231759438785138 L2.4739567842286663,-0.19321594495228456" stroke="black" stroke-width="0.05" />
<path d="M1.4766641112336698,-0.9250359090306359 L1.4766641112336698,-0.060932589204051646" stroke="black" stroke-width="0.05" />
<path d="M3.484536082474227,1.202950645998907 L3.484536082474227,1.9078445233681292" stroke="black" stroke-width="0.05" />
<path d="M2.4739567842286663,1.0379783852235769 L2.4739567842286663,1.8782947278105233" stroke="black" stroke-width="0.05" />
<path d="M1.4766641112336698,1.0554324247003566 L1.4766641112336698,1.8109863376157156" stroke="black" stroke-width="0.05" />
<path d="M3.484536082474227,3.2148360853696394 L3.484536082474227,3.7861635117177057" stroke="black" stroke-width="0.05" />
<path d="M2.4739567842286663,3.1811862012616423 L2.4739567842286663,3.9337780496371737" stroke="black" stroke-width="0.05" />
<path d="M1.4766641112336698,3.10334601576241 L1.4766641112336698,3.879695939029938" stroke="black" stroke-width="0.05" />
<path d="M3.484536082474227,5.075960412861323 L3.484536082474227,5.907127372514704" stroke="black" stroke-width="0.05" />
<path d="M2.4739567842286663,5.2113456590147 L2.4739567842286663,5.859647379501027" stroke="black" stroke-width="0.05" />
<path d="M1.4766641112336698,5.176874314079386 L1.4766641112336698,5.901466930880278" stroke="black" stroke-width="0.05" />
<path d="M3.484536082474227,7.076227464401011 L3.484536082474227,7.8730106064801655" stroke="black" stroke-width="0.05" />
<path d="M2.4739567842286663,7.021112396211968 L2.4739567842286663,7.902677735051534" stroke="black" stroke-width="0.05" />
<path d="M1.4766641112336698,7.112798061042039 L1.4766641112336698,7.768380056716423" stroke="black" stroke-width="0.05" />
<path d="M3.484536082474227,9.000140302222267 L3.484536082474227,9.910319062245193" stroke="black" stroke-width="0.05" />
<path d="M2.4739567842286663,9.068700541028026 L2.4739567842286663,9.901887002173039" stroke="black" stroke-width="0.05" />
<path d="M1.4766641112336698,9.189885806312583 L1.4766641112336698,9.92119395031174" stroke="black" stroke-width="0.05" />
<path d="M3.484536082474227,11.179651032356423 L3.484536082474227,11.886814980901235" stroke="black" stroke-width="0.05" />
<path d="M2.4739567842286663,11.185461532273575 L2.4739567842286663,11.957343006436888" stroke="black" stroke-width="0.05" />
<path d="M1.4766641112336698,11.070217381470457 L1.4766641112336698,11.836814849796388" stroke="black" stroke-width="0.05" />
<path d="M3.484536082474227,13.124455872107868 L3.484536082474227,13.783953889684133" stroke="black" stroke-width="0.05" />
<path d="M2.4739567842286663,13.051683997022634 L2.4739567842286663,13.997153204417732" stroke="black" stroke-width="0.05" />
<path d="M1.4766641112336698,13.19163625250599 L1.4766641112336698,13.770867091574024" stroke="black" stroke-width="0.05" />
<path d="M3.484536082474227,15.073151047466913 L3.484536082474227,15.881160366176278" stroke="black" stroke-width="0.05" />
<path d="M2.4739567842286663,15.205034695820713 L2.4739567842286663,15.87625397285978" stroke="black" stroke-width="0.05" />
<path d="M1.4766641112336698,15.096509745514958 L1.4766641112336698,15.865100292149823" stroke="black" stroke-width="0.05" />
<path d="M3.484536082474227,17.03387457174207 L3.484536082474227,17.853936859915894" stroke="black" stroke-width="0.05" />
<path d="M2.4739567842286663,17.01725482142194 L2.4739567842286663,17.981714639062098" stroke="black" stroke-width="0.05" />
<path d="M1.4766641112336698,17.118143558291937 L1.4766641112336698,17.75806290256234" stroke="black" stroke-width="0.05" />
<path d="M3.484536082474227,19.030682183573116 L3.484536082474227,19.844995312279174" stroke="black" stroke-width="0.05" />
<path d="M2.4739567842286663,19.059357357159197 L2.4739567842286663,19.921744861502095" stroke="black" stroke-width="0.05" />
<path d="M1.4766641112336698,19.244405626068975 L1.4766641112336698,19.888942488426405" stroke="black" stroke-width="0.05" />
<path d="M3.484536082474227,21.221671833337524 L3.484536082474227,21.825607214415495" stroke="black" stroke-width="0.05" />
<path d="M2.4739567842286663,21.04359751466452 L2.4739567842286663,21.969429787422605" stroke="black" stroke-width="0.05" />
<path d="M1.4766641112336698,21.02647973498545 L1.4766641112336698,21.774748202404833" stroke="black" stroke-width="0.05" />
<path d="M3.484536082474227,23.082593465361885 L3.484536082474227,23.775052014093674" stroke="black" stroke-width="0.05" />
<path d="M2.4739567842286663,23.168358392685516 L2.4739567842286663,23.803104322848306" stroke="black" stroke-width="0.05" />
<path d="M1.4766641112336698,23.02577265380737 L1.4766641112336698,23.924295911218646" stroke="black" stroke-width="0.05" />
<path d="M3.484536082474227,25.227605409230517 L3.484536082474227,25.78653379915" stroke="black" stroke-width="0.05" />
<path d="M2.4739567842286663,25.020261415255785 L2.4739567842286663,25.818065104670765" stroke="black" stroke-width="0.05" />
<path d="M1.4766641112336698,25.078964947616193 L1.4766641112336698,25.925633986117663" stroke="black" stroke-width="0.05" />
<path d="M3.484536082474227,27.10105464561041 L3.484536082474227,27.789633480160333" stroke="black" stroke-width="0.05" />
<path d="M2.4739567842286663,27.09789590497853 L2.4739567842286663,27.757073659194607" stroke="black" stroke-width="0.05" />
<path d="M1.4766641112336698,27.050330659997847 L1.4766641112336698,27.83443759668211" stroke="black" stroke-width="0.05" />
<path d="M0,0 L8.0,0" stroke="black" stroke-width="0.1" />
<path d="M0,0 L0,28.25" stroke="blue" stroke-width="0.1" />
</svg>