<?xml version="1.0" encoding="UTF-8"?>
<svg xmlns="http://www.w3.org/2000/svg" xmlns:xlink="http://www.w3.org/1999/xlink"
     width="28.0" height="76.5" viewBox="0 -38.25 28.0 76.5" displayInline="False">
<defs>
</defs>
<rect x="0" y="-28.25" width="8.0" height="56.5" rx="0" fill="#FFFFFF" stroke="red" stroke-width="0.1" />
<path d="M4.0,-27.850286343661956 L4.0,-27.037927171936268" stroke="black" stroke-width="0.05" />
<path d="M5.030927835051546,-27.981171486996395 L5.030927835051546,-27.237082833822992" stroke="black" stroke-width="0.05" />
<path d="M6.030519426541048,-27.946181081736423 L6.030519426541048,-27.011039852288583" stroke="black" stroke-width="0.05" />
<path d="M4.0,-25.792175175650573 L4.0,-25.179892369131583" stroke="black" stroke-width="0.05" />
<path d="M5.030927835051546,-25.887835536080594 L5.030927835051546,-25.141240998619427" stroke="black" stroke-width="0.05" />
<path d="M6.030519426541048,-25.83568758289007 L6.030519426541048,-25.249664970860024" stroke="black" stroke-width="0.05" />
<path d="M4.0,-23.795054852162878 L4.0,-23.223858239518552" stroke="black" stroke-width="0.05" />
<path d="M5.030927835051546,-23.86150690747357 L5.030927835051546,-23.04719833119962" stroke="black" stroke-width="0.05" />
<path d="M6.030519426541048,-23.896869221770828 L6.030519426541048,-23.172718491781016" stroke="black" stroke-width="0.05" />
<path d="M4.0,-21.932269365857003 L4.0,-21.140814090335876" stroke="black" stroke-width="0.05" />
<path d="M5.030927835051546,-21.891046394857465 L5.030927835051546,-21.104531140124944" stroke="black" stroke-width="0.05" />
<path d="M6.030519426541048,-21.95859709098526 L6.030519426541048,-21.146322873272364" stroke="black" stroke-width="0.05" />
<path d="M4.0,-19.788729733940926 L4.0,-19.027720904451314" stroke="black" stroke-width="0.05" />
<path d="M5.030927835051546,-19.805300654535476 L5.030927835051546,-19.23058186603545" stroke="black" stroke-width="0.05" />
<path d="M6.030519426541048,-19.8920700784221 L6.030519426541048,-19.1943101540057" stroke="black" stroke-width="0.05" />
<path d="M4.0,-17.910365726447203 L4.0,-17.08933443556027" stroke="black" stroke-width="0.05" />
<path d="M5.030927835051546,-17.7692850304687 L5.030927835051546,-17.166947951392128" stroke="black" stroke-width="0.05" />
<path d="M6.030519426541048,-17.751347376091392 L6.030519426541048,-17.004011357607435" stroke="black" stroke-width="0.05" />
<path d="M4.0,-15.935362928372097 L4.0,-15.089859849169583" stroke="black" stroke-width="0.05" />
<path d="M5.030927835051546,-15.969615674513493 L5.030927835051546,-15.0101021049577" stroke="black" stroke-width="0.05" />
<path d="M6.030519426541048,-15.99068418335133 L6.030519426541048,-15.1167423706079" stroke="black" stroke-width="0.05" />
<path d="M4.0,-13.956417118036724 L4.0,-13.141573522690202" stroke="black" stroke-width="0.05" />
<path d="M5.030927835051546,-13.974936429599435 L5.030927835051546,-13.150694469825114" stroke="black" stroke-width="0.05" />
<path d="M6.030519426541048,-13.785500498546435 L6.030519426541048,-13.208577157629318" stroke="black" stroke-width="0.05" />
<path d="M4.0,-11.996909912045359 L4.0,-11.050596573127274" stroke="black" stroke-width="0.05" />
<path d="M5.030927835051546,-11.964459915687794 L5.030927835051546,-11.161527527546648" stroke="black" stroke-width="0.05" />
<path d="M6.030519426541048,-11.871172631897787 L6.030519426541048,-11.071597989041074" stroke="black" stroke-width="0.05" />
<path d="M4.0,-9.783308004713836 L4.0,-9.093796380476872" stroke="black" stroke-width="0.05" />
<path d="M5.030927835051546,-9.949218591817635 L5.030927835051546,-9.085961640967646" stroke="black" stroke-width="0.05" />
<path d="M6.030519426541048,-9.963216935624898 L6.030519426541048,-9.202589440173156" stroke="black" stroke-width="0.05" />
<path d="M4.0,-7.967977893960976 L4.0,-7.098594090171754" stroke="black" stroke-width="0.05" />
<path d="M5.030927835051546,-7.884800593004012 L5.030927835051546,-7.18562839759852" stroke="black" stroke-width="0.05" />
<path d="M6.030519426541048,-7.772204472022755 L6.030519426541048,-7.005015364163639" stroke="black" stroke-width="0.05" />
<path d="M4.0,-5.921296668473398 L4.0,-5.168343375774454" stroke="black" stroke-width="0.05" />
<path d="M5.030927835051546,-5.911569946484938 L5.030927835051546,-5.168466656507855" stroke="black" stroke-width="0.05" />
<path d="M6.030519426541048,-5.861087483827804 L6.030519426541048,-5.044508785276844" stroke="black" stroke-width="0.05" />
<path d="M4.0,-3.9626994513796823 L4.0,-3.1198454676990024" stroke="black" stroke-width="0.05" />
<path d="M5.030927835051546,-3.769756398785841 L5.030927835051546,-3.0708449894447765" stroke="black" stroke-width="0.05" />
<path d="M6.030519426541048,-3.8435386999204812 L6.030519426541048,-3.156101799184316" stroke="black" stroke-width="0.05" />
<path d="M4.0,-1.9939137737481925 L4.0,-1.1726991363145585" stroke="black" stroke-width="0.05" />
<path d="M5.030927835051546,-1.9537619122271144 L5.030927835051546,-1.1561887540043192" stroke="black" stroke-width="0.05" />
<path d="M6.030519426541048,-1.8378275608707204 L6.030519426541048,-1.1648515468506513" stroke="black" stroke-width="0.05" />
<path d="M4.0,0.04797833216538072 L4.0,0.9514338161721417" stroke="black" stroke-width="0.05" />
<path d="M5.030927835051546,0.1526680985883111 L5.030927835051546,0.8979119606825963" stroke="black" stroke-width="0.05" />
<path d="M6.030519426541048,0.04802652692891396 L6.030519426541048,0.868670313382156" stroke="black" stroke-width="0.05" />
<path d="M4.0,2.199300045353836 L4.0,2.8649211939239874" stroke="black" stroke-width="0.05" />
<path d="M5.030927835051546,2.0548141142554104 L5.030927835051546,2.8150491879832438" stroke="black" stroke-width="0.05" />
<path d="M6.030519426541048,2.154657815840194 L6.030519426541048,2.7691406836009773" stroke="black" stroke-width="0.05" />
<path d="M4.0,4.062918217955137 L4.0,4.849427498578801" stroke="black" stroke-width="0.05" />
<path d="M5.030927835051546,4.034796382715775 L5.030927835051546,4.781753846669963" stroke="black" stroke-width="0.05" />
<path d="M6.030519426541048,4.2094918260613605 L6.030519426541048,4.943806637597339" stroke="black" stroke-width="0.05" />
<path d="M4.0,6.062904684261004 L4.0,6.8061974664634945" stroke="black" stroke-width="0.05" />
<path d="M5.030927835051546,6.159494527926102 L5.030927835051546,6.833149507930722" stroke="black" stroke-width="0.05" />
<path d="M6.030519426541048,6.241130612657336 L6.030519426541048,6.990748685376449" stroke="black" stroke-width="0.05" />
<path d="M4.0,8.18804782286879 L4.0,8.916295828046415" stroke="black" stroke-width="0.05" />
<path d="M5.030927835051546,8.15283761446634 L5.030927835051546,8.826953995532882" stroke="black" stroke-width="0.05" />
<path d="M6.030519426541048,8.034372962146362 L6.030519426541048,8.959469763302321" stroke="black" stroke-width="0.05" />
<path d="M4.0,10.13152807673086 L4.0,10.875111922182583" stroke="black" stroke-width="0.05" />
<path d="M5.030927835051546,10.201645029996438 L5.030927835051546,10.899386865256119" stroke="black" stroke-width="0.05" />
<path d="M6.030519426541048,10.240128985735486 L6.030519426541048,10.800974064508834" stroke="black" stroke-width="0.05" />
<path d="M4.0,12.14477565121896 L4.0,12.856743432370886" stroke="black" stroke-width="0.05" />
<path d="M5.030927835051546,12.073451878250678 L5.030927835051546,12.836603062057975" stroke="black" stroke-width="0.05" />
<path d="M6.030519426541048,12.246422356713653 L6.030519426541048,12.887645284289174" stroke="black" stroke-width="0.05" />
<path d="M4.0,14.119702817519865 L4.0,14.97272210840825" stroke="black" stroke-width="0.05" />
<path d="M5.030927835051546,14.243843064566896 L5.030927835051546,14.909754068282092" stroke="black" stroke-width="0.05" />
<path d="M6.030519426541048,14.20809591306592 L6.030519426541048,14.878034600487938" stroke="black" stroke-width="0.05" />
<path d="M4.0,16.086973072340346 L4.0,16.911400845683158" stroke="black" stroke-width="0.05" />
<path d="M5.030927835051546,16.12277845491454 L5.030927835051546,16.97298329015445" stroke="black" stroke-width="0.05" />
<path d="M6.030519426541048,16.0163599306479 L6.030519426541048,16.776593271893795" stroke="black" stroke-width="0.05" />
<path d="M4.0,18.161202350926654 L4.0,18.784748716418484" stroke="black" stroke-width="0.05" />
<path d="M5.030927835051546,18.17134751724825 L5.030927835051546,18.910514979027162" stroke="black" stroke-width="0.05" />
<path d="M6.030519426541048,18.206240580219266 L6.030519426541048,18.795040186665773" stroke="black" stroke-width="0.05" />
<path d="M4.0,20.110782542863898 L4.0,20.752745319930494" stroke="black" stroke-width="0.05" />
<path d="M5.030927835051546,20.12059794268866 L5.030927835051546,20.803092609212943" stroke="black" stroke-width="0.05" />
<path d="M6.030519426541048,20.002465792979088 L6.030519426541048,20.83783870875854" stroke="black" stroke-width="0.05" />
<path d="M4.0,22.03962630349068 L4.0,22.83565733414134" stroke="black" stroke-width="0.05" />
<path d="M5.030927835051546,22.073704972556758 L5.030927835051546,22.856652824593795" stroke="black" stroke-width="0.05" />
<path d="M6.030519426541048,22.10310579320665 L6.030519426541048,22.98865344298898" stroke="black" stroke-width="0.05" />
<path d="M4.0,24.0660034089165 L4.0,24.762156186254575" stroke="black" stroke-width="0.05" />
<path d="M5.030927835051546,24.13194893604638 L5.030927835051546,24.931321352316257" stroke="black" stroke-width="0.05" />
<path d="M6.030519426541048,24.08614061275424 L6.030519426541048,24.990018461149848" stroke="black" stroke-width="0.05" />
<path d="M4.0,26.049845530420136 L4.0,26.790890013977695" stroke="black" stroke-width="0.05" />
<path d="M5.030927835051546,26.164946057729537 L5.030927835051546,26.75237042619795" stroke="black" stroke-width="0.05" />
<path d="M6.030519426541048,26.243255487729478 L6.030519426541048,26.900584131933613" stroke="black" stroke-width="0.05" />
<path d="M4.515463917525773,-26.872211473657135 L4.515463917525773,-26.0937504561345" stroke="black" stroke-width="0.05" />
<path d="M5.526043215771334,-26.848030729615047 L5.526043215771334,-26.165475866105208" stroke="black" stroke-width="0.05" />
<path d="M6.52333588876633,-26.952766034863227 L6.52333588876633,-26.234096433561476" stroke="black" stroke-width="0.05" />
<path d="M4.515463917525773,-24.97302051835974 L4.515463917525773,-24.17005353005965" stroke="black" stroke-width="0.05" />
<path d="M5.526043215771334,-24.87469689882846 L5.526043215771334,-24.20911504870835" stroke="black" stroke-width="0.05" />
<path d="M6.52333588876633,-24.853297509036675 L6.52333588876633,-24.07917216386079" stroke="black" stroke-width="0.05" />
<path d="M4.515463917525773,-22.894135357456303 L4.515463917525773,-22.147663744322557" stroke="black" stroke-width="0.05" />
<path d="M5.526043215771334,-22.962020160234992 L5.526043215771334,-22.107996336895294" stroke="black" stroke-width="0.05" />
<path d="M6.52333588876633,-22.767523164646423 L6.52333588876633,-22.132232174324347" stroke="black" stroke-width="0.05" />
<path d="M4.515463917525773,-20.79473917468876 L4.515463917525773,-20.175447911366383" stroke="black" stroke-width="0.05" />
<path d="M5.526043215771334,-20.970749957149625 L5.526043215771334,-20.026244318493237" stroke="black" stroke-width="0.05" />
<path d="M6.52333588876633,-20.839871683041643 L6.52333588876633,-20.10922386764366" stroke="black" stroke-width="0.05" />
<path d="M4.515463917525773,-18.920114211031056 L4.515463917525773,-18.141358520947968" stroke="black" stroke-width="0.05" />
<path d="M5.526043215771334,-18.994583573915914 L5.526043215771334,-18.1732106361645" stroke="black" stroke-width="0.05" />
<path d="M6.52333588876633,-18.975549729702976 L6.52333588876633,-18.165661566749407" stroke="black" stroke-width="0.05" />
<path d="M4.515463917525773,-16.997335219172065 L4.515463917525773,-16.17814346296364" stroke="black" stroke-width="0.05" />
<path d="M5.526043215771334,-16.782573285148754 L5.526043215771334,-16.157029425193667" stroke="black" stroke-width="0.05" />
<path d="M6.52333588876633,-16.902517412929363 L6.52333588876633,-16.205046605296662" stroke="black" stroke-width="0.05" />
<path d="M4.515463917525773,-14.803124757495887 L4.515463917525773,-14.089383231302818" stroke="black" stroke-width="0.05" />
<path d="M5.526043215771334,-14.879732059452659 L5.526043215771334,-14.052936860737116" stroke="black" stroke-width="0.05" />
<path d="M6.52333588876633,-14.884520996994596 L6.52333588876633,-14.078647591472759" stroke="black" stroke-width="0.05" />
<path d="M4.515463917525773,-12.827318179121736 L4.515463917525773,-12.062261474720703" stroke="black" stroke-width="0.05" />
<path d="M5.526043215771334,-12.750749151235576 L5.526043215771334,-12.029677608444562" stroke="black" stroke-width="0.05" />
<path d="M6.52333588876633,-12.958129374240988 L6.52333588876633,-12.11711215919427" stroke="black" stroke-width="0.05" />
<path d="M4.515463917525773,-10.856655998139392 L4.515463917525773,-10.226598668202477" stroke="black" stroke-width="0.05" />
<path d="M5.526043215771334,-10.863101712698107 L5.526043215771334,-10.110557940073914" stroke="black" stroke-width="0.05" />
<path d="M6.52333588876633,-10.974799841718383 L6.52333588876633,-10.249570121462419" stroke="black" stroke-width="0.05" />
<path d="M4.515463917525773,-8.933396891853508 L4.515463917525773,-8.216121064974564" stroke="black" stroke-width="0.05" />
<path d="M5.526043215771334,-8.86796407590496 L5.526043215771334,-8.058868743568322" stroke="black" stroke-width="0.05" />
<path d="M6.52333588876633,-8.895997794352436 L6.52333588876633,-8.217377564711498" stroke="black" stroke-width="0.05" />
<path d="M4.515463917525773,-6.824003808110014 L4.515463917525773,-6.13589577155758" stroke="black" stroke-width="0.05" />
<path d="M5.526043215771334,-6.995848549264375 L5.526043215771334,-6.152535070804155" stroke="black" stroke-width="0.05" />
<path d="M6.52333588876633,-6.7766810034397595 L6.52333588876633,-6.0847184092723055" stroke="black" stroke-width="0.05" />
<path d="M4.515463917525773,-4.8033797750050224 L4.515463917525773,-4.233412237408343" stroke="black" stroke-width="0.05" />
<path d="M5.526043215771334,-4.922371214686243 L5.526043215771334,-4.143979312671691" stroke="black" stroke-width="0.05" />
<path d="M6.52333588876633,-4.888050776113459 L6.52333588876633,-4.101076496776334" stroke="black" stroke-width="0.05" />
<path d="M4.515463917525773,-2.86469079919037 L4.515463917525773,-2.2071935202865665" stroke="black" stroke-width="0.05" />
<path d="M5.526043215771334,-2.909995161560496 L5.526043215771334,-2.142804245873285" stroke="black" stroke-width="0.05" />
<path d="M6.52333588876633,-2.9600811817745036 L6.52333588876633,-2.0991082071902034" stroke="black" stroke-width="0.05" />
<path d="M4.515463917525773,-0.9169343641239329 L4.515463917525773,-0.12340300741075688" stroke="black" stroke-width="0.05" />
<path d="M5.526043215771334,-0.9190109318562996 L5.526043215771334,-0.18840943725332743" stroke="black" stroke-width="0.05" />
<path d="M6.52333588876633,-0.8380280012777686 L6.52333588876633,-0.07832787144162812" stroke="black" stroke-width="0.05" />
<path d="M4.515463917525773,1.159243168074196 L4.515463917525773,1.9173651574853485" stroke="black" stroke-width="0.05" />
<path d="M5.526043215771334,1.0013985450373977 L5.526043215771334,1.8122522325561436" stroke="black" stroke-width="0.05" />
<path d="M6.52333588876633,1.2082517387988396 L6.52333588876633,1.9172759465938127" stroke="black" stroke-width="0.05" />
<path d="M4.515463917525773,3.200847792891834 L4.515463917525773,3.8876910462273155" stroke="black" stroke-width="0.05" />
<path d="M5.526043215771334,3.1903697231777706 L5.526043215771334,3.846875935757458" stroke="black" stroke-width="0.05" />
<path d="M6.52333588876633,3.222652202699696 L6.52333588876633,3.864861302536063" stroke="black" stroke-width="0.05" />
<path d="M4.515463917525773,5.02529607550456 L4.515463917525773,5.991578654174378" stroke="black" stroke-width="0.05" />
<path d="M5.526043215771334,5.036419854471747 L5.526043215771334,5.75035873844462" stroke="black" stroke-width="0.05" />
<path d="M6.52333588876633,5.005919504949658 L6.52333588876633,5.94722752464615" stroke="black" stroke-width="0.05" />
<path d="M4.515463917525773,7.164064036333072 L4.515463917525773,7.826559815760283" stroke="black" stroke-width="0.05" />
<path d="M5.526043215771334,7.09831879004131 L5.526043215771334,7.775083974261825" stroke="black" stroke-width="0.05" />
<path d="M6.52333588876633,7.2144205142795155 L6.52333588876633,7.9201952984828985" stroke="black" stroke-width="0.05" />
<path d="M4.515463917525773,9.087778851277307 L4.515463917525773,9.805159820830527" stroke="black" stroke-width="0.05" />
<path d="M5.526043215771334,9.030687109899407 L5.526043215771334,9.947682071541252" stroke="black" stroke-width="0.05" />
<path d="M6.52333588876633,9.059020631261953 L6.52333588876633,9.901434091906431" stroke="black" stroke-width="0.05" />
<path d="M4.515463917525773,11.093747695876333 L4.515463917525773,11.8807423771554" stroke="black" stroke-width="0.05" />
<path d="M5.526043215771334,11.05078323457546 L5.526043215771334,11.967394725263318" stroke="black" stroke-width="0.05" />
<path d="M6.52333588876633,11.212109569517573 L6.52333588876633,11.824152666487095" stroke="black" stroke-width="0.05" />
<path d="M4.515463917525773,13.040734257883157 L4.515463917525773,13.918327463140036" stroke="black" stroke-width="0.05" />
<path d="M5.526043215771334,13.028359982260598 L5.526043215771334,13.837075299144479" stroke="black" stroke-width="0.05" />
<path d="M6.52333588876633,13.193000789030684 L6.52333588876633,13.781879193968065" stroke="black" stroke-width="0.05" />
<path d="M4.515463917525773,15.096868863344277 L4.515463917525773,15.79155963562623" stroke="black" stroke-width="0.05" />
<path d="M5.526043215771334,15.030122305844241 L5.526043215771334,15.781659223658588" stroke="black" stroke-width="0.05" />
<path d="M6.52333588876633,15.017417510069587 L6.52333588876633,15.994453129426654" stroke="black" stroke-width="0.05" />
<path d="M4.515463917525773,17.208438629845066 L4.515463917525773,17.83308881508343" stroke="black" stroke-width="0.05" />
<path d="M5.526043215771334,17.209077746984367 L5.526043215771334,17.811349177950163" stroke="black" stroke-width="0.05" />
<path d="M6.52333588876633,17.045686756303695 L6.52333588876633,17.999753746435918" stroke="black" stroke-width="0.05" />
<path d="M4.515463917525773,19.121767305071064 L4.515463917525773,19.937166502772932" stroke="black" stroke-width="0.05" />
<path d="M5.526043215771334,19.133008823750945 L5.526043215771334,19.79723193706177" stroke="black" stroke-width="0.05" />
<path d="M6.52333588876633,19.067797082428008 L6.52333588876633,19.949806127301525" stroke="black" stroke-width="0.05" />
<path d="M4.515463917525773,21.24628370405781 L4.515463917525773,21.864952159048563" stroke="black" stroke-width="0.05" />
<path d="M5.526043215771334,21.106516848411335 L5.526043215771334,21.85658844817257" stroke="black" stroke-width="0.05" />
<path d="M6.52333588876633,21.176399701080918 L6.52333588876633,21.76359933736366" stroke="black" stroke-width="0.05" />
<path d="M4.515463917525773,23.1229380437624 L4.515463917525773,23.965193303660143" stroke="black" stroke-width="0.05" />
<path d="M5.526043215771334,23.092600320562735 L5.526043215771334,23.802165184090097" stroke="black" stroke-width="0.05" />
<path d="M6.52333588876633,23.20401027982016 L6.52333588876633,23.802105198632496" stroke="black" stroke-width="0.05" />
<path d="M4.515463917525773,25.23088874123296 L4.515463917525773,25.97105335302813" stroke="black" stroke-width="0.05" />
<path d="M5.526043215771334,25.025917859212324 L5.526043215771334,25.82640645976806" stroke="black" stroke-width="0.05" />
<path d="M6.52333588876633,25.151131168858374 L6.52333588876633,25.974263864994168" stroke="black" stroke-width="0.05" />
<path d="M4.515463917525773,27.064554029368132 L4.515463917525773,27.865628540811723" stroke="black" stroke-width="0.05" />
<path d="M5.526043215771334,27.04885068458544 L5.526043215771334,27.83375257960935" stroke="black" stroke-width="0.05" />
<path d="M6.52333588876633,27.170958075768695 L6.52333588876633,27.78693083820947" stroke="black" stroke-width="0.05" />
<path d="M2.9690721649484537,-27.962240213112725 L2.9690721649484537,-27.079814603712666" stroke="black" stroke-width="0.05" />
<path d="M1.9694805734589522,-27.75333483321706 L1.9694805734589522,-27.240155311927154" stroke="black" stroke-width="0.05" />
<path d="M2.9690721649484537,-25.85261120309049 L2.9690721649484537,-25.057047395677557" stroke="black" stroke-width="0.05" />
<path d="M1.9694805734589522,-25.820330222090412 L1.9694805734589522,-25.247830463994575" stroke="black" stroke-width="0.05" />
<path d="M2.9690721649484537,-23.89135967094519 L2.9690721649484537,-23.195429073052996" stroke="black" stroke-width="0.05" />
<path d="M1.9694805734589522,-23.848597963847727 L1.9694805734589522,-23.061462332963348" stroke="black" stroke-width="0.05" />
<path d="M2.9690721649484537,-21.8197303230697 L2.9690721649484537,-21.249721230998556" stroke="black" stroke-width="0.05" />
<path d="M1.9694805734589522,-21.829633253677414 L1.9694805734589522,-21.227693412871766" stroke="black" stroke-width="0.05" />
<path d="M2.9690721649484537,-19.977607171873384 L2.9690721649484537,-19.025236434178225" stroke="black" stroke-width="0.05" />
<path d="M1.9694805734589522,-19.842429825603517 L1.9694805734589522,-19.11125120425909" stroke="black" stroke-width="0.05" />
<path d="M2.9690721649484537,-17.784017549767988 L2.9690721649484537,-17.01797553058429" stroke="black" stroke-width="0.05" />
<path d="M1.9694805734589522,-17.88609371660657 L1.9694805734589522,-17.022020896376148" stroke="black" stroke-width="0.05" />
<path d="M2.9690721649484537,-15.940892617256345 L2.9690721649484537,-15.1674930082632" stroke="black" stroke-width="0.05" />
<path d="M1.9694805734589522,-15.978678989425 L1.9694805734589522,-15.086900077724616" stroke="black" stroke-width="0.05" />
<path d="M2.9690721649484537,-13.963795156202792 L2.9690721649484537,-13.128740299854178" stroke="black" stroke-width="0.05" />
<path d="M1.9694805734589522,-13.76136253127046 L1.9694805734589522,-13.020838557595736" stroke="black" stroke-width="0.05" />
<path d="M2.9690721649484537,-11.858370025594894 L2.9690721649484537,-11.165815777560827" stroke="black" stroke-width="0.05" />
<path d="M1.9694805734589522,-11.797250197848726 L1.9694805734589522,-11.067261651045705" stroke="black" stroke-width="0.05" />
<path d="M2.9690721649484537,-9.829791383881423 L2.9690721649484537,-9.216372223124607" stroke="black" stroke-width="0.05" />
<path d="M1.9694805734589522,-9.896372721630218 L1.9694805734589522,-9.078405633269364" stroke="black" stroke-width="0.05" />
<path d="M2.9690721649484537,-7.92487969204125 L2.9690721649484537,-7.06161726187402" stroke="black" stroke-width="0.05" />
<path d="M1.9694805734589522,-7.87493339318385 L1.9694805734589522,-7.122326081556743" stroke="black" stroke-width="0.05" />
<path d="M2.9690721649484537,-5.843595965773303 L2.9690721649484537,-5.086559869532049" stroke="black" stroke-width="0.05" />
<path d="M1.9694805734589522,-5.772539052123584 L1.9694805734589522,-5.2182210304304055" stroke="black" stroke-width="0.05" />
<path d="M2.9690721649484537,-3.814743512918729 L2.9690721649484537,-3.150475879847333" stroke="black" stroke-width="0.05" />
<path d="M1.9694805734589522,-3.991794099381717 L1.9694805734589522,-3.2409021982537993" stroke="black" stroke-width="0.05" />
<path d="M2.9690721649484537,-1.9044339228097895 L2.9690721649484537,-1.2350070532535016" stroke="black" stroke-width="0.05" />
<path d="M1.9694805734589522,-1.759228538897821 L1.9694805734589522,-1.1939098414205231" stroke="black" stroke-width="0.05" />
<path d="M2.9690721649484537,0.12246824056534983 L2.9690721649484537,0.9400578042190137" stroke="black" stroke-width="0.05" />
<path d="M1.9694805734589522,0.2120073600761655 L1.9694805734589522,0.7570292407893529" stroke="black" stroke-width="0.05" />
<path d="M2.9690721649484537,2.1705370565528392 L2.9690721649484537,2.7872381104606174" stroke="black" stroke-width="0.05" />
<path d="M1.9694805734589522,2.013492867443963 L1.9694805734589522,2.9363797640914124" stroke="black" stroke-width="0.05" />
<path d="M2.9690721649484537,4.221504281178918 L2.9690721649484537,4.813361787700656" stroke="black" stroke-width="0.05" />
<path d="M1.9694805734589522,4.218084442469044 L1.9694805734589522,4.7646725011330995" stroke="black" stroke-width="0.05" />
<path d="M2.9690721649484537,6.229340902705194 L2.9690721649484537,6.796765677292087" stroke="black" stroke-width="0.05" />
<path d="M1.9694805734589522,6.2416129541098675 L1.9694805734589522,6.847952343327554" stroke="black" stroke-width="0.05" />
<path d="M2.9690721649484537,8.064118688013055 L2.9690721649484537,8.809319665501274" stroke="black" stroke-width="0.05" />
<path d="M1.9694805734589522,8.237524536151817 L1.9694805734589522,8.845288803739916" stroke="black" stroke-width="0.05" />
<path d="M2.9690721649484537,10.101327263580817 L2.9690721649484537,10.829240953372118" stroke="black" stroke-width="0.05" />
<path d="M1.9694805734589522,10.220713329825461 L1.9694805734589522,10.83616378962055" stroke="black" stroke-width="0.05" />
<path d="M2.9690721649484537,12.137268471687712 L2.9690721649484537,12.786388725886498" stroke="black" stroke-width="0.05" />
<path d="M1.9694805734589522,12.093734609959075 L1.9694805734589522,12.98212461716162" stroke="black" stroke-width="0.05" />
<path d="M2.9690721649484537,14.184792166572553 L2.9690721649484537,14.938634434508756" stroke="black" stroke-width="0.05" />
<path d="M1.9694805734589522,14.069654011796564 L1.9694805734589522,14.877466253829628" stroke="black" stroke-width="0.05" />
<path d="M2.9690721649484537,16.01819978231152 L2.9690721649484537,16.977618776569457" stroke="black" stroke-width="0.05" />
<path d="M1.9694805734589522,16.20331864767281 L1.9694805734589522,16.759692620453723" stroke="black" stroke-width="0.05" />
<path d="M2.9690721649484537,18.005613430934204 L2.9690721649484537,18.979931432248122" stroke="black" stroke-width="0.05" />
<path d="M1.9694805734589522,18.12912202301236 L1.9694805734589522,18.802501464915213" stroke="black" stroke-width="0.05" />
<path d="M2.9690721649484537,20.036515671605464 L2.9690721649484537,20.83005286239071" stroke="black" stroke-width="0.05" />
<path d="M1.9694805734589522,20.010090394624207 L1.9694805734589522,20.860240560626277" stroke="black" stroke-width="0.05" />
<path d="M2.9690721649484537,22.14386316944049 L2.9690721649484537,22.90888828485647" stroke="black" stroke-width="0.05" />
<path d="M1.9694805734589522,22.108010474796185 L1.9694805734589522,22.940094901023606" stroke="black" stroke-width="0.05" />
<path d="M2.9690721649484537,24.176389204426194 L2.9690721649484537,24.950073287632822" stroke="black" stroke-width="0.05" />
<path d="M1.9694805734589522,24.111392116818003 L1.9694805734589522,24.94743722534437" stroke="black" stroke-width="0.05" />
<path d="M2.9690721649484537,26.01557633408397 L2.9690721649484537,26.93951606844816" stroke="black" stroke-width="0.05" />
<path d="M1.9694805734589522,26.10897334013243 L1.9694805734589522,26.92552164344258" stroke="black" stroke-width="0.05" />
<path d="M3.484536082474227,-26.85772085576509 L3.484536082474227,-26.23245917922096" stroke="black" stroke-width="0.05" />
<path d="M2.4739567842286663,-26.941657168214377 L2.4739567842286663,-26.008202432837773" stroke="black" stroke-width="0.05" />
<path d="M1.4766641112336698,-26.872358952414473 L1.4766641112336698,-26.165975765817677" stroke="black" stroke-width="0.05" />
<path d="M3.484536082474227,-24.78764692760199 L3.484536082474227,-24.180460407639256" stroke="black" stroke-width="0.05" />
<path d="M2.4739567842286663,-24.914643080705446 L2.4739567842286663,-24.05406376725191" stroke="black" stroke-width="0.05" />
<path d="M1.4766641112336698,-24.985606872443242 L1.4766641112336698,-24.04663116665906" stroke="black" stroke-width="0.05" />
<path d="M3.484536082474227,-22.77840898497788 L3.484536082474227,-22.103647982237778" stroke="black" stroke-width="0.05" />
<path d="M2.4739567842286663,-22.904991404830326 L2.4739567842286663,-22.153794385109798" stroke="black" stroke-width="0.05" />
<path d="M1.4766641112336698,-22.934252914209775 L1.4766641112336698,-22.189463019828604" stroke="black" stroke-width="0.05" />
<path d="M3.484536082474227,-20.86084483648098 L3.484536082474227,-20.228131958300413" stroke="black" stroke-width="0.05" />
<path d="M2.4739567842286663,-20.902571558839 L2.4739567842286663,-20.1334283029476" stroke="black" stroke-width="0.05" />
<path d="M1.4766641112336698,-20.764601540065723 L1.4766641112336698,-20.089505796816283" stroke="black" stroke-width="0.05" />
<path d="M3.484536082474227,-18.96406744942798 L3.484536082474227,-18.024735326068654" stroke="black" stroke-width="0.05" />
<path d="M2.4739567842286663,-18.93963879096998 L2.4739567842286663,-18.023343457939596" stroke="black" stroke-width="0.05" />
<path d="M1.4766641112336698,-18.929583003909638 L1.4766641112336698,-18.004013944262123" stroke="black" stroke-width="0.05" />
<path d="M3.484536082474227,-16.914046808427226 L3.484536082474227,-16.150506241253023" stroke="black" stroke-width="0.05" />
<path d="M2.4739567842286663,-16.80317110994157 L2.4739567842286663,-16.1312561370018" stroke="black" stroke-width="0.05" />
<path d="M1.4766641112336698,-16.93992089804472 L1.4766641112336698,-16.209882532821922" stroke="black" stroke-width="0.05" />
<path d="M3.484536082474227,-14.882246977770636 L3.484536082474227,-14.177804641967715" stroke="black" stroke-width="0.05" />
<path d="M2.4739567842286663,-14.930849686586644 L2.4739567842286663,-14.138838569555785" stroke="black" stroke-width="0.05" />
<path d="M1.4766641112336698,-14.997490630012425 L1.4766641112336698,-14.188308701408083" stroke="black" stroke-width="0.05" />
<path d="M3.484536082474227,-12.801957951667466 L3.484536082474227,-12.169544214254689" stroke="black" stroke-width="0.05" />
<path d="M2.4739567842286663,-12.982508238294177 L2.4739567842286663,-12.02963696587231" stroke="black" stroke-width="0.05" />
<path d="M1.4766641112336698,-12.959906775106717 L1.4766641112336698,-12.182756756970866" stroke="black" stroke-width="0.05" />
<path d="M3.484536082474227,-10.807310628318692 L3.484536082474227,-10.09727956692078" stroke="black" stroke-width="0.05" />
<path d="M2.4739567842286663,-10.908527848657311 L2.4739567842286663,-10.13099427537173" stroke="black" stroke-width="0.05" />
<path d="M1.4766641112336698,-10.994667212274742 L1.4766641112336698,-10.115259219298874" stroke="black" stroke-width="0.05" />
<path d="M3.484536082474227,-8.967113195410672 L3.484536082474227,-8.103587966276846" stroke="black" stroke-width="0.05" />
<path d="M2.4739567842286663,-8.939761674540419 L2.4739567842286663,-8.158920954065394" stroke="black" stroke-width="0.05" />
<path d="M1.4766641112336698,-8.982397638018712 L1.4766641112336698,-8.064451202258496" stroke="black" stroke-width="0.05" />
<path d="M3.484536082474227,-6.972639650452785 L3.484536082474227,-6.2062121127836996" stroke="black" stroke-width="0.05" />
<path d="M2.4739567842286663,-6.836351796605952 L2.4739567842286663,-6.178500147729281" stroke="black" stroke-width="0.05" />
<path d="M1.4766641112336698,-6.779113155032878 L1.4766641112336698,-6.082806042031099" stroke="black" stroke-width="0.05" />
<path d="M3.484536082474227,-4.772847352305799 L3.484536082474227,-4.121456089039361" stroke="black" stroke-width="0.05" />
<path d="M2.4739567842286663,-4.889531605024802 L2.4739567842286663,-4.2478453965678025" stroke="black" stroke-width="0.05" />
<path d="M1.4766641112336698,-4.851327996118822 L1.4766641112336698,-4.188631309264275" stroke="black" stroke-width="0.05" />
<path d="M3.484536082474227,-2.8416575430754047 L3.484536082474227,-2.0813125765167433" stroke="black" stroke-width="0.05" />
<path d="M2.4739567842286663,-2.7931180409359633 L2.4739567842286663,-2.013711876839616" stroke="black" stroke-width="0.05" />
<path d="M1.4766641112336698,-2.7544256659370485 L1.4766641112336698,-2.193230408653143" stroke="black" stroke-width="0.05" />
<path d="M3.484536082474227,-0.8554537823643066 L3.484536082474227,-0.1618158159285608" stroke="black" stroke-width="0.05" />
<path d="M2.4739567842286663,-0.9010317351526413 L2.4739567842286663,-0.23364660803943627" stroke="black" stroke-width="0.05" />
<path d="M1.4766641112336698,-0.9701825206784709 L1.4766641112336698,-0.045839867648920396" stroke="black" stroke-width="0.05" />
<path d="M3.484536082474227,1.1397877426418954 L3.484536082474227,1.8890896269049184" stroke="black" stroke-width="0.05" />
<path d="M2.4739567842286663,1.0193324967808355 L2.4739567842286663,1.9897487555547506" stroke="black" stroke-width="0.05" />
<path d="M1.4766641112336698,1.0615305867932214 L1.4766641112336698,1.9729286793664085" stroke="black" stroke-width="0.05" />
<path d="M3.484536082474227,3.1863442186735598 L3.484536082474227,3.9510035252096345" stroke="black" stroke-width="0.05" />
<path d="M2.4739567842286663,3.2438882115659964 L2.4739567842286663,3.832921366663763" stroke="black" stroke-width="0.05" />
<path d="M1.4766641112336698,3.1992377616828893 L1.4766641112336698,3.8407163669936866" stroke="black" stroke-width="0.05" />
<path d="M3.484536082474227,5.237835665016536 L3.484536082474227,5.891785872206916" stroke="black" stroke-width="0.05" />
<path d="M2.4739567842286663,5.22434281201518 L2.4739567842286663,5.879354522226754" stroke="black" stroke-width="0.05" />
<path d="M1.4766641112336698,5.096964838771369 L1.4766641112336698,5.910391910084598" stroke="black" stroke-width="0.05" />
<path d="M3.484536082474227,7.022801788146962 L3.484536082474227,7.950600616278862" stroke="black" stroke-width="0.05" />
<path d="M2.4739567842286663,7.160726483462344 L2.4739567842286663,7.824426431172388" stroke="black" stroke-width="0.05" />
<path d="M1.4766641112336698,7.226263829296368 L1.4766641112336698,7.755825744994105" stroke="black" stroke-width="0.05" />
<path d="M3.484536082474227,9.006922324939369 L3.484536082474227,9.936282746588626" stroke="black" stroke-width="0.05" />
<path d="M2.4739567842286663,9.122900269047873 L2.4739567842286663,9.908379146597243" stroke="black" stroke-width="0.05" />
<path d="M1.4766641112336698,9.022362365883149 L1.4766641112336698,9.906972791470169" stroke="black" stroke-width="0.05" />
<path d="M3.484536082474227,11.013571086396844 L3.484536082474227,11.772541831158417" stroke="black" stroke-width="0.05" />
<path d="M2.4739567842286663,11.178532551942274 L2.4739567842286663,11.869917720524851" stroke="black" stroke-width="0.05" />
<path d="M1.4766641112336698,11.023204065183581 L1.4766641112336698,11.998763384765487" stroke="black" stroke-width="0.05" />
<path d="M3.484536082474227,13.126025302950053 L3.484536082474227,13.800576280713623" stroke="black" stroke-width="0.05" />
<path d="M2.4739567842286663,13.161641134195811 L2.4739567842286663,13.924683417763884" stroke="black" stroke-width="0.05" />
<path d="M1.4766641112336698,13.043779789667385 L1.4766641112336698,13.861286404505774" stroke="black" stroke-width="0.05" />
<path d="M3.484536082474227,15.124401853862661 L3.484536082474227,15.975261770441143" stroke="black" stroke-width="0.05" />
<path d="M2.4739567842286663,15.022058027323348 L2.4739567842286663,15.918952344937187" stroke="black" stroke-width="0.05" />
<path d="M1.4766641112336698,15.144356652670655 L1.4766641112336698,15.828502682477925" stroke="black" stroke-width="0.05" />
<path d="M3.484536082474227,17.13213781407285 L3.484536082474227,17.88330149416054" stroke="black" stroke-width="0.05" />
<path d="M2.4739567842286663,17.184993222239772 L2.4739567842286663,17.902311010490763" stroke="black" stroke-width="0.05" />
<path d="M1.4766641112336698,17.146958794956085 L1.4766641112336698,17.76626091539667" stroke="black" stroke-width="0.05" />
<path d="M3.484536082474227,19.23674852484806 L3.484536082474227,19.954802252596263" stroke="black" stroke-width="0.05" />
<path d="M2.4739567842286663,19.173132839492787 L2.4739567842286663,19.933626667250234" stroke="black" stroke-width="0.05" />
<path d="M1.4766641112336698,19.092520395699896 L1.4766641112336698,19.98158068606105" stroke="black" stroke-width="0.05" />
<path d="M3.484536082474227,21.077467807578785 L3.484536082474227,21.76997510861821" stroke="black" stroke-width="0.05" />
<path d="M2.4739567842286663,21.058459157004613 L2.4739567842286663,21.974285096209258" stroke="black" stroke-width="0.05" />
<path d="M1.4766641112336698,21.229851603181995 L1.4766641112336698,21.935414977011124" stroke="black" stroke-width="0.05" />
<path d="M3.484536082474227,23.18113120728547 L3.484536082474227,23.868717765275964" stroke="black" stroke-width="0.05" />
<path d="M2.4739567842286663,23.026363361626572 L2.4739567842286663,23.822702518692704" stroke="black" stroke-width="0.05" />
<path d="M1.4766641112336698,23.113042003475847 L1.4766641112336698,23.780517090400746" stroke="black" stroke-width="0.05" />
<path d="M3.484536082474227,25.04230813742582 L3.484536082474227,25.861785840378133" stroke="black" stroke-width="0.05" />
<path d="M2.4739567842286663,25.145168109584066 L2.4739567842286663,25.828234203929448" stroke="black" stroke-width="0.05" />
<path d="M1.4766641112336698,25.029500297231777 L1.4766641112336698,25.905463629680522" stroke="black" stroke-width="0.05" />
<path d="M3.484536082474227,27.03123351550917 L3.484536082474227,27.96034551563509" stroke="black" stroke-width="0.05" />
<path d="M2.4739567842286663,27.186392489450213 L2.4739567842286663,27.882046768505198" stroke="black" stroke-width="0.05" />
<path d="M1.4766641112336698,27.18451191170932 L1.4766641112336698,27.855332261669158" stroke="black" stroke-width="0.05" />
<path d="M0,0 L8.0,0" stroke="black" stroke-width="0.1" />
<path d="M0,0 L0,28.25" stroke="blue" stroke-width="0.1" />
</svg>